<!-- Generated by IcoMoon.io -->
<svg version="1.1" xmlns="http://www.w3.org/2000/svg" width="25" height="24" viewBox="0 0 25 24">
<title>adjustments</title>
<path d="M23.25 0h-21.75c-0.617 0-1.5 0.883-1.5 1.5v21c0 0.616 0.883 1.5 1.5 1.5h21.75c0.616 0 1.5-0.884 1.5-1.5v-21c0-0.617-0.884-1.5-1.5-1.5zM24 22.5c-0.005 0.213-0.537 0.745-0.75 0.75h-21.75c-0.213-0.005-0.746-0.537-0.75-0.75v-21c0.004-0.213 0.537-0.746 0.75-0.75h21.75c0.213 0.004 0.745 0.537 0.75 0.75v21zM12.375 4.125c-0.827 0-1.5 0.673-1.5 1.5s0.673 1.5 1.5 1.5 1.5-0.673 1.5-1.5-0.673-1.5-1.5-1.5zM12.375 6.375c-0.413 0-0.75-0.337-0.75-0.75s0.337-0.75 0.75-0.75 0.75 0.337 0.75 0.75-0.337 0.75-0.75 0.75zM18.375 16.125c-0.827 0-1.5 0.673-1.5 1.5s0.673 1.5 1.5 1.5 1.5-0.673 1.5-1.5-0.673-1.5-1.5-1.5zM18.375 18.375c-0.413 0-0.75-0.337-0.75-0.75s0.337-0.75 0.75-0.75 0.75 0.337 0.75 0.75-0.337 0.75-0.75 0.75zM6.375 12.375c-0.827 0-1.5 0.673-1.5 1.5s0.673 1.5 1.5 1.5 1.5-0.673 1.5-1.5-0.673-1.5-1.5-1.5zM6.375 14.625c-0.413 0-0.75-0.337-0.75-0.75s0.337-0.75 0.75-0.75 0.75 0.337 0.75 0.75-0.337 0.75-0.75 0.75zM6.375 11.25c0.207 0 0.375-0.168 0.375-0.375v-6.75c0-0.207-0.168-0.375-0.375-0.375s-0.375 0.168-0.375 0.375v6.75c0 0.207 0.168 0.375 0.375 0.375zM6.375 16.5c-0.207 0-0.375 0.168-0.375 0.375v2.25c0 0.207 0.168 0.375 0.375 0.375s0.375-0.168 0.375-0.375v-2.25c0-0.207-0.168-0.375-0.375-0.375zM12.375 8.25c-0.207 0-0.375 0.168-0.375 0.375v10.5c0 0.207 0.168 0.375 0.375 0.375s0.375-0.168 0.375-0.375v-10.5c0-0.207-0.168-0.375-0.375-0.375zM18.375 15c0.207 0 0.375-0.168 0.375-0.375v-10.5c0-0.207-0.168-0.375-0.375-0.375s-0.375 0.168-0.375 0.375v10.5c0 0.207 0.168 0.375 0.375 0.375z"></path>
</svg>
