<!-- Generated by IcoMoon.io -->
<svg version="1.1" xmlns="http://www.w3.org/2000/svg" width="23" height="24" viewBox="0 0 23 24">
<title>alarmclock</title>
<path d="M11.25 1.5c-5.79 0-10.5 4.71-10.5 10.5s4.71 10.5 10.5 10.5 10.5-4.71 10.5-10.5-4.71-10.5-10.5-10.5zM11.25 21.75c-5.376 0-9.75-4.374-9.75-9.75s4.374-9.75 9.75-9.75 9.75 4.374 9.75 9.75-4.374 9.75-9.75 9.75zM5.625 0c-3.102 0-5.625 2.523-5.625 5.625v0.796c0 0.207 0.168 0.375 0.375 0.375s0.375-0.167 0.375-0.375v-0.797c0-2.688 2.187-4.875 4.875-4.875h0.656c0.207 0 0.375-0.168 0.375-0.375s-0.168-0.375-0.375-0.375h-0.656zM16.781 0h-0.656c-0.207 0-0.375 0.168-0.375 0.375s0.168 0.375 0.375 0.375h0.656c2.688 0 4.875 2.187 4.875 4.875v0.796c0 0.207 0.168 0.375 0.375 0.375s0.375-0.168 0.375-0.375v-0.797c0-3.102-2.523-5.625-5.625-5.625zM11.25 12.22v-5.231c0-0.207-0.168-0.375-0.375-0.375s-0.375 0.168-0.375 0.375v5.386c0 0.1 0.040 0.195 0.11 0.265l3.686 3.686c0.073 0.073 0.169 0.11 0.265 0.11s0.192-0.037 0.265-0.11c0.146-0.146 0.146-0.384 0-0.53l-3.576-3.576zM1.425 23.85l2.25-3c0.124-0.166 0.090-0.401-0.076-0.525-0.165-0.123-0.4-0.090-0.525 0.076l-2.25 3c-0.124 0.166-0.090 0.4 0.076 0.525 0.068 0.050 0.147 0.074 0.225 0.074 0.113 0 0.226-0.052 0.3-0.15zM19.425 20.4c-0.125-0.166-0.359-0.199-0.525-0.076-0.166 0.125-0.2 0.359-0.076 0.525l2.25 3c0.074 0.098 0.187 0.15 0.3 0.15 0.078 0 0.157-0.024 0.225-0.075 0.166-0.125 0.2-0.359 0.076-0.525l-2.25-2.999z"></path>
</svg>
