<!-- Generated by IcoMoon.io -->
<svg version="1.1" xmlns="http://www.w3.org/2000/svg" width="15" height="24" viewBox="0 0 15 24">
<title>angle-double-up</title>
<path d="M15.429 18.431c0 0.124-0.062 0.263-0.155 0.356l-0.773 0.773c-0.093 0.093-0.216 0.155-0.356 0.155-0.124 0-0.263-0.062-0.356-0.155l-6.076-6.076-6.076 6.076c-0.093 0.093-0.232 0.155-0.356 0.155s-0.263-0.062-0.356-0.155l-0.773-0.773c-0.093-0.093-0.155-0.232-0.155-0.356s0.062-0.263 0.155-0.356l7.204-7.204c0.093-0.093 0.232-0.155 0.356-0.155s0.263 0.062 0.356 0.155l7.204 7.204c0.093 0.093 0.155 0.232 0.155 0.356zM15.429 12.495c0 0.124-0.062 0.263-0.155 0.356l-0.773 0.773c-0.093 0.093-0.216 0.155-0.356 0.155-0.124 0-0.263-0.062-0.356-0.155l-6.076-6.076-6.076 6.076c-0.093 0.093-0.232 0.155-0.356 0.155s-0.263-0.062-0.356-0.155l-0.773-0.773c-0.093-0.093-0.155-0.232-0.155-0.356s0.062-0.263 0.155-0.356l7.204-7.204c0.093-0.093 0.232-0.155 0.356-0.155s0.263 0.062 0.356 0.155l7.204 7.204c0.093 0.093 0.155 0.232 0.155 0.356z"></path>
</svg>
