<!-- Generated by IcoMoon.io -->
<svg version="1.1" xmlns="http://www.w3.org/2000/svg" width="24" height="24" viewBox="0 0 24 24">
<title>aperture</title>
<path d="M12 24c6.616 0 12-5.384 12-12s-5.384-12-12-12-12 5.383-12 12 5.383 12 12 12zM5.782 2.632c-0.658 1.773-0.985 3.607-0.934 5.465 0.037 1.348 0.268 2.699 0.688 4.016 0.326 1.020 0.752 1.991 1.268 2.886 0.082 0.144 0.169 0.286 0.256 0.426 0.071 0.114 0.193 0.177 0.319 0.177 0.068 0 0.136-0.018 0.198-0.056 0.176-0.11 0.23-0.341 0.121-0.516-0.082-0.133-0.164-0.269-0.244-0.406-0.488-0.848-0.893-1.769-1.203-2.738-0.398-1.25-0.617-2.532-0.652-3.809-0.053-1.956 0.312-3.887 1.105-5.786 0.037-0.090 0.076-0.179 0.115-0.267 1.553-0.81 3.313-1.275 5.183-1.275 1.795 0 3.486 0.433 4.993 1.183-1.86 0.317-3.607 0.95-5.189 1.922-1.148 0.704-2.204 1.58-3.134 2.603-0.722 0.791-1.349 1.647-1.865 2.541-0.083 0.144-0.164 0.289-0.241 0.436-0.098 0.183-0.028 0.41 0.155 0.507 0.056 0.030 0.116 0.044 0.175 0.044 0.134 0 0.264-0.073 0.331-0.2 0.074-0.138 0.149-0.275 0.229-0.412 0.489-0.848 1.085-1.659 1.77-2.411 0.884-0.97 1.885-1.801 2.973-2.47 1.669-1.024 3.523-1.673 5.515-1.929 0.11-0.015 0.22-0.027 0.33-0.040 2.938 1.88 4.941 5.082 5.173 8.764-1.205-1.451-2.626-2.648-4.259-3.532-1.186-0.643-2.473-1.118-3.823-1.413-1.215-0.266-2.439-0.38-3.632-0.336-0.206 0.008-0.368 0.182-0.361 0.389 0.007 0.202 0.173 0.361 0.375 0.361 0.005 0 0.009 0 0.014 0 1.122-0.042 2.29 0.066 3.445 0.319 1.28 0.28 2.501 0.731 3.625 1.34 1.721 0.933 3.211 2.215 4.468 3.863 0.054 0.070 0.106 0.141 0.158 0.211-0.161 3.701-2.106 6.944-5.008 8.875 0.658-1.773 0.985-3.607 0.934-5.465-0.038-1.349-0.268-2.699-0.688-4.016-0.326-1.020-0.752-1.991-1.268-2.886-0.082-0.144-0.169-0.286-0.256-0.426-0.11-0.176-0.341-0.229-0.516-0.121-0.176 0.11-0.23 0.34-0.121 0.516 0.082 0.133 0.164 0.268 0.244 0.406 0.488 0.848 0.893 1.769 1.203 2.738 0.398 1.25 0.617 2.532 0.652 3.809 0.053 1.955-0.312 3.887-1.105 5.785-0.037 0.089-0.076 0.178-0.115 0.267-1.553 0.81-3.314 1.275-5.183 1.275-1.795 0-3.486-0.433-4.993-1.183 1.859-0.317 3.607-0.95 5.189-1.922 1.15-0.706 2.204-1.582 3.134-2.603 0.722-0.792 1.35-1.647 1.865-2.542 0.083-0.144 0.164-0.289 0.242-0.436 0.097-0.183 0.028-0.41-0.155-0.507-0.181-0.098-0.41-0.027-0.507 0.155-0.073 0.138-0.149 0.275-0.229 0.413-0.489 0.848-1.085 1.659-1.771 2.411-0.882 0.97-1.883 1.8-2.972 2.47-1.669 1.024-3.524 1.673-5.516 1.929-0.11 0.015-0.22 0.027-0.33 0.040-2.938-1.88-4.941-5.082-5.173-8.765 1.204 1.451 2.626 2.648 4.259 3.532 1.187 0.643 2.473 1.118 3.823 1.413 1.046 0.23 2.1 0.346 3.134 0.346 0.167 0 0.332-0.003 0.499-0.009 0.206-0.008 0.368-0.182 0.361-0.389-0.008-0.206-0.154-0.379-0.389-0.361-1.12 0.043-2.29-0.066-3.445-0.319-1.28-0.28-2.5-0.731-3.625-1.34-1.721-0.933-3.211-2.215-4.468-3.863-0.054-0.070-0.106-0.141-0.158-0.212 0.162-3.7 2.107-6.943 5.008-8.875z"></path>
</svg>
