<!-- Generated by IcoMoon.io -->
<svg version="1.1" xmlns="http://www.w3.org/2000/svg" width="24" height="24" viewBox="0 0 24 24">
<title>attachment</title>
<path d="M14.239 12.353c0.123 0.014 0.245 0.020 0.367 0.020 0.912 0 1.787-0.361 2.444-1.018l5.554-5.554c0.649-0.649 1.012-1.511 1.017-2.423 0.007-0.915-0.344-1.773-0.987-2.416-0.638-0.637-1.485-0.988-2.391-0.988-0.008 0-0.016 0-0.025 0-0.913 0.006-1.773 0.367-2.423 1.017l-5.554 5.554c-0.821 0.821-1.177 1.987-0.952 3.118 0.043 0.217 0.26 0.359 0.472 0.314 0.217-0.043 0.359-0.254 0.315-0.471-0.173-0.868 0.101-1.763 0.732-2.394l5.554-5.554c0.5-0.5 1.161-0.778 1.861-0.782 0.731 0 1.354 0.262 1.843 0.752s0.758 1.145 0.753 1.844c-0.005 0.701-0.283 1.362-0.783 1.862l-5.554 5.554c-0.573 0.572-1.36 0.85-2.159 0.768-0.214-0.025-0.418 0.136-0.441 0.356-0.024 0.222 0.136 0.419 0.356 0.443zM11.355 17.455c0.861-0.861 1.206-2.077 0.922-3.251-0.052-0.215-0.263-0.35-0.485-0.295-0.215 0.052-0.347 0.268-0.296 0.484 0.218 0.901-0.047 1.833-0.709 2.496l-5.554 5.554c-0.5 0.5-1.161 0.778-1.862 0.782-0.719 0.004-1.354-0.262-1.844-0.752s-0.758-1.145-0.752-1.843c0.004-0.701 0.283-1.362 0.782-1.862l5.554-5.554c0.578-0.578 1.367-0.858 2.18-0.766 0.216 0.017 0.419-0.133 0.444-0.353s-0.133-0.418-0.353-0.444c-1.053-0.118-2.085 0.243-2.837 0.995l-5.554 5.554c-0.649 0.649-1.011 1.511-1.017 2.423-0.007 0.915 0.344 1.773 0.987 2.417 0.638 0.637 1.485 0.988 2.391 0.988 0.008 0 0.016 0 0.025 0 0.913-0.006 1.773-0.367 2.422-1.017l5.555-5.554zM17.050 6.654c-0.157-0.157-0.41-0.157-0.567 0l-10.125 10.125c-0.157 0.156-0.157 0.41 0 0.567 0.078 0.078 0.181 0.118 0.284 0.118s0.205-0.039 0.284-0.118l10.125-10.125c0.157-0.157 0.157-0.41 0-0.567z"></path>
</svg>
