<!-- Generated by IcoMoon.io -->
<svg version="1.1" xmlns="http://www.w3.org/2000/svg" width="24" height="24" viewBox="0 0 24 24">
<title>avatar</title>
<path d="M11.218 20.891c-0.24-0-0.47-0.092-0.645-0.256s-0.28-0.389-0.295-0.628l-0.522-8.643c-0.003-0.042 0.012-0.084 0.040-0.116s0.068-0.051 0.11-0.054c0.042-0.003 0.084 0.012 0.116 0.040s0.051 0.068 0.054 0.11l0.522 8.643c0.010 0.158 0.079 0.306 0.194 0.415s0.267 0.169 0.426 0.169h0.002c0.165-0.001 0.322-0.067 0.438-0.183s0.181-0.274 0.181-0.439l-0.005-3.793c0-0.042 0.017-0.083 0.047-0.113s0.071-0.047 0.113-0.047c0.042 0 0.083 0.017 0.113 0.047s0.047 0.071 0.047 0.113l0.005 3.793c-0 0.249-0.099 0.488-0.275 0.665s-0.415 0.276-0.664 0.277h-0.003z"></path>
<path d="M12.782 20.891h-0.002c-0.249-0.001-0.488-0.101-0.664-0.277s-0.275-0.416-0.275-0.665l0.005-3.793c0-0.042 0.017-0.083 0.047-0.113s0.071-0.047 0.113-0.047c0.042 0 0.083 0.017 0.113 0.047s0.047 0.071 0.047 0.113l-0.005 3.793c0 0.165 0.065 0.322 0.181 0.439s0.274 0.182 0.438 0.183h0.001c0.158-0 0.31-0.061 0.426-0.169s0.185-0.257 0.194-0.415l0.523-8.643c0.003-0.042 0.022-0.082 0.054-0.11s0.074-0.043 0.116-0.040c0.042 0.003 0.082 0.022 0.11 0.054s0.043 0.074 0.040 0.116l-0.523 8.643c-0.015 0.239-0.12 0.464-0.295 0.628s-0.405 0.256-0.645 0.256z"></path>
<path d="M14.049 15.613h-0.185c-0.042 0-0.083-0.017-0.113-0.047s-0.047-0.071-0.047-0.113c0-0.042 0.017-0.083 0.047-0.113s0.071-0.047 0.113-0.047h0.185c0.261-0 0.51-0.104 0.695-0.288s0.288-0.434 0.288-0.695v-3.179c0.009-0.31-0.105-0.611-0.317-0.838s-0.506-0.359-0.816-0.37h-0.62c-0.375 0.262-0.821 0.403-1.279 0.403s-0.904-0.141-1.279-0.403h-0.62c-0.31 0.010-0.604 0.143-0.816 0.37s-0.326 0.528-0.317 0.838v3.179c0 0.261 0.104 0.511 0.288 0.695s0.434 0.288 0.695 0.288h0.185c0.042 0 0.083 0.017 0.113 0.047s0.047 0.071 0.047 0.113c0 0.042-0.017 0.083-0.047 0.113s-0.071 0.047-0.113 0.047h-0.185c-0.345-0-0.677-0.138-0.921-0.382s-0.382-0.575-0.382-0.921v-3.179c-0.009-0.395 0.139-0.778 0.411-1.064s0.647-0.453 1.042-0.463h0.67c0.033 0 0.066 0.010 0.093 0.030 0.329 0.243 0.727 0.373 1.135 0.373s0.807-0.131 1.135-0.373c0.027-0.019 0.060-0.030 0.093-0.030h0.67c0.395 0.011 0.77 0.177 1.042 0.463s0.42 0.669 0.411 1.064v3.179c-0 0.345-0.138 0.677-0.382 0.921s-0.576 0.382-0.921 0.382z"></path>
<path d="M12 9.612c-1.173 0-2.179-1.57-2.179-2.855-0.011-0.293 0.038-0.585 0.143-0.858s0.263-0.523 0.467-0.734c0.203-0.211 0.447-0.379 0.717-0.493s0.56-0.174 0.853-0.174c0.293 0 0.583 0.059 0.853 0.174s0.513 0.282 0.717 0.493c0.203 0.211 0.362 0.461 0.467 0.734s0.153 0.566 0.143 0.858c0 1.285-1.005 2.855-2.179 2.855zM12 4.816c-0.504 0.012-0.982 0.223-1.33 0.586s-0.538 0.851-0.529 1.354c0 1.117 0.875 2.535 1.859 2.535s1.859-1.418 1.859-2.535c0.010-0.504-0.18-0.99-0.529-1.354s-0.827-0.575-1.33-0.586z"></path>
<path d="M13.842 7.152c-1.164 0-1.957-0.836-2.259-1.217-0.728 0.909-1.524 0.828-1.616 0.815-0.004 0-0.008-0.001-0.012-0.002-0.040-0.006-0.076-0.028-0.1-0.059s-0.037-0.072-0.033-0.112c0.003-0.040 0.022-0.078 0.051-0.105s0.069-0.042 0.109-0.042c0.011 0 0.022 0.001 0.033 0.004 0.062 0.008 0.791 0.075 1.438-0.859 0.015-0.021 0.035-0.039 0.059-0.051s0.049-0.018 0.076-0.018c0.026 0 0.052 0.007 0.075 0.020s0.042 0.031 0.057 0.053c0.009 0.013 0.89 1.349 2.277 1.248 0.042-0.003 0.084 0.011 0.116 0.039s0.052 0.067 0.055 0.109c0.003 0.042-0.011 0.084-0.039 0.116s-0.067 0.052-0.109 0.055c-0.060 0.004-0.119 0.006-0.177 0.006z"></path>
<path d="M11.994 22.4c-1.87 0-3.336-0.733-3.336-1.669 0-0.621 0.637-1.167 1.703-1.461 0.020-0.006 0.042-0.008 0.063-0.005s0.041 0.009 0.060 0.019c0.019 0.010 0.035 0.024 0.048 0.041s0.023 0.036 0.028 0.056c0.006 0.020 0.007 0.042 0.004 0.063s-0.010 0.041-0.020 0.060-0.025 0.034-0.042 0.047c-0.017 0.013-0.036 0.022-0.057 0.028-0.905 0.249-1.468 0.691-1.468 1.152 0 0.731 1.381 1.349 3.016 1.349s3.016-0.618 3.016-1.349c0-0.459-0.558-0.899-1.456-1.149-0.041-0.011-0.076-0.039-0.096-0.075s-0.026-0.081-0.015-0.122 0.039-0.076 0.075-0.096c0.037-0.021 0.081-0.026 0.122-0.015 1.059 0.295 1.69 0.839 1.69 1.457-0 0.936-1.465 1.669-3.336 1.669z"></path>
<path d="M4.17 17.996c-0.24-0-0.47-0.092-0.645-0.256s-0.28-0.389-0.294-0.628l-0.523-8.643c-0.003-0.042 0.012-0.084 0.040-0.116s0.068-0.051 0.11-0.054c0.042-0.003 0.084 0.012 0.116 0.040s0.051 0.068 0.054 0.11l0.523 8.643c0.010 0.158 0.079 0.306 0.194 0.415s0.267 0.169 0.426 0.169h0.002c0.165-0.001 0.322-0.066 0.438-0.183s0.181-0.274 0.181-0.439l-0.006-3.793c0-0.042 0.017-0.083 0.047-0.113s0.071-0.047 0.113-0.047c0.042 0 0.083 0.017 0.113 0.047s0.047 0.071 0.047 0.113l0.005 3.793c0 0.249-0.099 0.488-0.275 0.665s-0.415 0.276-0.664 0.277l-0.002-0z"></path>
<path d="M5.734 17.996h-0.002c-0.249-0.001-0.488-0.101-0.664-0.277s-0.275-0.416-0.275-0.665l0.005-3.793c0-0.042 0.017-0.083 0.047-0.113s0.071-0.047 0.113-0.047c0.042 0 0.083 0.017 0.113 0.047s0.047 0.071 0.047 0.113l-0.005 3.793c0 0.165 0.065 0.322 0.181 0.439s0.274 0.182 0.438 0.183h0.002c0.158-0 0.31-0.061 0.426-0.169s0.185-0.257 0.194-0.415l0.522-8.643c0.003-0.042 0.022-0.082 0.054-0.11s0.074-0.043 0.116-0.040c0.042 0.003 0.082 0.022 0.11 0.054s0.043 0.074 0.040 0.116l-0.522 8.643c-0.015 0.239-0.12 0.464-0.295 0.629s-0.406 0.256-0.645 0.256z"></path>
<path d="M7.001 12.718h-0.185c-0.042 0-0.083-0.017-0.113-0.047s-0.047-0.071-0.047-0.113c0-0.042 0.017-0.083 0.047-0.113s0.071-0.047 0.113-0.047h0.185c0.261-0 0.51-0.104 0.694-0.288s0.288-0.434 0.288-0.695v-3.179c0.009-0.31-0.105-0.611-0.317-0.838s-0.506-0.359-0.816-0.37h-0.62c-0.375 0.262-0.821 0.403-1.279 0.403s-0.904-0.141-1.279-0.403h-0.62c-0.31 0.010-0.604 0.143-0.816 0.37s-0.327 0.527-0.317 0.838v3.179c0 0.261 0.104 0.51 0.288 0.695s0.434 0.288 0.695 0.288h0.185c0.042 0 0.083 0.017 0.113 0.047s0.047 0.071 0.047 0.113c0 0.042-0.017 0.083-0.047 0.113s-0.071 0.047-0.113 0.047h-0.185c-0.345-0-0.677-0.138-0.921-0.382s-0.382-0.576-0.382-0.921v-3.179c-0.009-0.395 0.139-0.778 0.411-1.064s0.647-0.453 1.042-0.463h0.67c0.033-0 0.066 0.010 0.093 0.030 0.329 0.242 0.727 0.373 1.136 0.373s0.807-0.131 1.136-0.373c0.027-0.019 0.060-0.030 0.093-0.030h0.67c0.395 0.010 0.77 0.177 1.042 0.463s0.42 0.669 0.411 1.064v3.179c-0 0.346-0.138 0.677-0.382 0.921s-0.576 0.382-0.921 0.382z"></path>
<path d="M4.952 6.716c-1.173 0-2.179-1.57-2.179-2.855-0.010-0.589 0.214-1.157 0.622-1.581s0.968-0.669 1.557-0.681c0.588 0.012 1.148 0.257 1.557 0.681s0.632 0.992 0.622 1.581c0 1.285-1.005 2.855-2.179 2.855zM4.952 1.92c-0.504 0.012-0.982 0.223-1.33 0.587s-0.538 0.851-0.528 1.355c0 1.117 0.875 2.535 1.859 2.535s1.859-1.418 1.859-2.535c0.010-0.504-0.18-0.991-0.528-1.355s-0.827-0.575-1.33-0.587z"></path>
<path d="M6.793 4.257c-1.164 0-1.957-0.836-2.258-1.217-0.727 0.909-1.523 0.828-1.616 0.815-0.004 0-0.008-0.001-0.012-0.002-0.040-0.007-0.075-0.028-0.1-0.060s-0.036-0.072-0.033-0.111c0.003-0.040 0.022-0.077 0.051-0.104s0.068-0.042 0.108-0.042c0.011 0 0.022 0.001 0.033 0.004 0.064 0.008 0.792 0.074 1.438-0.859 0.015-0.022 0.035-0.039 0.058-0.051s0.049-0.018 0.076-0.018c0.026 0 0.052 0.007 0.075 0.020s0.042 0.031 0.057 0.053c0.009 0.013 0.889 1.349 2.277 1.248 0.042-0.003 0.084 0.012 0.116 0.039s0.052 0.067 0.055 0.109c0.002 0.021-0.001 0.042-0.008 0.062s-0.017 0.038-0.031 0.054c-0.014 0.016-0.030 0.029-0.049 0.038s-0.039 0.015-0.060 0.017c-0.061 0.004-0.12 0.006-0.178 0.006z"></path>
<path d="M4.946 19.504c-1.87 0-3.336-0.733-3.336-1.669 0-0.621 0.637-1.168 1.703-1.461 0.020-0.006 0.041-0.007 0.062-0.005s0.041 0.009 0.059 0.020c0.018 0.010 0.034 0.024 0.047 0.041s0.022 0.036 0.028 0.056c0.006 0.020 0.007 0.041 0.005 0.062s-0.009 0.041-0.020 0.059c-0.010 0.018-0.024 0.034-0.041 0.047s-0.036 0.022-0.056 0.028c-0.906 0.249-1.468 0.691-1.468 1.152 0 0.731 1.381 1.349 3.016 1.349s3.016-0.618 3.016-1.349c0-0.459-0.558-0.899-1.456-1.149-0.041-0.011-0.076-0.039-0.096-0.075s-0.026-0.081-0.015-0.122 0.039-0.076 0.075-0.096c0.037-0.021 0.081-0.026 0.122-0.015 1.058 0.295 1.69 0.839 1.69 1.457-0 0.937-1.465 1.669-3.336 1.669z"></path>
<path d="M19.83 17.996h-0.002c-0.249-0.001-0.488-0.101-0.664-0.277s-0.275-0.416-0.275-0.665l0.005-3.793c0-0.042 0.017-0.083 0.047-0.113s0.071-0.047 0.113-0.047 0.083 0.017 0.113 0.047c0.030 0.030 0.047 0.071 0.047 0.113l-0.005 3.793c-0 0.165 0.065 0.322 0.181 0.439s0.274 0.182 0.438 0.183h0.002c0.158-0 0.31-0.061 0.426-0.169s0.185-0.257 0.194-0.415l0.522-8.643c0.003-0.042 0.022-0.082 0.054-0.11s0.074-0.043 0.116-0.040c0.042 0.003 0.082 0.022 0.11 0.054s0.043 0.074 0.040 0.116l-0.522 8.643c-0.015 0.239-0.12 0.464-0.295 0.629s-0.406 0.256-0.645 0.256z"></path>
<path d="M18.266 17.996c-0.24-0-0.47-0.092-0.645-0.256s-0.28-0.389-0.294-0.628l-0.522-8.643c-0.001-0.021 0.002-0.042 0.008-0.062s0.018-0.038 0.032-0.054c0.014-0.016 0.031-0.029 0.050-0.038s0.039-0.015 0.060-0.016c0.021-0.001 0.042 0.002 0.062 0.008s0.038 0.018 0.054 0.032c0.016 0.014 0.029 0.031 0.038 0.050s0.015 0.039 0.016 0.060l0.522 8.643c0.010 0.158 0.079 0.306 0.194 0.415s0.267 0.169 0.426 0.169h0.002c0.165-0.001 0.322-0.066 0.438-0.183s0.181-0.274 0.181-0.439l-0.005-3.793c0-0.042 0.017-0.083 0.047-0.113s0.071-0.047 0.113-0.047c0.042 0 0.083 0.017 0.113 0.047s0.047 0.071 0.047 0.113l0.005 3.793c0 0.249-0.099 0.489-0.275 0.665s-0.415 0.276-0.664 0.277l-0.003-0z"></path>
<path d="M21.097 12.718h-0.185c-0.042 0-0.083-0.017-0.113-0.047s-0.047-0.071-0.047-0.113c0-0.042 0.017-0.083 0.047-0.113s0.071-0.047 0.113-0.047h0.185c0.261-0 0.51-0.104 0.694-0.288s0.288-0.434 0.288-0.695v-3.179c0.009-0.31-0.105-0.611-0.317-0.838s-0.506-0.359-0.816-0.37h-0.62c-0.375 0.262-0.821 0.403-1.279 0.403s-0.904-0.141-1.279-0.403h-0.62c-0.31 0.010-0.604 0.143-0.816 0.37s-0.327 0.527-0.317 0.838v3.179c0 0.261 0.104 0.51 0.288 0.695s0.434 0.288 0.695 0.288h0.186c0.042 0 0.083 0.017 0.113 0.047s0.047 0.071 0.047 0.113c0 0.042-0.017 0.083-0.047 0.113s-0.071 0.047-0.113 0.047h-0.186c-0.346-0-0.677-0.138-0.921-0.382s-0.382-0.576-0.382-0.921v-3.179c-0.009-0.395 0.139-0.778 0.411-1.064s0.647-0.453 1.042-0.463h0.67c0.033-0 0.066 0.010 0.093 0.030 0.329 0.242 0.727 0.373 1.136 0.373s0.807-0.131 1.136-0.373c0.027-0.019 0.060-0.030 0.093-0.030h0.67c0.395 0.010 0.77 0.177 1.043 0.463s0.42 0.669 0.411 1.064v3.179c-0 0.345-0.138 0.677-0.382 0.921s-0.576 0.382-0.921 0.382z"></path>
<path d="M19.048 6.717c-1.173 0-2.179-1.57-2.179-2.855-0.011-0.293 0.037-0.585 0.142-0.859s0.263-0.524 0.467-0.735 0.447-0.379 0.717-0.494c0.27-0.115 0.56-0.174 0.853-0.174s0.583 0.059 0.853 0.174c0.27 0.115 0.514 0.283 0.717 0.494s0.362 0.461 0.467 0.735c0.105 0.274 0.153 0.566 0.142 0.859 0 1.285-1.005 2.855-2.179 2.855zM19.048 1.92c-0.504 0.012-0.982 0.223-1.331 0.587s-0.538 0.851-0.528 1.355c0 1.117 0.875 2.535 1.859 2.535s1.859-1.418 1.859-2.535c0.010-0.504-0.18-0.991-0.528-1.355s-0.827-0.575-1.33-0.587z"></path>
<path d="M17.207 4.257c-0.058 0-0.117-0.002-0.177-0.006-0.042-0.003-0.082-0.023-0.109-0.055s-0.042-0.074-0.039-0.116c0.003-0.042 0.023-0.082 0.055-0.109s0.074-0.042 0.116-0.039c1.389 0.101 2.268-1.234 2.277-1.248 0.014-0.022 0.034-0.040 0.057-0.053s0.049-0.020 0.075-0.020c0.026-0 0.052 0.006 0.076 0.018s0.044 0.030 0.058 0.051c0.647 0.934 1.375 0.867 1.438 0.859 0.011-0.002 0.022-0.003 0.033-0.004 0.040 0 0.079 0.015 0.108 0.042s0.048 0.064 0.051 0.104c0.003 0.040-0.008 0.080-0.033 0.111s-0.060 0.053-0.1 0.060c-0.004 0-0.008 0.002-0.012 0.002-0.093 0.013-0.889 0.094-1.616-0.815-0.301 0.381-1.095 1.218-2.259 1.218z"></path>
<path d="M19.054 19.504c-1.87 0-3.336-0.733-3.336-1.669 0-0.618 0.632-1.163 1.69-1.457 0.041-0.011 0.085-0.006 0.122 0.015s0.064 0.056 0.075 0.096 0.006 0.085-0.015 0.122c-0.021 0.037-0.056 0.064-0.096 0.075-0.898 0.25-1.456 0.69-1.456 1.149 0 0.731 1.381 1.349 3.016 1.349s3.016-0.618 3.016-1.349c0-0.461-0.563-0.903-1.468-1.152-0.040-0.012-0.074-0.039-0.095-0.076s-0.026-0.080-0.015-0.12c0.011-0.041 0.038-0.075 0.074-0.096s0.080-0.027 0.12-0.016c1.066 0.294 1.703 0.84 1.703 1.461-0 0.936-1.465 1.669-3.336 1.669z"></path>
<path d="M9.4 20.021c-0.030-0-0.059-0.009-0.085-0.025l-1.851-1.162c-0.035-0.023-0.061-0.059-0.070-0.1s-0.002-0.084 0.021-0.12c0.022-0.036 0.058-0.061 0.099-0.071s0.084-0.003 0.12 0.019l1.851 1.162c0.029 0.018 0.052 0.046 0.064 0.078s0.014 0.068 0.004 0.101c-0.010 0.033-0.030 0.063-0.058 0.084s-0.062 0.032-0.096 0.032z"></path>
<path d="M14.588 20.021c-0.035 0-0.069-0.011-0.096-0.032s-0.048-0.050-0.058-0.084c-0.010-0.033-0.008-0.069 0.004-0.101s0.035-0.060 0.064-0.078l1.851-1.162c0.036-0.023 0.079-0.030 0.121-0.020s0.077 0.035 0.1 0.071c0.023 0.036 0.030 0.079 0.021 0.121s-0.035 0.077-0.071 0.1l-1.851 1.162c-0.025 0.016-0.055 0.025-0.085 0.025z"></path>
</svg>
