<!-- Generated by IcoMoon.io -->
<svg version="1.1" xmlns="http://www.w3.org/2000/svg" width="27" height="24" viewBox="0 0 27 24">
<title>bargraph</title>
<path d="M19.5 7.875v15c0 0.132 0.027 0.257 0.069 0.375h-2.388c0.042-0.118 0.069-0.243 0.069-0.375v-21.75c0-0.62-0.505-1.125-1.125-1.125h-5.25c-0.62 0-1.125 0.505-1.125 1.125v21.75c0 0.132 0.027 0.257 0.069 0.375h-2.388c0.042-0.118 0.069-0.243 0.069-0.375v-8.25c0-0.62-0.505-1.125-1.125-1.125h-5.25c-0.62 0-1.125 0.505-1.125 1.125v8.25c0 0.62 0.505 1.125 1.125 1.125h24.75c0.62 0 1.125-0.505 1.125-1.125v-15c0-0.62-0.505-1.125-1.125-1.125h-5.25c-0.62 0-1.125 0.505-1.125 1.125zM3.75 23.25h-2.625c-0.206 0-0.375-0.168-0.375-0.375v-8.25c0-0.207 0.169-0.375 0.375-0.375h5.25c0.206 0 0.375 0.168 0.375 0.375v8.25c0 0.207-0.169 0.375-0.375 0.375h-2.625zM10.875 23.25c-0.206 0-0.375-0.168-0.375-0.375v-21.75c0-0.207 0.169-0.375 0.375-0.375h5.25c0.206 0 0.375 0.168 0.375 0.375v21.75c0 0.207-0.169 0.375-0.375 0.375h-5.25zM26.25 7.875v15c0 0.207-0.169 0.375-0.375 0.375h-5.25c-0.206 0-0.375-0.168-0.375-0.375v-15c0-0.207 0.169-0.375 0.375-0.375h5.25c0.206 0 0.375 0.168 0.375 0.375z"></path>
</svg>
