<!-- Generated by IcoMoon.io -->
<svg version="1.1" xmlns="http://www.w3.org/2000/svg" width="32" height="24" viewBox="0 0 32 24">
<title>basket</title>
<path d="M29.625 10.5h-27.75c-0.115 0-0.225 0.053-0.296 0.144s-0.096 0.209-0.068 0.322l3.004 12.013c0.072 0.253 0.293 1.022 1.11 1.022h20.25c0.82 0 1.039-0.77 1.114-1.034l3-12c0.028-0.112 0.003-0.231-0.068-0.322s-0.18-0.144-0.295-0.144zM26.265 22.772c-0.136 0.478-0.277 0.478-0.39 0.478h-20.25c-0.112 0-0.252 0-0.386-0.466l-2.883-11.534h26.789l-2.88 11.522zM13.875 21c0.207 0 0.375-0.168 0.375-0.375v-6.75c0-0.207-0.168-0.375-0.375-0.375s-0.375 0.168-0.375 0.375v6.75c0 0.207 0.168 0.375 0.375 0.375zM8.624 21c0.014 0 0.028-0.001 0.043-0.002 0.206-0.023 0.354-0.208 0.331-0.414l-0.75-6.75c-0.022-0.206-0.203-0.352-0.415-0.332-0.205 0.023-0.354 0.208-0.331 0.414l0.75 6.75c0.021 0.192 0.184 0.334 0.372 0.334zM18.375 21c0.207 0 0.375-0.168 0.375-0.375v-6.75c0-0.207-0.168-0.375-0.375-0.375s-0.375 0.168-0.375 0.375v6.75c0 0.207 0.168 0.375 0.375 0.375zM22.833 20.998c0.015 0.002 0.029 0.002 0.043 0.002 0.188 0 0.351-0.142 0.372-0.334l0.75-6.75c0.023-0.206-0.125-0.391-0.331-0.414-0.215-0.021-0.391 0.125-0.415 0.332l-0.75 6.75c-0.023 0.206 0.125 0.391 0.331 0.414zM25.875 9c0.087 0 0.174-0.030 0.245-0.091 0.157-0.136 0.173-0.372 0.038-0.529l-7.125-8.25c-0.136-0.158-0.372-0.173-0.529-0.039-0.157 0.136-0.173 0.372-0.038 0.529l7.125 8.25c0.074 0.086 0.178 0.13 0.284 0.13zM13.362 0.085c-0.16-0.13-0.396-0.108-0.527 0.053l-6.75 8.25c-0.131 0.16-0.108 0.396 0.053 0.528 0.070 0.056 0.154 0.084 0.238 0.084 0.109 0 0.216-0.046 0.29-0.138l6.75-8.25c0.131-0.16 0.107-0.396-0.053-0.527zM31.125 7.5h-3c-0.207 0-0.375 0.168-0.375 0.375s0.168 0.375 0.375 0.375h3c0.207 0 0.375-0.168 0.375-0.375s-0.168-0.375-0.375-0.375zM10.125 8.25h12c0.207 0 0.375-0.168 0.375-0.375s-0.168-0.375-0.375-0.375h-12c-0.207 0-0.375 0.168-0.375 0.375s0.168 0.375 0.375 0.375zM0.375 8.25h3.75c0.207 0 0.375-0.168 0.375-0.375s-0.168-0.375-0.375-0.375h-3.75c-0.207 0-0.375 0.168-0.375 0.375s0.168 0.375 0.375 0.375z"></path>
</svg>
