<!-- Generated by IcoMoon.io -->
<svg version="1.1" xmlns="http://www.w3.org/2000/svg" width="32" height="24" viewBox="0 0 32 24">
<title>browser</title>
<path d="M31.125 7.5c-0.207 0-0.375 0.168-0.375 0.375v15c0 0.207-0.168 0.375-0.375 0.375h-29.25c-0.207 0-0.375-0.168-0.375-0.375v-15c0-0.207-0.168-0.375-0.375-0.375s-0.375 0.168-0.375 0.375v15c0 0.62 0.505 1.125 1.125 1.125h29.25c0.62 0 1.125-0.505 1.125-1.125v-15c0-0.207-0.168-0.375-0.375-0.375zM30.375 0h-29.25c-0.62 0-1.125 0.505-1.125 1.125v4.5c0 0.207 0.168 0.375 0.375 0.375h30.75c0.207 0 0.375-0.168 0.375-0.375v-4.5c0-0.62-0.505-1.125-1.125-1.125zM30.75 5.25h-30v-4.125c0-0.207 0.168-0.375 0.375-0.375h29.25c0.207 0 0.375 0.168 0.375 0.375v4.125zM13.125 21c0.207 0 0.375-0.168 0.375-0.375v-12c0-0.207-0.168-0.375-0.375-0.375h-9.75c-0.207 0-0.375 0.168-0.375 0.375v12c0 0.207 0.168 0.375 0.375 0.375h9.75zM3.75 9h9v11.25h-9v-11.25zM16.875 11.25h11.25c0.207 0 0.375-0.168 0.375-0.375s-0.168-0.375-0.375-0.375h-11.25c-0.207 0-0.375 0.168-0.375 0.375s0.168 0.375 0.375 0.375zM16.875 15h11.25c0.207 0 0.375-0.168 0.375-0.375s-0.168-0.375-0.375-0.375h-11.25c-0.207 0-0.375 0.168-0.375 0.375s0.168 0.375 0.375 0.375zM16.875 18.75h11.25c0.207 0 0.375-0.168 0.375-0.375s-0.168-0.375-0.375-0.375h-11.25c-0.207 0-0.375 0.168-0.375 0.375s0.168 0.375 0.375 0.375zM2.25 3c0 0.414 0.336 0.75 0.75 0.75s0.75-0.336 0.75-0.75c0-0.414-0.336-0.75-0.75-0.75s-0.75 0.336-0.75 0.75zM5.25 3c0 0.414 0.336 0.75 0.75 0.75s0.75-0.336 0.75-0.75c0-0.414-0.336-0.75-0.75-0.75s-0.75 0.336-0.75 0.75zM8.25 3c0 0.414 0.336 0.75 0.75 0.75s0.75-0.336 0.75-0.75c0-0.414-0.336-0.75-0.75-0.75s-0.75 0.336-0.75 0.75z"></path>
</svg>
