<!-- Generated by IcoMoon.io -->
<svg version="1.1" xmlns="http://www.w3.org/2000/svg" width="24" height="24" viewBox="0 0 24 24">
<title>bulb</title>
<path d="M15.27 18.675h-6.542c-0.043 0-0.086-0.015-0.119-0.043s-0.056-0.067-0.063-0.11c-0.253-1.461-0.893-2.206-1.862-3.334-0.129-0.15-0.263-0.306-0.403-0.472-0.923-1.093-1.514-2.427-1.703-3.845s0.032-2.86 0.637-4.157c0.605-1.296 1.569-2.392 2.777-3.158s2.61-1.17 4.041-1.164 2.829 0.422 4.031 1.197c1.202 0.776 2.156 1.88 2.75 3.181s0.803 2.745 0.602 4.162c-0.201 1.416-0.803 2.746-1.735 3.83-0.114 0.133-0.225 0.26-0.331 0.382-1.028 1.18-1.648 1.893-1.897 3.375-0.007 0.043-0.030 0.082-0.063 0.111s-0.076 0.044-0.12 0.043zM8.881 18.306h6.235c0.285-1.483 0.956-2.255 1.955-3.402 0.106-0.122 0.216-0.248 0.33-0.381 0.887-1.031 1.46-2.295 1.651-3.642s-0.007-2.72-0.572-3.958c-0.565-1.238-1.472-2.287-2.615-3.025s-2.473-1.133-3.834-1.139c-1.36-0.006-2.694 0.378-3.843 1.107s-2.065 1.771-2.64 3.003c-0.575 1.233-0.785 2.605-0.605 3.953s0.742 2.617 1.621 3.656c0.139 0.165 0.273 0.32 0.401 0.469 0.975 1.135 1.631 1.898 1.916 3.359h0.001z"></path>
<path d="M12.464 24h-0.927c-0.474 0.003-0.932-0.164-1.293-0.471s-0.598-0.734-0.67-1.202c-0.004-0.024-0.003-0.049 0.002-0.073s0.016-0.046 0.030-0.066c0.014-0.020 0.032-0.037 0.053-0.050s0.044-0.021 0.068-0.025 0.049-0.003 0.073 0.003c0.024 0.006 0.046 0.016 0.066 0.031s0.036 0.033 0.049 0.054c0.012 0.021 0.021 0.044 0.024 0.069 0.063 0.379 0.257 0.724 0.55 0.973s0.664 0.386 1.048 0.387h0.927c0.385 0.002 0.757-0.134 1.050-0.384s0.485-0.596 0.543-0.977c0.008-0.048 0.034-0.092 0.073-0.121s0.089-0.041 0.137-0.033 0.092 0.034 0.121 0.073c0.029 0.040 0.041 0.089 0.033 0.137-0.071 0.467-0.308 0.894-0.668 1.201s-0.818 0.475-1.29 0.472z"></path>
<path d="M15.293 19.943h-6.586c-0.217 0-0.426-0.086-0.579-0.24s-0.24-0.362-0.24-0.579c0-0.217 0.086-0.426 0.24-0.579s0.362-0.24 0.579-0.24h6.586c0.217 0 0.426 0.086 0.579 0.24s0.24 0.362 0.24 0.579c0 0.217-0.086 0.426-0.24 0.579s-0.362 0.24-0.579 0.24zM8.707 18.673c-0.119 0-0.234 0.047-0.318 0.132s-0.132 0.199-0.132 0.318c0 0.119 0.047 0.234 0.132 0.318s0.199 0.132 0.318 0.132h6.586c0.119 0 0.234-0.047 0.318-0.132s0.132-0.199 0.132-0.318c0-0.119-0.047-0.234-0.132-0.318s-0.199-0.132-0.318-0.132h-6.586z"></path>
<path d="M15.293 21.212h-6.586c-0.109 0.002-0.217-0.018-0.317-0.059s-0.193-0.101-0.27-0.177c-0.077-0.076-0.139-0.167-0.181-0.267s-0.064-0.208-0.064-0.316c0-0.109 0.022-0.216 0.064-0.316s0.103-0.191 0.181-0.267c0.077-0.076 0.169-0.136 0.27-0.177s0.209-0.060 0.317-0.059h6.586c0.109-0.002 0.217 0.018 0.317 0.059s0.193 0.101 0.27 0.177c0.077 0.076 0.139 0.167 0.181 0.267s0.064 0.208 0.064 0.316c0 0.109-0.022 0.216-0.064 0.316s-0.103 0.191-0.181 0.267c-0.077 0.076-0.169 0.136-0.27 0.177s-0.209 0.060-0.317 0.059zM8.707 19.943c-0.060-0.001-0.119 0.010-0.175 0.032s-0.106 0.055-0.149 0.097c-0.043 0.042-0.077 0.092-0.1 0.147s-0.035 0.114-0.035 0.174 0.012 0.119 0.035 0.174c0.023 0.055 0.057 0.105 0.1 0.147s0.094 0.075 0.149 0.097c0.056 0.022 0.115 0.033 0.175 0.032h6.586c0.060 0.001 0.119-0.010 0.175-0.032s0.106-0.055 0.149-0.097c0.043-0.042 0.077-0.092 0.1-0.147s0.035-0.115 0.035-0.174-0.012-0.119-0.035-0.174c-0.023-0.055-0.057-0.105-0.1-0.147s-0.093-0.075-0.149-0.097c-0.056-0.022-0.115-0.033-0.175-0.032h-6.586z"></path>
<path d="M15.293 22.483h-6.586c-0.217 0-0.426-0.086-0.579-0.24s-0.24-0.362-0.24-0.579 0.086-0.426 0.24-0.579c0.154-0.154 0.362-0.24 0.579-0.24h6.586c0.217 0 0.426 0.086 0.579 0.24s0.24 0.362 0.24 0.579-0.086 0.426-0.24 0.579c-0.154 0.154-0.362 0.24-0.579 0.24zM8.707 21.212c-0.119 0-0.234 0.047-0.318 0.132s-0.132 0.199-0.132 0.318c0 0.119 0.047 0.234 0.132 0.318s0.199 0.132 0.318 0.132h6.586c0.119 0 0.234-0.047 0.318-0.132s0.132-0.199 0.132-0.318c0-0.119-0.047-0.234-0.132-0.318s-0.199-0.132-0.318-0.132h-6.586z"></path>
<path d="M12.423 5.898h-0.847c-0.049 0-0.096-0.019-0.131-0.054s-0.054-0.082-0.054-0.131 0.019-0.096 0.054-0.131c0.035-0.035 0.082-0.054 0.131-0.054h0.847c0.049 0 0.096 0.019 0.131 0.054s0.054 0.082 0.054 0.131c0 0.049-0.019 0.096-0.054 0.131s-0.082 0.054-0.131 0.054z"></path>
<path d="M12.423 13.163h-0.847c-0.049 0-0.096-0.019-0.131-0.054s-0.054-0.082-0.054-0.131c0-0.049 0.019-0.096 0.054-0.131s0.082-0.054 0.131-0.054h0.847c0.049 0 0.096 0.019 0.131 0.054s0.054 0.082 0.054 0.131c0 0.049-0.019 0.096-0.054 0.131s-0.082 0.054-0.131 0.054z"></path>
<path d="M9.809 5.898c-0.042-0-0.083-0.014-0.115-0.041s-0.055-0.063-0.065-0.104c-0.027-0.109-0.085-0.209-0.166-0.288s-0.182-0.134-0.292-0.158c-0.047-0.012-0.087-0.042-0.112-0.084s-0.033-0.091-0.021-0.138c0.011-0.047 0.041-0.088 0.082-0.113s0.091-0.034 0.138-0.023c0.177 0.041 0.339 0.131 0.468 0.259s0.22 0.289 0.263 0.466c0.005 0.024 0.006 0.048 0.002 0.072s-0.013 0.047-0.026 0.067-0.030 0.038-0.050 0.052c-0.020 0.014-0.042 0.024-0.066 0.029-0.013 0.003-0.027 0.004-0.040 0.004z"></path>
<path d="M8.198 7.722c-0.241 0.001-0.475-0.083-0.661-0.238-0.019-0.016-0.034-0.035-0.045-0.056s-0.018-0.045-0.020-0.069c-0.002-0.024 0.001-0.048 0.008-0.072s0.019-0.045 0.035-0.063c0.016-0.019 0.035-0.034 0.056-0.045s0.045-0.018 0.069-0.020c0.024-0.002 0.048 0.001 0.072 0.008s0.045 0.019 0.063 0.035c0.119 0.099 0.269 0.152 0.423 0.151 0.049 0 0.096 0.019 0.131 0.054s0.054 0.082 0.054 0.131-0.019 0.096-0.054 0.131c-0.035 0.035-0.082 0.054-0.131 0.054z"></path>
<path d="M7.747 9.432c-0.201 0-0.4-0.048-0.578-0.141-0.022-0.011-0.042-0.026-0.058-0.045s-0.029-0.040-0.036-0.064-0.011-0.048-0.009-0.073c0.002-0.025 0.009-0.049 0.021-0.071s0.027-0.041 0.046-0.057c0.019-0.016 0.041-0.027 0.065-0.034s0.049-0.009 0.073-0.006c0.025 0.003 0.048 0.011 0.070 0.023 0.185 0.095 0.398 0.122 0.601 0.078 0.048-0.011 0.098-0.002 0.139 0.024s0.071 0.068 0.081 0.115c0.011 0.048 0.002 0.098-0.024 0.139s-0.068 0.071-0.115 0.081c-0.091 0.020-0.183 0.030-0.276 0.030z"></path>
<path d="M9.493 8.956c-0.048 0-0.094-0.018-0.128-0.052s-0.055-0.078-0.056-0.126c-0.007-0.189 0.036-0.377 0.124-0.545 0.092-0.176 0.228-0.325 0.394-0.433 0.020-0.013 0.043-0.023 0.067-0.027s0.048-0.004 0.072 0.001c0.024 0.005 0.046 0.014 0.066 0.028s0.037 0.031 0.051 0.051c0.013 0.020 0.023 0.043 0.027 0.067s0.004 0.048-0.001 0.072c-0.005 0.024-0.014 0.046-0.028 0.066s-0.031 0.037-0.051 0.051c-0.113 0.074-0.206 0.176-0.268 0.295-0.059 0.111-0.087 0.235-0.082 0.361 0.001 0.024-0.003 0.048-0.011 0.071s-0.021 0.044-0.038 0.061c-0.017 0.018-0.036 0.032-0.058 0.042s-0.046 0.016-0.070 0.017l-0.008-0.001z"></path>
<path d="M9.897 10.763c-0.036 0-0.072-0.001-0.107-0.004-0.2-0.017-0.394-0.082-0.563-0.191-0.020-0.013-0.038-0.030-0.052-0.050s-0.024-0.042-0.029-0.066c-0.005-0.024-0.006-0.048-0.001-0.072s0.013-0.047 0.026-0.067c0.013-0.020 0.030-0.038 0.050-0.052s0.042-0.024 0.066-0.029c0.024-0.005 0.048-0.006 0.072-0.001s0.047 0.013 0.067 0.026c0.119 0.076 0.254 0.121 0.395 0.133 0.137 0.012 0.274-0.008 0.401-0.059 0.045-0.017 0.096-0.016 0.14 0.003s0.079 0.056 0.097 0.101 0.018 0.095-0.001 0.14c-0.019 0.045-0.054 0.080-0.099 0.099-0.147 0.058-0.304 0.088-0.463 0.088z"></path>
<path d="M7.853 11.008c-0.083 0-0.165-0.008-0.246-0.024-0.048-0.010-0.090-0.038-0.117-0.078s-0.037-0.090-0.028-0.138c0.010-0.048 0.038-0.090 0.078-0.117s0.090-0.037 0.138-0.028c0.142 0.028 0.289 0.021 0.427-0.020 0.047-0.014 0.098-0.009 0.141 0.014s0.075 0.063 0.089 0.11c0.014 0.047 0.009 0.097-0.014 0.141s-0.063 0.075-0.11 0.089c-0.116 0.035-0.237 0.052-0.359 0.052z"></path>
<path d="M8.267 12.728c-0.024 0.001-0.048-0.003-0.071-0.012s-0.043-0.022-0.061-0.038-0.032-0.037-0.042-0.059c-0.010-0.022-0.016-0.046-0.016-0.070s0.003-0.048 0.012-0.071c0.009-0.023 0.022-0.043 0.038-0.061s0.037-0.032 0.059-0.042c0.022-0.010 0.046-0.016 0.070-0.016 0.167-0.010 0.327-0.068 0.462-0.168 0.019-0.015 0.041-0.025 0.065-0.031s0.048-0.007 0.072-0.004c0.024 0.003 0.047 0.012 0.068 0.024s0.039 0.029 0.054 0.048c0.015 0.019 0.025 0.041 0.031 0.065s0.007 0.048 0.004 0.072-0.012 0.047-0.024 0.068c-0.012 0.021-0.029 0.039-0.048 0.054-0.192 0.142-0.421 0.226-0.659 0.24l-0.013 0.001z"></path>
<path d="M9.711 13.838c-0.041 0-0.081-0.014-0.114-0.039s-0.056-0.061-0.066-0.101c-0.010-0.040-0.006-0.082 0.010-0.12s0.045-0.069 0.082-0.088c0.163-0.086 0.292-0.226 0.363-0.397 0.018-0.045 0.054-0.082 0.099-0.101s0.096-0.019 0.141-0.001 0.082 0.054 0.101 0.099c0.019 0.045 0.019 0.096 0.001 0.141-0.104 0.25-0.292 0.456-0.531 0.583-0.027 0.014-0.057 0.022-0.087 0.022z"></path>
<path d="M11.575 6.79c-0.037 0-0.073-0.011-0.104-0.032-0.116-0.078-0.249-0.127-0.388-0.141s-0.279 0.006-0.409 0.059c-0.023 0.008-0.047 0.011-0.072 0.009s-0.048-0.008-0.069-0.019c-0.022-0.011-0.041-0.026-0.057-0.044s-0.028-0.040-0.035-0.063c-0.008-0.023-0.011-0.047-0.009-0.072s0.008-0.048 0.019-0.069 0.026-0.041 0.044-0.057c0.018-0.016 0.040-0.028 0.063-0.035 0.183-0.070 0.38-0.095 0.575-0.073s0.381 0.091 0.544 0.2c0.033 0.022 0.057 0.054 0.070 0.092s0.014 0.078 0.002 0.115c-0.012 0.038-0.035 0.071-0.067 0.094s-0.070 0.036-0.11 0.036v0z"></path>
<path d="M11.015 12.366c-0.155-0.002-0.309-0.029-0.455-0.081-0.023-0.008-0.044-0.020-0.063-0.035s-0.033-0.035-0.044-0.057c-0.011-0.022-0.017-0.045-0.019-0.069s0.001-0.048 0.009-0.072c0.008-0.023 0.020-0.044 0.035-0.063s0.035-0.033 0.057-0.044c0.022-0.011 0.045-0.017 0.069-0.019s0.048 0.001 0.072 0.009c0.129 0.053 0.27 0.073 0.408 0.059s0.272-0.063 0.388-0.141c0.020-0.014 0.043-0.025 0.067-0.030s0.049-0.006 0.073-0.002c0.024 0.004 0.047 0.013 0.068 0.027s0.039 0.031 0.052 0.051c0.014 0.020 0.024 0.043 0.028 0.068s0.005 0.049-0 0.073c-0.005 0.024-0.015 0.047-0.029 0.067s-0.032 0.038-0.053 0.051c-0.195 0.136-0.427 0.208-0.664 0.208z"></path>
<path d="M10.564 14.319c-0.178 0.002-0.354-0.037-0.516-0.111s-0.305-0.185-0.419-0.322c-0.134 0.050-0.276 0.075-0.418 0.075-0.31 0.007-0.61-0.109-0.834-0.322s-0.355-0.507-0.363-0.817c0-0.035 0.002-0.070 0.006-0.105-0.277-0.034-0.532-0.167-0.719-0.373s-0.293-0.474-0.3-0.753c0.001-0.267 0.098-0.525 0.274-0.726-0.184-0.094-0.339-0.237-0.448-0.412s-0.169-0.377-0.172-0.584c0-0.273 0.103-0.536 0.288-0.737-0.122-0.103-0.22-0.232-0.288-0.377s-0.104-0.302-0.105-0.462c0.002-0.236 0.078-0.465 0.217-0.656s0.334-0.333 0.558-0.407c-0.082-0.14-0.125-0.299-0.125-0.461 0.005-0.227 0.089-0.445 0.237-0.616s0.353-0.284 0.577-0.32c0.008-0.132 0.043-0.26 0.102-0.378s0.142-0.222 0.242-0.307c0.101-0.085 0.218-0.149 0.344-0.187s0.259-0.051 0.39-0.038c0.077-0.169 0.201-0.312 0.358-0.412s0.339-0.152 0.525-0.15c0.13-0 0.258 0.025 0.378 0.075 0.173-0.169 0.405-0.263 0.646-0.262 0.463 0 0.762 0.338 0.762 0.86v8.144c-0.008 0.31-0.139 0.604-0.363 0.817s-0.524 0.329-0.834 0.322zM9.692 13.473c0.031-0 0.062 0.008 0.090 0.023s0.051 0.037 0.067 0.064c0.076 0.121 0.181 0.22 0.307 0.288s0.266 0.103 0.408 0.101c0.212 0.007 0.418-0.070 0.573-0.214s0.247-0.344 0.255-0.556v-8.145c0-0.183-0.051-0.491-0.393-0.491-0.088-0.001-0.174 0.019-0.252 0.059s-0.145 0.098-0.196 0.169c-0.027 0.039-0.068 0.066-0.114 0.076s-0.095 0.001-0.135-0.024c-0.098-0.061-0.211-0.093-0.327-0.092-0.132-0.003-0.261 0.038-0.366 0.118s-0.179 0.193-0.211 0.321c-0.005 0.024-0.015 0.047-0.029 0.068s-0.032 0.038-0.053 0.051c-0.021 0.013-0.044 0.022-0.069 0.026s-0.050 0.003-0.074-0.003c-0.053-0.014-0.107-0.022-0.161-0.022-0.161-0.006-0.317 0.053-0.435 0.162s-0.188 0.261-0.195 0.421c0.001 0.033 0.004 0.066 0.011 0.098 0.005 0.027 0.004 0.055-0.004 0.082s-0.020 0.051-0.039 0.072-0.041 0.037-0.066 0.048c-0.025 0.011-0.053 0.016-0.080 0.015-0.006 0-0.018-0.001-0.025-0.002-0.158-0.002-0.31 0.058-0.425 0.167s-0.182 0.258-0.187 0.416c0.001 0.084 0.021 0.166 0.058 0.241s0.091 0.141 0.156 0.193c0.028 0.023 0.049 0.055 0.060 0.090s0.010 0.073-0.001 0.108c-0.011 0.035-0.032 0.066-0.061 0.089s-0.064 0.037-0.101 0.039c-0.2 0.007-0.39 0.090-0.531 0.231s-0.223 0.332-0.229 0.532c0.002 0.137 0.041 0.27 0.113 0.386s0.174 0.211 0.296 0.273c0.027 0.015 0.050 0.037 0.067 0.063s0.026 0.056 0.028 0.087-0.004 0.062-0.018 0.090c-0.013 0.028-0.034 0.052-0.059 0.071-0.098 0.068-0.179 0.158-0.235 0.263s-0.086 0.222-0.088 0.342c0.004 0.18 0.071 0.353 0.188 0.49s0.279 0.228 0.456 0.259c0.036 0.008 0.069 0.026 0.094 0.052s0.043 0.060 0.049 0.096c0.007 0.036 0.002 0.073-0.012 0.107s-0.039 0.062-0.070 0.082c-0.109 0.067-0.199 0.16-0.262 0.271s-0.097 0.236-0.099 0.364c0.008 0.212 0.1 0.412 0.255 0.556s0.361 0.221 0.573 0.214c0.014-0.002 0.027-0.004 0.041-0.005 0.030-0.001 0.059 0.005 0.087 0.018s0.051 0.031 0.069 0.055c0.018 0.024 0.030 0.052 0.035 0.081s0.003 0.060-0.007 0.088c-0.025 0.072-0.039 0.148-0.041 0.224 0.008 0.212 0.1 0.412 0.255 0.556s0.361 0.221 0.573 0.214c0.138-0.001 0.274-0.035 0.397-0.099 0.026-0.013 0.055-0.020 0.085-0.020z"></path>
<path d="M14.19 5.898c-0.014-0-0.027-0.002-0.040-0.004-0.024-0.005-0.046-0.015-0.066-0.029s-0.037-0.032-0.050-0.052-0.022-0.043-0.026-0.067c-0.004-0.024-0.004-0.048 0.002-0.072 0.043-0.177 0.134-0.338 0.263-0.466s0.291-0.217 0.468-0.258c0.047-0.011 0.097-0.002 0.138 0.023s0.071 0.066 0.082 0.113c0.011 0.047 0.004 0.097-0.021 0.138s-0.065 0.072-0.112 0.084c-0.11 0.025-0.211 0.079-0.292 0.158s-0.138 0.178-0.166 0.288c-0.009 0.041-0.032 0.077-0.065 0.104s-0.073 0.041-0.115 0.041z"></path>
<path d="M15.801 7.722c-0.049 0-0.096-0.019-0.131-0.054s-0.054-0.082-0.054-0.131 0.019-0.096 0.054-0.131c0.035-0.035 0.082-0.054 0.131-0.054 0.154 0.001 0.304-0.053 0.423-0.151 0.037-0.032 0.086-0.047 0.135-0.043s0.094 0.028 0.125 0.065c0.032 0.037 0.047 0.086 0.043 0.135s-0.028 0.094-0.065 0.125c-0.185 0.155-0.419 0.239-0.661 0.238z"></path>
<path d="M16.252 9.432c-0.093 0-0.185-0.010-0.276-0.030-0.047-0.011-0.088-0.041-0.114-0.082s-0.034-0.091-0.023-0.138c0.011-0.047 0.039-0.089 0.080-0.115s0.090-0.035 0.138-0.025c0.203 0.045 0.416 0.017 0.601-0.078 0.022-0.012 0.045-0.019 0.070-0.022s0.049-0 0.073 0.007c0.024 0.007 0.046 0.019 0.064 0.034s0.035 0.035 0.046 0.057c0.011 0.022 0.018 0.046 0.021 0.070s-0.001 0.049-0.008 0.073c-0.008 0.023-0.020 0.045-0.036 0.064s-0.036 0.034-0.058 0.045c-0.179 0.093-0.377 0.142-0.578 0.141z"></path>
<path d="M14.506 8.956h-0.007c-0.024-0.001-0.048-0.007-0.070-0.017s-0.042-0.025-0.058-0.042-0.029-0.039-0.038-0.061c-0.008-0.023-0.012-0.047-0.011-0.071 0.005-0.125-0.024-0.25-0.082-0.361-0.063-0.12-0.155-0.222-0.268-0.295-0.041-0.027-0.070-0.069-0.079-0.117s-0-0.098 0.027-0.139c0.027-0.041 0.069-0.070 0.117-0.079s0.098-0 0.139 0.027c0.166 0.109 0.302 0.259 0.393 0.435 0.087 0.168 0.13 0.356 0.123 0.545-0.002 0.047-0.022 0.092-0.057 0.125s-0.080 0.051-0.128 0.051z"></path>
<path d="M14.102 10.763c-0.158 0-0.315-0.030-0.463-0.088-0.023-0.009-0.043-0.022-0.060-0.039s-0.031-0.037-0.041-0.059c-0.010-0.022-0.015-0.046-0.015-0.070s0.004-0.048 0.013-0.071c0.009-0.023 0.022-0.043 0.039-0.060s0.037-0.031 0.059-0.041c0.022-0.010 0.046-0.015 0.070-0.015s0.048 0.004 0.071 0.013c0.129 0.051 0.268 0.071 0.407 0.058s0.272-0.058 0.389-0.132c0.041-0.027 0.091-0.036 0.139-0.025s0.090 0.039 0.116 0.080c0.027 0.041 0.036 0.091 0.025 0.139s-0.039 0.090-0.080 0.116c-0.169 0.108-0.363 0.174-0.563 0.191-0.036 0.003-0.071 0.004-0.107 0.004z"></path>
<path d="M16.147 11.008c-0.122 0-0.243-0.017-0.359-0.052-0.046-0.015-0.084-0.047-0.107-0.090s-0.027-0.093-0.014-0.139 0.045-0.085 0.087-0.109c0.042-0.023 0.092-0.029 0.139-0.016 0.139 0.041 0.285 0.048 0.427 0.020 0.024-0.005 0.048-0.005 0.072 0s0.046 0.014 0.067 0.028c0.020 0.014 0.037 0.031 0.051 0.051s0.023 0.043 0.028 0.067c0.005 0.024 0.005 0.048 0 0.072s-0.014 0.046-0.028 0.067c-0.013 0.020-0.031 0.037-0.051 0.051s-0.043 0.023-0.067 0.028c-0.081 0.016-0.163 0.024-0.246 0.024z"></path>
<path d="M15.733 12.728h-0.012c-0.238-0.014-0.467-0.098-0.659-0.24-0.019-0.015-0.036-0.033-0.048-0.054s-0.020-0.044-0.024-0.068c-0.003-0.024-0.002-0.048 0.004-0.072s0.017-0.046 0.031-0.065c0.015-0.019 0.033-0.036 0.054-0.048s0.044-0.020 0.068-0.024c0.024-0.003 0.048-0.002 0.072 0.004s0.046 0.017 0.065 0.031c0.134 0.1 0.295 0.158 0.462 0.168 0.049 0.002 0.095 0.022 0.129 0.058s0.051 0.083 0.050 0.132c-0.002 0.049-0.022 0.095-0.058 0.129s-0.083 0.051-0.132 0.050l-0.001-0.001z"></path>
<path d="M14.289 13.838c-0.030 0-0.060-0.008-0.087-0.022-0.24-0.127-0.427-0.333-0.531-0.583-0.018-0.045-0.018-0.096 0.001-0.141s0.055-0.081 0.101-0.099c0.045-0.018 0.096-0.018 0.141 0.001s0.081 0.055 0.099 0.101c0.071 0.17 0.2 0.311 0.363 0.397 0.036 0.019 0.065 0.050 0.082 0.088s0.020 0.080 0.010 0.12c-0.010 0.040-0.033 0.075-0.066 0.101s-0.073 0.039-0.114 0.039z"></path>
<path d="M12.423 6.79c-0.039 0-0.078-0.013-0.11-0.036s-0.055-0.056-0.067-0.094c-0.012-0.038-0.011-0.078 0.002-0.115s0.038-0.069 0.070-0.092c0.163-0.109 0.349-0.178 0.544-0.2s0.392 0.003 0.575 0.073c0.023 0.008 0.044 0.020 0.063 0.035s0.033 0.035 0.044 0.057 0.018 0.045 0.019 0.069c0.002 0.024-0.001 0.048-0.009 0.072s-0.020 0.044-0.035 0.063c-0.016 0.018-0.035 0.033-0.057 0.044s-0.045 0.018-0.069 0.019c-0.024 0.002-0.048-0.001-0.072-0.009-0.129-0.053-0.27-0.073-0.409-0.059s-0.272 0.063-0.388 0.141c-0.031 0.021-0.067 0.032-0.104 0.032z"></path>
<path d="M12.984 12.366c-0.238 0-0.47-0.073-0.665-0.208-0.020-0.014-0.037-0.031-0.051-0.051s-0.023-0.043-0.027-0.067c-0.005-0.024-0.004-0.048 0-0.072s0.014-0.046 0.028-0.066c0.014-0.020 0.031-0.037 0.051-0.051s0.043-0.023 0.067-0.027c0.024-0.005 0.048-0.004 0.072 0.001s0.046 0.014 0.066 0.028c0.116 0.078 0.249 0.127 0.388 0.141s0.279-0.006 0.409-0.059c0.023-0.008 0.047-0.011 0.072-0.009s0.048 0.008 0.069 0.019 0.041 0.026 0.057 0.044c0.016 0.018 0.028 0.040 0.035 0.063s0.011 0.047 0.009 0.072c-0.002 0.024-0.008 0.048-0.019 0.069s-0.026 0.041-0.044 0.057c-0.018 0.016-0.040 0.028-0.063 0.035-0.146 0.052-0.3 0.079-0.455 0.081z"></path>
<path d="M13.436 14.319c-0.31 0.007-0.61-0.109-0.834-0.322s-0.355-0.507-0.363-0.817v-8.145c0-0.522 0.299-0.86 0.762-0.86 0.241-0.001 0.474 0.093 0.646 0.262 0.12-0.049 0.248-0.075 0.378-0.075 0.186-0.002 0.368 0.050 0.525 0.15s0.281 0.243 0.358 0.412c0.131-0.014 0.264-0.001 0.39 0.038s0.243 0.102 0.344 0.188c0.101 0.085 0.183 0.19 0.242 0.307s0.094 0.246 0.102 0.378c0.224 0.036 0.428 0.149 0.577 0.32s0.233 0.389 0.238 0.616c-0 0.162-0.044 0.321-0.127 0.46 0.224 0.074 0.419 0.216 0.558 0.407s0.215 0.42 0.217 0.656c-0.001 0.16-0.037 0.318-0.105 0.462s-0.166 0.273-0.288 0.377c0.185 0.201 0.287 0.464 0.288 0.737-0.003 0.207-0.063 0.408-0.172 0.584s-0.264 0.318-0.448 0.412c0.176 0.201 0.274 0.459 0.274 0.726-0.006 0.279-0.113 0.546-0.3 0.753s-0.442 0.339-0.719 0.373c0.004 0.035 0.006 0.070 0.006 0.105-0.008 0.31-0.139 0.603-0.363 0.817s-0.524 0.329-0.834 0.322c-0.143-0-0.284-0.026-0.418-0.075-0.114 0.137-0.257 0.247-0.418 0.322s-0.338 0.113-0.516 0.112zM13 4.544c-0.342 0-0.393 0.308-0.393 0.491v8.145c0.008 0.212 0.1 0.412 0.255 0.556s0.361 0.221 0.573 0.214c0.143 0.002 0.283-0.033 0.408-0.101s0.231-0.168 0.307-0.288c0.024-0.039 0.063-0.068 0.108-0.081s0.092-0.008 0.134 0.014c0.122 0.064 0.258 0.098 0.397 0.099 0.212 0.007 0.418-0.070 0.573-0.214s0.247-0.344 0.255-0.556c-0.001-0.076-0.015-0.152-0.041-0.224-0.009-0.028-0.012-0.059-0.007-0.088s0.017-0.057 0.035-0.081c0.018-0.023 0.042-0.042 0.069-0.055s0.057-0.019 0.087-0.018c0.013 0 0.025 0.002 0.037 0.004h0.002c0.212 0.008 0.419-0.068 0.575-0.213s0.248-0.344 0.256-0.557c-0.002-0.128-0.035-0.253-0.099-0.364s-0.153-0.205-0.262-0.271c-0.031-0.020-0.055-0.048-0.070-0.082s-0.019-0.071-0.012-0.107c0.007-0.036 0.024-0.069 0.049-0.096s0.058-0.044 0.094-0.052c0.178-0.031 0.339-0.123 0.456-0.259s0.184-0.31 0.188-0.49c-0.002-0.119-0.032-0.236-0.088-0.342s-0.137-0.196-0.235-0.263c-0.025-0.018-0.045-0.042-0.059-0.071s-0.019-0.059-0.018-0.090 0.011-0.061 0.028-0.087c0.017-0.026 0.040-0.048 0.067-0.063 0.122-0.063 0.224-0.157 0.296-0.273s0.111-0.25 0.113-0.386c-0.006-0.2-0.088-0.39-0.229-0.532s-0.331-0.224-0.531-0.231c-0.037-0.003-0.072-0.017-0.101-0.039s-0.050-0.054-0.061-0.089-0.011-0.073-0.001-0.108c0.010-0.035 0.031-0.067 0.060-0.090 0.066-0.052 0.119-0.117 0.156-0.192s0.057-0.158 0.058-0.241c-0.007-0.161-0.077-0.312-0.195-0.421s-0.274-0.167-0.435-0.162c-0.028 0.001-0.056-0.004-0.082-0.015s-0.049-0.027-0.068-0.048c-0.019-0.020-0.032-0.045-0.040-0.071s-0.010-0.054-0.005-0.082c0.007-0.032 0.010-0.065 0.011-0.098-0.007-0.161-0.077-0.312-0.195-0.421s-0.274-0.167-0.435-0.162c-0.054 0.001-0.109 0.008-0.161 0.022-0.024 0.006-0.049 0.007-0.074 0.003s-0.048-0.013-0.069-0.026c-0.021-0.013-0.039-0.030-0.053-0.051s-0.024-0.043-0.029-0.068c-0.032-0.128-0.106-0.241-0.211-0.321s-0.234-0.122-0.365-0.118c-0.115-0-0.229 0.032-0.327 0.092-0.040 0.025-0.089 0.034-0.135 0.024s-0.087-0.037-0.114-0.076c-0.051-0.071-0.118-0.129-0.196-0.169s-0.164-0.060-0.252-0.059z"></path>
<path d="M12 1.44c-0.049 0-0.096-0.019-0.131-0.054s-0.054-0.082-0.054-0.131v-1.071c0-0.049 0.019-0.096 0.054-0.131s0.082-0.054 0.131-0.054c0.049 0 0.096 0.019 0.131 0.054s0.054 0.082 0.054 0.131v1.071c0 0.049-0.019 0.096-0.054 0.131s-0.082 0.054-0.131 0.054z"></path>
<path d="M8.505 2.178c-0.036 0-0.071-0.010-0.101-0.030s-0.054-0.047-0.068-0.080l-0.434-0.974c-0.011-0.022-0.017-0.046-0.018-0.071s0.003-0.049 0.011-0.072c0.009-0.023 0.022-0.044 0.038-0.062s0.037-0.033 0.060-0.043c0.023-0.010 0.047-0.015 0.072-0.016s0.049 0.004 0.072 0.013c0.023 0.009 0.044 0.023 0.061 0.040s0.031 0.038 0.041 0.061l0.434 0.974c0.013 0.028 0.018 0.059 0.016 0.090s-0.012 0.060-0.029 0.086c-0.017 0.026-0.040 0.047-0.067 0.062s-0.057 0.022-0.088 0.022z"></path>
<path d="M5.663 4.322c-0.046 0-0.090-0.017-0.124-0.047l-0.84-0.757c-0.019-0.016-0.034-0.036-0.045-0.058s-0.017-0.046-0.019-0.070c-0.002-0.024 0.002-0.049 0.010-0.072s0.021-0.045 0.037-0.063c0.016-0.018 0.036-0.033 0.059-0.043s0.046-0.016 0.071-0.017 0.049 0.003 0.072 0.011c0.023 0.009 0.044 0.022 0.062 0.038l0.84 0.757c0.028 0.025 0.047 0.058 0.056 0.094s0.006 0.074-0.007 0.109c-0.013 0.035-0.037 0.065-0.068 0.086s-0.067 0.032-0.105 0.032h0.001z"></path>
<path d="M3.925 7.404c-0.019-0-0.039-0.003-0.057-0.009l-1.111-0.361c-0.044-0.017-0.081-0.050-0.101-0.093s-0.024-0.092-0.009-0.137c0.015-0.045 0.046-0.083 0.088-0.105s0.091-0.028 0.136-0.016l1.111 0.361c0.042 0.014 0.077 0.042 0.1 0.079s0.032 0.082 0.025 0.125c-0.007 0.043-0.029 0.083-0.062 0.111s-0.076 0.044-0.12 0.044v-0z"></path>
<path d="M2.394 11.037c-0.047-0-0.092-0.019-0.126-0.051s-0.054-0.077-0.057-0.124c-0.002-0.047 0.013-0.093 0.044-0.129s0.074-0.059 0.12-0.064l1.103-0.116c0.049-0.005 0.097 0.010 0.135 0.041s0.062 0.075 0.068 0.124c0.003 0.024 0 0.049-0.007 0.072s-0.018 0.045-0.034 0.064c-0.015 0.019-0.034 0.035-0.055 0.046s-0.045 0.019-0.069 0.021l-1.103 0.116c-0.007 0-0.014 0.001-0.020 0.001z"></path>
<path d="M3.636 14.857c-0.041 0-0.080-0.013-0.112-0.038s-0.055-0.059-0.066-0.099c-0.011-0.039-0.008-0.081 0.008-0.118s0.043-0.069 0.078-0.089l1.059-0.611c0.042-0.024 0.093-0.030 0.14-0.018s0.087 0.044 0.112 0.086c0.024 0.042 0.031 0.092 0.019 0.14s-0.043 0.087-0.085 0.112l-1.059 0.612c-0.028 0.016-0.060 0.024-0.092 0.024z"></path>
<path d="M15.495 2.178c-0.031-0-0.061-0.008-0.088-0.022s-0.050-0.036-0.067-0.062c-0.017-0.026-0.027-0.055-0.029-0.086s0.003-0.061 0.015-0.090l0.434-0.974c0.009-0.023 0.023-0.044 0.041-0.061s0.038-0.031 0.061-0.040c0.023-0.009 0.047-0.014 0.072-0.013s0.049 0.006 0.072 0.016c0.023 0.010 0.043 0.024 0.060 0.043s0.030 0.039 0.038 0.062c0.009 0.023 0.012 0.048 0.011 0.072s-0.007 0.049-0.018 0.071l-0.434 0.972c-0.014 0.033-0.038 0.061-0.068 0.080s-0.065 0.030-0.101 0.030z"></path>
<path d="M18.337 4.322c-0.037 0-0.074-0.011-0.105-0.032s-0.054-0.051-0.068-0.086c-0.013-0.035-0.016-0.073-0.007-0.109s0.028-0.069 0.056-0.094l0.84-0.757c0.018-0.017 0.039-0.030 0.062-0.038s0.047-0.012 0.072-0.011 0.049 0.007 0.071 0.017c0.022 0.010 0.042 0.025 0.059 0.043s0.029 0.040 0.037 0.063c0.008 0.023 0.011 0.048 0.010 0.072s-0.008 0.048-0.019 0.070-0.026 0.042-0.045 0.058l-0.84 0.757c-0.034 0.031-0.078 0.048-0.124 0.047z"></path>
<path d="M20.075 7.404c-0.044 0-0.086-0.016-0.12-0.044s-0.056-0.068-0.062-0.111 0.002-0.088 0.025-0.125c0.023-0.037 0.059-0.066 0.1-0.079l1.111-0.361c0.046-0.012 0.095-0.007 0.136 0.016s0.073 0.060 0.088 0.105c0.015 0.045 0.011 0.094-0.009 0.137s-0.057 0.076-0.101 0.093l-1.111 0.361c-0.018 0.006-0.038 0.009-0.057 0.010z"></path>
<path d="M21.606 11.037c-0.006 0-0.013 0-0.020 0l-1.103-0.116c-0.024-0.003-0.048-0.010-0.069-0.021s-0.040-0.027-0.055-0.046-0.027-0.041-0.034-0.064c-0.007-0.023-0.009-0.048-0.007-0.072 0.006-0.049 0.030-0.093 0.068-0.124s0.087-0.045 0.135-0.040l1.103 0.116c0.047 0.005 0.090 0.028 0.12 0.064s0.046 0.082 0.044 0.129c-0.002 0.047-0.023 0.091-0.057 0.124s-0.079 0.051-0.126 0.051l-0.001-0.001z"></path>
<path d="M20.364 14.857c-0.032 0-0.064-0.008-0.092-0.025l-1.059-0.612c-0.042-0.025-0.073-0.065-0.085-0.112s-0.006-0.097 0.019-0.14c0.024-0.042 0.064-0.073 0.111-0.086s0.097-0.006 0.14 0.018l1.059 0.612c0.035 0.020 0.063 0.052 0.078 0.089s0.018 0.079 0.008 0.118-0.034 0.074-0.066 0.099c-0.032 0.025-0.072 0.038-0.112 0.038z"></path>
<path d="M9.012 16.656c-0.033 0-0.066-0.009-0.095-0.026s-0.052-0.042-0.068-0.071c-0.378-0.707-0.881-1.292-1.464-1.971-0.129-0.15-0.261-0.304-0.399-0.467-0.016-0.019-0.027-0.040-0.035-0.063s-0.010-0.047-0.008-0.072 0.009-0.048 0.020-0.069c0.011-0.022 0.026-0.041 0.045-0.056s0.040-0.027 0.063-0.035 0.047-0.010 0.072-0.008c0.024 0.002 0.048 0.009 0.069 0.020s0.041 0.026 0.056 0.045c0.138 0.163 0.27 0.316 0.396 0.464 0.598 0.696 1.113 1.296 1.511 2.039 0.015 0.028 0.022 0.060 0.022 0.091s-0.010 0.063-0.026 0.090-0.040 0.050-0.067 0.066c-0.028 0.016-0.059 0.024-0.091 0.024z"></path>
</svg>
