<!-- Generated by IcoMoon.io -->
<svg version="1.1" xmlns="http://www.w3.org/2000/svg" width="24" height="24" viewBox="0 0 24 24">
<title>clock</title>
<path d="M12 24c6.616 0 12-5.384 12-12s-5.384-12-12-12-12 5.383-12 12 5.383 12 12 12zM12 0.75c6.203 0 11.25 5.047 11.25 11.25s-5.047 11.25-11.25 11.25-11.25-5.047-11.25-11.25 5.047-11.25 11.25-11.25zM15.046 16.326c0.073 0.073 0.169 0.11 0.265 0.11s0.192-0.037 0.265-0.11c0.146-0.146 0.146-0.384 0-0.53l-3.577-3.576v-5.231c0-0.207-0.168-0.375-0.375-0.375s-0.375 0.168-0.375 0.375v5.386c0 0.1 0.040 0.195 0.11 0.265l3.686 3.686zM2.25 12c0 0.414 0.336 0.75 0.75 0.75s0.75-0.336 0.75-0.75c0-0.414-0.336-0.75-0.75-0.75s-0.75 0.336-0.75 0.75zM20.25 12c0 0.414 0.336 0.75 0.75 0.75s0.75-0.336 0.75-0.75c0-0.414-0.336-0.75-0.75-0.75s-0.75 0.336-0.75 0.75zM11.25 3c0 0.414 0.336 0.75 0.75 0.75s0.75-0.336 0.75-0.75c0-0.414-0.336-0.75-0.75-0.75s-0.75 0.336-0.75 0.75zM11.25 21c0 0.414 0.336 0.75 0.75 0.75s0.75-0.336 0.75-0.75c0-0.414-0.336-0.75-0.75-0.75s-0.75 0.336-0.75 0.75zM5.25 6c0 0.414 0.336 0.75 0.75 0.75s0.75-0.336 0.75-0.75c0-0.414-0.336-0.75-0.75-0.75s-0.75 0.336-0.75 0.75zM17.25 18c0 0.414 0.336 0.75 0.75 0.75s0.75-0.336 0.75-0.75c0-0.414-0.336-0.75-0.75-0.75s-0.75 0.336-0.75 0.75zM18 6c0 0.414 0.336 0.75 0.75 0.75s0.75-0.336 0.75-0.75c0-0.414-0.336-0.75-0.75-0.75s-0.75 0.336-0.75 0.75zM5.25 18c0 0.414 0.336 0.75 0.75 0.75s0.75-0.336 0.75-0.75c0-0.414-0.336-0.75-0.75-0.75s-0.75 0.336-0.75 0.75z"></path>
</svg>
