<!-- Generated by IcoMoon.io -->
<svg version="1.1" xmlns="http://www.w3.org/2000/svg" width="24" height="24" viewBox="0 0 24 24">
<title>dial</title>
<path d="M11.999 8.25c-2.047 0-3.728 1.665-3.749 3.712-0.021 2.068 1.644 3.766 3.712 3.788 0.001 0 0.037 0 0.039 0 2.047 0 3.728-1.665 3.749-3.712 0.021-2.068-1.644-3.767-3.751-3.788zM12.001 15v0.375l-0.031-0.375c-1.654-0.016-2.986-1.376-2.969-3.031 0.016-1.637 1.362-2.969 3.031-2.969 1.654 0.017 2.986 1.376 2.969 3.031-0.017 1.637-1.362 2.969-2.999 2.969zM0 12c0 0.414 0.336 0.75 0.75 0.75s0.75-0.336 0.75-0.75c0-0.414-0.336-0.75-0.75-0.75s-0.75 0.336-0.75 0.75zM22.5 12c0 0.414 0.336 0.75 0.75 0.75s0.75-0.336 0.75-0.75c0-0.414-0.336-0.75-0.75-0.75s-0.75 0.336-0.75 0.75zM11.25 0.75c0 0.414 0.336 0.75 0.75 0.75s0.75-0.336 0.75-0.75c0-0.414-0.336-0.75-0.75-0.75s-0.75 0.336-0.75 0.75zM11.25 23.25c0 0.414 0.336 0.75 0.75 0.75s0.75-0.336 0.75-0.75c0-0.414-0.336-0.75-0.75-0.75s-0.75 0.336-0.75 0.75zM3 3.75c0 0.414 0.336 0.75 0.75 0.75s0.75-0.336 0.75-0.75c0-0.414-0.336-0.75-0.75-0.75s-0.75 0.336-0.75 0.75zM19.5 20.25c0 0.414 0.336 0.75 0.75 0.75s0.75-0.336 0.75-0.75c0-0.414-0.336-0.75-0.75-0.75s-0.75 0.336-0.75 0.75zM19.5 3.75c0 0.414 0.336 0.75 0.75 0.75s0.75-0.336 0.75-0.75c0-0.414-0.336-0.75-0.75-0.75s-0.75 0.336-0.75 0.75zM3 20.25c0 0.414 0.336 0.75 0.75 0.75s0.75-0.336 0.75-0.75c0-0.414-0.336-0.75-0.75-0.75s-0.75 0.336-0.75 0.75zM18 12.057v-5.682c0-0.207-0.168-0.375-0.375-0.375h-5.626c-3.274 0-5.966 2.664-5.999 5.939-0.016 1.603 0.593 3.115 1.715 4.261s2.622 1.784 4.225 1.8c0.001 0 0.061 0 0.062 0 0 0 0 0 0 0 3.274 0 5.965-2.664 5.998-5.943zM12.001 17.25v0.375l-0.054-0.375c-1.402-0.014-2.715-0.574-3.697-1.576s-1.514-2.326-1.5-3.728c0.029-2.865 2.383-5.196 5.307-5.196v0h5.193v5.303c-0.029 2.866-2.384 5.197-5.249 5.197z"></path>
</svg>
