<!-- Generated by IcoMoon.io -->
<svg version="1.1" xmlns="http://www.w3.org/2000/svg" width="32" height="24" viewBox="0 0 32 24">
<title>download</title>
<path d="M25.468 9.736c-0.322-4.958-3.77-9.736-10.093-9.736-0.772 0-1.533 0.075-2.264 0.223-0.203 0.041-0.334 0.238-0.293 0.443s0.236 0.334 0.443 0.293c0.681-0.139 1.393-0.209 2.114-0.209 6.441 0 9.375 5.054 9.375 9.75v1.125c0 0.207 0.168 0.375 0.375 0.375s0.375-0.168 0.375-0.375v-1.125c0-0.004-0.001-0.008-0.001-0.012 2.297 0.198 5.251 2.199 5.251 6.387 0 3.575-2.636 6.375-6 6.375h-18c-2.982 0-6-2.19-6-6.375 0-3.071 1.878-6.375 6-6.375h1.125c0.207 0 0.375-0.168 0.375-0.375s-0.168-0.375-0.375-0.375h-1.125v-1.5c0-2.795 1.724-4.531 4.5-4.531 2.523 0 4.5 1.99 4.5 4.531v9.745l-3.12-2.895c-0.15-0.141-0.388-0.133-0.529 0.019s-0.133 0.389 0.020 0.53l3.387 3.142c0.224 0.223 0.422 0.334 0.62 0.334 0.196 0 0.39-0.109 0.606-0.325l3.397-3.151c0.152-0.141 0.161-0.378 0.020-0.529-0.141-0.153-0.38-0.161-0.529-0.020l-3.12 2.896v-9.745c0-2.962-2.306-5.281-5.25-5.281-3.189 0-5.25 2.073-5.25 5.281v1.538c-3.941 0.381-6 3.752-6 7.087 0 3.454 2.365 7.125 6.75 7.125h18c3.785 0 6.75-3.13 6.75-7.125 0-4.728-3.418-6.959-6.032-7.139z"></path>
</svg>
