<!-- Generated by IcoMoon.io -->
<svg version="1.1" xmlns="http://www.w3.org/2000/svg" width="21" height="24" viewBox="0 0 21 24">
<title>flag</title>
<path d="M10.125 0.75h-8.25c-0.207 0-0.375 0.168-0.375 0.375v11.25c0 0.207 0.168 0.375 0.375 0.375h8.252c0.188 0 1.123 0.056 1.123 1.125 0 0.207 0.168 0.375 0.375 0.375s0.375-0.168 0.375-0.375v-11.262c-0.020-0.644-0.438-1.863-1.875-1.863zM11.25 12.342c-0.376-0.253-0.816-0.342-1.125-0.342h-7.875v-10.5h7.875c1.047 0 1.12 1.022 1.125 1.125v9.717zM19.747 15.75h-10.381c0.005 0.001-0.527 0.007-0.855-0.314-0.188-0.185-0.284-0.457-0.284-0.811 0-0.207-0.168-0.375-0.375-0.375s-0.375 0.168-0.375 0.375c0 0.566 0.173 1.020 0.516 1.352 0.515 0.499 1.236 0.523 1.364 0.523 0.011 0 10.39 0 10.39 0 0.292 0 0.539-0.118 0.698-0.332 0.211-0.284 0.206-0.647 0.139-0.871-0.422-1.39-2.656-4.412-3.284-5.247 0.605-0.931 2.861-4.455 3.284-5.845 0.068-0.224 0.073-0.587-0.139-0.872-0.159-0.215-0.407-0.333-0.698-0.333h-6.59c-0.207 0-0.375 0.168-0.375 0.375s0.168 0.375 0.375 0.375h6.59c0.074 0 0.089 0.021 0.095 0.029 0.035 0.046 0.041 0.148 0.023 0.206-0.447 1.471-3.309 5.829-3.338 5.873-0.088 0.133-0.081 0.307 0.016 0.434 0.029 0.038 2.879 3.764 3.323 5.221 0.017 0.059 0.012 0.16-0.023 0.207-0.006 0.008-0.021 0.029-0.095 0.029zM0.75 23.625v-23.25c0-0.207-0.168-0.375-0.375-0.375s-0.375 0.168-0.375 0.375v23.25c0 0.207 0.168 0.375 0.375 0.375s0.375-0.168 0.375-0.375z"></path>
</svg>
