<!-- Generated by IcoMoon.io -->
<svg version="1.1" xmlns="http://www.w3.org/2000/svg" width="32" height="24" viewBox="0 0 32 24">
<title>gears</title>
<path d="M2.769 16.29c0.132 0.032 0.311 0.194 0.363 0.343l0.262 0.633c0.059 0.122 0.048 0.362-0.022 0.478l-1.048 1.713c-0.224 0.367-0.178 0.888 0.124 1.226l0.887 0.886c0.309 0.274 0.854 0.324 1.21 0.109l1.713-1.048c0.107-0.066 0.337-0.089 0.499-0.014l0.632 0.261c0.127 0.044 0.29 0.223 0.322 0.355l0.47 1.953c0.1 0.414 0.495 0.755 0.919 0.793 0 0 0.26 0.024 0.65 0.024s0.65-0.024 0.651-0.024c0.424-0.038 0.819-0.38 0.919-0.794l0.471-1.953c0.031-0.131 0.193-0.311 0.342-0.362l0.633-0.263c0.112-0.055 0.37-0.043 0.478 0.023l1.713 1.048c0.151 0.092 0.331 0.141 0.522 0.141 0.259 0 0.509-0.091 0.703-0.264l0.886-0.887c0.287-0.322 0.333-0.842 0.109-1.21l-1.048-1.713c-0.070-0.116-0.082-0.356-0.014-0.499l0.261-0.632c0.044-0.128 0.223-0.29 0.355-0.322l1.953-0.47c0.414-0.1 0.755-0.495 0.793-0.919 0 0 0.024-0.26 0.024-0.65s-0.024-0.65-0.024-0.651c-0.038-0.424-0.38-0.819-0.793-0.919l-1.952-0.47c-0.132-0.032-0.311-0.194-0.363-0.343l-0.262-0.633c-0.059-0.122-0.048-0.362 0.023-0.478l1.048-1.713c0.224-0.367 0.178-0.888-0.124-1.226l-0.887-0.886c-0.31-0.275-0.856-0.325-1.21-0.109l-1.713 1.048c-0.107 0.065-0.338 0.090-0.499 0.014l-0.632-0.261c-0.127-0.044-0.289-0.223-0.321-0.355l-0.471-1.953c-0.1-0.414-0.495-0.755-0.919-0.793-0.002 0.001-0.262-0.023-0.652-0.023s-0.65 0.024-0.651 0.024c-0.424 0.038-0.819 0.38-0.92 0.793l-0.47 1.952c-0.031 0.132-0.194 0.311-0.343 0.363l-0.633 0.262c-0.113 0.055-0.37 0.043-0.478-0.022l-1.712-1.048c-0.355-0.216-0.889-0.178-1.226 0.123l-0.886 0.887c-0.287 0.322-0.333 0.842-0.109 1.21l1.048 1.713c0.071 0.115 0.082 0.356 0.014 0.499l-0.261 0.632c-0.044 0.128-0.223 0.29-0.355 0.322l-1.953 0.47c-0.414 0.1-0.754 0.495-0.794 0.919 0.002 0-0.022 0.26-0.022 0.65s0.024 0.65 0.024 0.651c0.038 0.424 0.38 0.819 0.794 0.919l1.951 0.47zM0.75 14.25c0-0.343 0.020-0.575 0.021-0.583 0.009-0.101 0.124-0.234 0.222-0.258l1.953-0.47c0.379-0.091 0.761-0.438 0.879-0.785l0.243-0.59c0.171-0.35 0.147-0.865-0.056-1.198l-1.048-1.712c-0.050-0.083-0.036-0.248 0.013-0.305l0.856-0.856c0.068-0.061 0.242-0.076 0.32-0.029l1.713 1.048c0.325 0.199 0.881 0.212 1.176 0.066l0.591-0.245c0.368-0.127 0.715-0.509 0.806-0.888l0.47-1.952c0.024-0.099 0.157-0.214 0.258-0.223 0.008 0 0.239-0.020 0.583-0.020s0.575 0.020 0.583 0.021c0.101 0.009 0.234 0.124 0.258 0.222l0.47 1.952c0.091 0.379 0.437 0.761 0.785 0.88l0.59 0.243c0.343 0.168 0.874 0.142 1.198-0.056l1.712-1.048c0.078-0.047 0.263-0.022 0.305 0.014l0.857 0.856c0.064 0.073 0.079 0.237 0.028 0.32l-1.048 1.713c-0.203 0.332-0.227 0.848-0.066 1.176l0.245 0.591c0.127 0.368 0.508 0.715 0.888 0.806l1.952 0.47c0.099 0.024 0.214 0.157 0.223 0.258 0 0.008 0.020 0.239 0.020 0.583s-0.020 0.575-0.021 0.583c-0.009 0.101-0.124 0.234-0.222 0.258l-1.953 0.47c-0.379 0.091-0.761 0.438-0.879 0.785l-0.243 0.59c-0.171 0.35-0.147 0.865 0.056 1.198l1.048 1.712c0.050 0.083 0.036 0.248-0.014 0.305l-0.856 0.856c-0.040 0.036-0.114 0.059-0.188 0.059-0.052 0-0.1-0.011-0.131-0.031l-1.713-1.048c-0.324-0.198-0.88-0.212-1.176-0.066l-0.591 0.244c-0.368 0.127-0.715 0.509-0.806 0.888l-0.47 1.952c-0.024 0.099-0.157 0.214-0.258 0.223-0.008 0-0.24 0.020-0.584 0.020s-0.575-0.020-0.583-0.021c-0.101-0.009-0.234-0.124-0.258-0.222l-0.47-1.953c-0.091-0.379-0.438-0.761-0.785-0.879l-0.59-0.243c-0.153-0.075-0.338-0.114-0.536-0.114-0.247 0-0.481 0.061-0.661 0.171l-1.712 1.048c-0.078 0.047-0.263 0.022-0.304-0.014l-0.856-0.857c-0.064-0.073-0.079-0.237-0.029-0.32l1.048-1.713c0.203-0.332 0.227-0.847 0.066-1.176l-0.244-0.591c-0.127-0.368-0.509-0.715-0.888-0.806l-1.952-0.47c-0.099-0.024-0.214-0.157-0.223-0.258 0-0.008-0.020-0.239-0.020-0.583zM9.75 18.375c2.275 0 4.125-1.85 4.125-4.125s-1.85-4.125-4.125-4.125-4.125 1.85-4.125 4.125 1.85 4.125 4.125 4.125zM9.75 10.875c1.861 0 3.375 1.514 3.375 3.375s-1.514 3.375-3.375 3.375-3.375-1.514-3.375-3.375 1.514-3.375 3.375-3.375zM20.608 3.986c-0.030 0.046-0.139 0.104-0.194 0.104l-1.396-0.014c-0.339 0-0.679 0.241-0.79 0.559 0 0-0.061 0.175-0.129 0.442s-0.096 0.451-0.096 0.451c-0.053 0.338 0.136 0.713 0.438 0.871l1.231 0.645c0.047 0.025 0.117 0.129 0.125 0.205l0.070 0.476c0.011 0.053-0.025 0.172-0.063 0.21l-0.991 0.972c-0.248 0.243-0.314 0.659-0.143 0.985l0.449 0.75c0.19 0.279 0.601 0.421 0.923 0.321l1.368-0.418c0.074 0 0.149 0.028 0.191 0.062l0.386 0.285c0.045 0.030 0.104 0.14 0.104 0.194l-0.014 1.389c-0.003 0.342 0.237 0.685 0.559 0.797 0 0 0.175 0.062 0.443 0.129s0.451 0.096 0.451 0.096c0.020 0.003 0.097 0.009 0.117 0.009 0.306 0 0.617-0.184 0.754-0.447l0.645-1.231c0.025-0.047 0.129-0.117 0.205-0.124l0.497-0.072c0.075 0 0.164 0.039 0.188 0.065l0.972 0.991c0.236 0.242 0.634 0.328 0.985 0.143l0.749-0.449c0.287-0.195 0.425-0.593 0.322-0.923l-0.414-1.325c-0.016-0.051 0.009-0.174 0.059-0.233l0.285-0.386c0.030-0.046 0.139-0.104 0.194-0.104l1.396 0.014c0.339 0 0.679-0.241 0.79-0.559 0 0 0.061-0.175 0.129-0.443s0.096-0.451 0.096-0.451c0.053-0.338-0.136-0.712-0.438-0.871l-1.231-0.645c-0.047-0.025-0.117-0.129-0.124-0.205l-0.069-0.475c-0.011-0.053 0.025-0.173 0.063-0.21l0.992-0.972c0.248-0.243 0.313-0.659 0.142-0.985l-0.449-0.75c-0.19-0.278-0.6-0.422-0.923-0.322l-1.369 0.418c-0.074 0-0.148-0.028-0.191-0.062l-0.386-0.285c-0.045-0.030-0.104-0.14-0.104-0.194l0.014-1.389c0.003-0.342-0.237-0.685-0.56-0.797 0 0-0.175-0.061-0.443-0.129s-0.451-0.096-0.451-0.096c-0.020-0.002-0.098-0.008-0.117-0.008-0.306 0-0.617 0.184-0.754 0.447l-0.645 1.231c-0.025 0.047-0.129 0.117-0.205 0.125l-0.497 0.071c-0.075 0-0.163-0.039-0.188-0.065l-0.972-0.992c-0.236-0.241-0.633-0.328-0.985-0.142l-0.75 0.449c-0.287 0.195-0.425 0.592-0.322 0.923l0.414 1.325c0.016 0.051-0.009 0.174-0.059 0.233l-0.284 0.386zM21.223 4.415l0.257-0.35c0.201-0.238 0.279-0.625 0.186-0.922l-0.413-1.325c-0.004-0.021 0.013-0.068 0.009-0.069l0.711-0.426 0.085 0.013 0.973 0.992c0.172 0.175 0.457 0.289 0.724 0.289 0.061 0 0.121-0.006 0.153-0.014l0.431-0.064c0.309-0.027 0.638-0.246 0.782-0.521l0.644-1.23c0.012-0.019 0.059-0.046 0.090-0.046 0.008 0.001 0.161 0.026 0.385 0.082s0.37 0.106 0.377 0.109c0.023 0.010 0.057 0.058 0.059 0.083l-0.014 1.389c-0.003 0.311 0.184 0.659 0.425 0.817l0.349 0.257c0.232 0.196 0.629 0.278 0.922 0.186l1.331-0.414c0.032 0 0.067 0.019 0.062 0.010l0.426 0.711c0.008 0.019 0 0.069-0.013 0.085l-0.992 0.973c-0.221 0.218-0.336 0.596-0.275 0.877l0.063 0.431c0.027 0.309 0.246 0.638 0.521 0.782l1.23 0.644c0.021 0.014 0.047 0.066 0.046 0.090-0.001 0.008-0.026 0.161-0.082 0.385s-0.107 0.37-0.11 0.377c-0.010 0.023-0.059 0.057-0.082 0.058l-1.397-0.014c-0.308 0-0.653 0.187-0.809 0.425l-0.257 0.349c-0.201 0.238-0.279 0.625-0.186 0.922l0.413 1.325c0.004 0.020-0.013 0.068-0.009 0.069l-0.711 0.426-0.085-0.013-0.973-0.991c-0.172-0.175-0.457-0.29-0.724-0.29-0.062 0-0.121 0.006-0.153 0.014l-0.431 0.064c-0.309 0.027-0.638 0.246-0.782 0.521l-0.644 1.23c-0.012 0.019-0.059 0.046-0.090 0.046v0c-0.008-0.001-0.161-0.026-0.385-0.082s-0.37-0.106-0.376-0.11c-0.023-0.010-0.057-0.058-0.058-0.082l0.014-1.389c0.003-0.31-0.184-0.659-0.425-0.817l-0.349-0.257c-0.167-0.141-0.412-0.225-0.656-0.225-0.095 0-0.184 0.014-0.266 0.039l-1.331 0.414c-0.032 0-0.068-0.017-0.062-0.010l-0.426-0.711c-0.008-0.019 0-0.069 0.013-0.085l0.992-0.973c0.221-0.218 0.336-0.596 0.275-0.877l-0.063-0.43c-0.027-0.309-0.246-0.638-0.521-0.782l-1.23-0.644c-0.021-0.013-0.047-0.066-0.046-0.090 0.001-0.008 0.026-0.161 0.082-0.385s0.107-0.37 0.11-0.376c0.010-0.023 0.058-0.057 0.082-0.059l1.396 0.013c0.308 0 0.653-0.187 0.809-0.425zM24.75 9c1.24 0 2.25-1.010 2.25-2.25s-1.010-2.25-2.25-2.25-2.25 1.010-2.25 2.25 1.009 2.25 2.25 2.25zM24.75 5.25c0.827 0 1.5 0.673 1.5 1.5s-0.673 1.5-1.5 1.5-1.5-0.673-1.5-1.5 0.673-1.5 1.5-1.5z"></path>
</svg>
