<!-- Generated by IcoMoon.io -->
<svg version="1.1" xmlns="http://www.w3.org/2000/svg" width="23" height="24" viewBox="0 0 23 24">
<title>genius</title>
<path d="M0.425 18c0.589 1.020 1.911 1.559 3.823 1.559 0 0 0 0 0.001 0 0.859 0 1.805-0.121 2.791-0.328 0.95 2.909 2.465 4.769 4.21 4.769s3.26-1.86 4.21-4.769c0.987 0.207 1.933 0.328 2.792 0.328 0 0 0 0 0 0 1.911 0 3.233-0.539 3.822-1.559 0.762-1.321 0.088-3.54-2.224-6 2.312-2.46 2.986-4.679 2.224-6-0.589-1.020-1.911-1.559-3.823-1.559-0.86 0-1.806 0.121-2.792 0.329-0.949-2.909-2.465-4.769-4.209-4.769s-3.26 1.86-4.21 4.769c-0.987-0.208-1.933-0.329-2.792-0.329-1.912 0-3.234 0.539-3.823 1.559-0.762 1.321-0.088 3.54 2.224 6-2.312 2.46-2.987 4.679-2.224 6zM11.25 23.25c-1.379 0-2.637-1.649-3.47-4.184 1.127-0.286 2.299-0.69 3.47-1.199 1.171 0.509 2.343 0.914 3.47 1.199-0.833 2.535-2.091 4.184-3.47 4.184zM6.75 12c0-0.873 0.046-1.723 0.126-2.545 0.67-0.466 1.378-0.921 2.124-1.352 0.738-0.426 1.493-0.808 2.25-1.15 0.757 0.341 1.512 0.723 2.25 1.15 0.746 0.431 1.453 0.885 2.124 1.352 0.080 0.822 0.126 1.672 0.126 2.545s-0.047 1.723-0.126 2.545c-0.67 0.466-1.378 0.921-2.124 1.352-0.738 0.426-1.493 0.808-2.25 1.15-0.757-0.341-1.512-0.723-2.25-1.15-0.746-0.431-1.454-0.885-2.124-1.352-0.079-0.822-0.126-1.672-0.126-2.545zM6.074 13.967c-0.86-0.646-1.638-1.309-2.315-1.967 0.676-0.659 1.455-1.322 2.315-1.967-0.044 0.64-0.074 1.294-0.074 1.967s0.029 1.327 0.074 1.967zM6.991 8.464c0.138-1.006 0.332-1.953 0.573-2.815 0.896 0.226 1.826 0.538 2.762 0.914-0.572 0.277-1.142 0.568-1.7 0.89-0.58 0.335-1.116 0.673-1.634 1.011zM12.174 6.563c0.935-0.377 1.865-0.689 2.761-0.914 0.242 0.862 0.435 1.81 0.573 2.816-0.518-0.338-1.054-0.676-1.634-1.011-0.558-0.322-1.128-0.613-1.7-0.89zM16.427 10.033c0.86 0.646 1.638 1.308 2.314 1.967-0.677 0.659-1.455 1.322-2.314 1.967 0.044-0.64 0.073-1.294 0.073-1.967s-0.029-1.327-0.073-1.967zM15.509 15.535c-0.138 1.006-0.331 1.953-0.573 2.816-0.896-0.226-1.826-0.538-2.761-0.914 0.572-0.276 1.142-0.568 1.701-0.89 0.579-0.335 1.115-0.673 1.634-1.011zM8.625 16.547c0.559 0.322 1.129 0.614 1.701 0.89-0.935 0.376-1.865 0.688-2.761 0.914-0.242-0.863-0.435-1.81-0.573-2.816 0.518 0.338 1.054 0.676 1.633 1.011zM21.425 17.625c-0.441 0.764-1.567 1.184-3.172 1.184-0.792 0-1.663-0.109-2.574-0.296 0.297-1.068 0.52-2.256 0.658-3.531 1.159-0.813 2.138-1.626 2.955-2.422 1.899 2.011 2.794 3.919 2.134 5.065zM18.252 5.191c1.605 0 2.732 0.421 3.172 1.184 0.662 1.145-0.235 3.053-2.134 5.065-0.817-0.795-1.796-1.609-2.955-2.422-0.138-1.275-0.361-2.463-0.658-3.531 0.91-0.187 1.783-0.296 2.574-0.296zM11.25 0.75c1.379 0 2.637 1.649 3.47 4.184-1.127 0.286-2.3 0.69-3.47 1.199-1.171-0.509-2.343-0.914-3.47-1.199 0.833-2.535 2.091-4.184 3.47-4.184zM1.075 6.375c0.441-0.764 1.567-1.184 3.173-1.184 0.792 0 1.663 0.109 2.574 0.296-0.297 1.068-0.52 2.256-0.658 3.531-1.16 0.813-2.138 1.626-2.955 2.422-1.899-2.011-2.795-3.919-2.134-5.065zM3.208 12.56c0.817 0.795 1.795 1.609 2.955 2.422 0.138 1.275 0.361 2.463 0.658 3.531-0.91 0.187-1.781 0.296-2.573 0.296 0 0-0.001 0-0.001 0-1.605 0-2.732-0.421-3.173-1.184-0.661-1.145 0.235-3.053 2.134-5.065zM11.25 13.875c1.034 0 1.875-0.841 1.875-1.875s-0.841-1.875-1.875-1.875-1.875 0.841-1.875 1.875 0.841 1.875 1.875 1.875zM11.25 10.875c0.62 0 1.125 0.505 1.125 1.125s-0.505 1.125-1.125 1.125-1.125-0.505-1.125-1.125 0.505-1.125 1.125-1.125z"></path>
</svg>
