<!-- Generated by IcoMoon.io -->
<svg version="1.1" xmlns="http://www.w3.org/2000/svg" width="32" height="24" viewBox="0 0 32 24">
<title>gift</title>
<path d="M1.125 12.75c-0.207 0-0.375 0.168-0.375 0.375v9c0 0.62 0.505 1.125 1.125 1.125h7.5c0.207 0 0.375-0.168 0.375-0.375s-0.168-0.375-0.375-0.375h-7.5c-0.207 0-0.375-0.168-0.375-0.375v-9c0-0.207-0.168-0.375-0.375-0.375zM30.375 12.75c-0.207 0-0.375 0.168-0.375 0.375v9c0 0.207-0.168 0.375-0.375 0.375h-15.75c-0.207 0-0.375 0.168-0.375 0.375s0.168 0.375 0.375 0.375h15.75c0.62 0 1.125-0.505 1.125-1.125v-9c0-0.207-0.168-0.375-0.375-0.375zM13.5 1.125c0 0.207 0.168 0.375 0.375 0.375h15.75c0.207 0 0.375 0.168 0.375 0.375v6.719c0 0.207 0.168 0.375 0.375 0.375s0.375-0.168 0.375-0.375v-6.719c0-0.62-0.505-1.125-1.125-1.125h-15.75c-0.207 0-0.375 0.168-0.375 0.375zM1.875 0.75c-0.62 0-1.125 0.505-1.125 1.125v6.719c0 0.207 0.168 0.375 0.375 0.375s0.375-0.168 0.375-0.375v-6.719c0-0.207 0.168-0.375 0.375-0.375h7.5c0.207 0 0.375-0.168 0.375-0.375s-0.168-0.375-0.375-0.375h-7.5zM31.125 10.469h-15.3c0.298-0.132 0.555-0.286 0.738-0.469 1.133-1.133 1.133-2.977 0-4.11-1.098-1.098-3.012-1.098-4.11 0-0.176 0.176-0.324 0.422-0.453 0.705v-6.22c0-0.207-0.168-0.375-0.375-0.375s-0.375 0.168-0.375 0.375v9.919c-1.277-0.526-3.526-1.608-3.987-2.54-0.3-0.606-0.346-1.291-0.13-1.932s0.669-1.157 1.274-1.457c0.186-0.092 0.262-0.316 0.17-0.502-0.093-0.186-0.316-0.262-0.502-0.17-0.785 0.389-1.372 1.060-1.652 1.89s-0.22 1.72 0.168 2.504c0.454 0.916 1.973 1.793 3.206 2.383h-9.422c-0.207 0-0.375 0.168-0.375 0.375s0.168 0.375 0.375 0.375h7.010c-0.29 0.13-0.542 0.281-0.721 0.46-1.133 1.133-1.133 2.977 0 4.11 0.549 0.549 1.279 0.851 2.055 0.851s1.506-0.302 2.055-0.851c0.186-0.186 0.342-0.449 0.476-0.754v8.59c0 0.207 0.168 0.375 0.375 0.375s0.375-0.168 0.375-0.375v-12.229c1.281 0.53 3.505 1.603 3.964 2.53 0.3 0.606 0.346 1.292 0.13 1.932s-0.669 1.157-1.274 1.457c-0.186 0.092-0.262 0.316-0.17 0.502 0.065 0.132 0.199 0.209 0.337 0.209 0.056 0 0.113-0.013 0.166-0.039 0.785-0.389 1.372-1.060 1.652-1.89s0.22-1.719-0.168-2.504c-0.451-0.912-1.958-1.785-3.189-2.375h17.678c0.207 0 0.375-0.168 0.375-0.375s-0.168-0.375-0.375-0.375zM12.983 6.421c0.407-0.407 0.949-0.631 1.525-0.631s1.117 0.224 1.525 0.631c0.841 0.841 0.841 2.209 0 3.050-0.64 0.64-2.842 0.901-4.025 0.975 0.084-1.398 0.392-3.44 0.976-4.024zM10.243 15.259c-0.815 0.814-2.235 0.814-3.050 0-0.841-0.841-0.841-2.209 0-3.049 0.64-0.64 2.842-0.902 4.025-0.975-0.084 1.398-0.391 3.44-0.976 4.024z"></path>
</svg>
