<!-- Generated by IcoMoon.io -->
<svg version="1.1" xmlns="http://www.w3.org/2000/svg" width="19" height="24" viewBox="0 0 19 24">
<title>globe</title>
<path d="M10.164 16.5c4.342 0 7.875-3.533 7.875-7.875s-3.533-7.875-7.875-7.875-7.875 3.532-7.875 7.875 3.532 7.875 7.875 7.875zM10.164 1.5c3.928 0 7.125 3.196 7.125 7.125s-3.197 7.125-7.125 7.125-7.125-3.197-7.125-7.125 3.196-7.125 7.125-7.125zM6.789 21c-0.856 0-1.5 0.644-1.5 1.5v1.125c0 0.207 0.168 0.375 0.375 0.375h9c0.207 0 0.375-0.168 0.375-0.375v-1.069c0-0.873-0.659-1.556-1.5-1.556h-6.75zM14.289 22.556v0.694h-8.25v-0.75c0-0.442 0.308-0.75 0.75-0.75h6.75c0.428 0 0.75 0.346 0.75 0.806zM9.791 18.733c0 0.005-0.002 0.008-0.002 0.012v1.203c0 0.207 0.168 0.375 0.375 0.375s0.375-0.168 0.375-0.375v-1.203c0-0.005-0.003-0.010-0.003-0.015 2.425-0.097 4.701-1.032 6.478-2.686l0.885 0.884c0.146 0.146 0.384 0.146 0.53 0s0.146-0.384 0-0.53l-1.144-1.145c-0.146-0.146-0.384-0.146-0.53 0-1.771 1.771-4.126 2.746-6.63 2.746s-4.858-0.975-6.629-2.746-2.746-4.125-2.746-6.629 0.975-4.858 2.746-6.629c0.146-0.146 0.146-0.384 0-0.53l-1.144-1.145c-0.146-0.146-0.384-0.146-0.53 0s-0.146 0.384 0 0.53l0.884 0.885c-1.748 1.877-2.705 4.31-2.705 6.889 0 2.704 1.053 5.247 2.966 7.16 1.833 1.833 4.247 2.866 6.826 2.949z"></path>
</svg>
