<!-- Generated by IcoMoon.io -->
<svg version="1.1" xmlns="http://www.w3.org/2000/svg" width="24" height="24" viewBox="0 0 24 24">
<title>global</title>
<path d="M0.026 12.501c0.266 6.383 5.527 11.499 11.975 11.499s11.709-5.116 11.974-11.499c0.014-0.040 0.026-0.081 0.026-0.126 0-0.027-0.010-0.050-0.015-0.075 0.002-0.101 0.015-0.199 0.015-0.3 0-6.616-5.384-12-12-12s-12 5.383-12 12c0 0.101 0.013 0.2 0.015 0.3-0.005 0.025-0.015 0.048-0.015 0.075 0 0.045 0.011 0.086 0.026 0.126zM18.691 17.056c-0.989-0.414-2.051-0.734-3.161-0.953 0.119-1.090 0.188-2.221 0.21-3.352h3.735c-0.068 1.54-0.342 2.995-0.784 4.306zM20.224 12.75h2.988c-0.14 2.105-0.854 4.052-1.997 5.684-0.569-0.4-1.183-0.764-1.843-1.080 0.484-1.402 0.782-2.957 0.852-4.604zM9.292 16.715c0.883-0.138 1.79-0.215 2.708-0.215s1.825 0.076 2.707 0.215c-0.52 4.001-1.658 6.535-2.707 6.535s-2.187-2.534-2.708-6.535zM10.431 22.998c-2.063-0.662-3.809-2.603-4.861-5.238 0.934-0.394 1.939-0.701 2.993-0.913 0.344 2.622 0.973 4.907 1.869 6.151zM9.205 8.032c0.913 0.141 1.849 0.218 2.795 0.218s1.882-0.077 2.794-0.218c0.129 1.215 0.206 2.541 0.206 3.968h-6c0-1.427 0.076-2.753 0.206-3.968zM14.989 12.75c-0.021 1.144-0.088 2.221-0.195 3.218-0.912-0.141-1.847-0.218-2.794-0.218s-1.882 0.077-2.795 0.218c-0.13-1.22-0.178-2.293-0.195-3.218h5.978zM15.439 16.847c1.053 0.211 2.057 0.519 2.993 0.913-1.053 2.635-2.798 4.577-4.861 5.238 0.895-1.244 1.524-3.529 1.869-6.151zM15.75 12c0-1.377-0.076-2.772-0.221-4.102 1.11-0.219 2.172-0.54 3.161-0.953 0.513 1.522 0.809 3.236 0.809 5.056h-3.75zM15.439 7.153c-0.345-2.622-0.974-4.907-1.87-6.151 2.063 0.662 3.808 2.603 4.861 5.238-0.934 0.394-1.939 0.702-2.992 0.913zM14.708 7.286c-0.883 0.138-1.79 0.214-2.708 0.214s-1.825-0.077-2.708-0.214c0.521-4.001 1.658-6.536 2.708-6.536s2.187 2.534 2.708 6.536zM8.561 7.153c-1.053-0.212-2.057-0.519-2.992-0.913 1.053-2.635 2.798-4.577 4.862-5.238-0.895 1.244-1.524 3.529-1.869 6.151zM8.471 7.897c-0.144 1.33-0.221 2.726-0.221 4.103h-3.75c0-1.819 0.296-3.534 0.809-5.057 0.989 0.414 2.051 0.734 3.161 0.954zM8.261 12.75c0.022 1.131 0.091 2.263 0.21 3.353-1.11 0.219-2.172 0.54-3.161 0.953-0.442-1.311-0.715-2.765-0.784-4.306h3.735zM4.627 17.354c-0.66 0.316-1.273 0.68-1.842 1.080-1.144-1.632-1.858-3.579-1.997-5.684h2.988c0.071 1.647 0.368 3.203 0.851 4.604zM3.235 19.035c0.514-0.359 1.063-0.692 1.655-0.979 0.753 1.864 1.837 3.411 3.139 4.457-1.894-0.718-3.547-1.926-4.795-3.478zM15.971 22.513c1.303-1.046 2.386-2.594 3.139-4.457 0.593 0.288 1.142 0.619 1.655 0.979-1.248 1.553-2.9 2.761-4.795 3.478zM20.25 12c0-1.925-0.321-3.74-0.878-5.354 0.66-0.317 1.274-0.68 1.843-1.080 1.278 1.825 2.035 4.042 2.035 6.434h-3zM20.766 4.965c-0.514 0.359-1.063 0.691-1.655 0.979-0.753-1.864-1.837-3.412-3.14-4.457 1.894 0.718 3.546 1.926 4.795 3.478zM8.029 1.487c-1.303 1.046-2.386 2.594-3.139 4.457-0.593-0.288-1.142-0.62-1.655-0.979 1.248-1.552 2.9-2.76 4.795-3.478zM2.785 5.566c0.568 0.4 1.182 0.763 1.842 1.080-0.556 1.614-0.877 3.429-0.877 5.354h-3c0-2.393 0.757-4.609 2.035-6.434z"></path>
</svg>
