<!-- Generated by IcoMoon.io -->
<svg version="1.1" xmlns="http://www.w3.org/2000/svg" width="24" height="24" viewBox="0 0 24 24">
<title>hazardous</title>
<path d="M12 24.026c6.631 0 12.026-5.394 12.026-12.026s-5.394-12.025-12.026-12.025-12.025 5.394-12.025 12.025 5.394 12.026 12.025 12.026zM12 0.776c6.189 0 11.224 5.035 11.224 11.224s-5.035 11.224-11.224 11.224-11.224-5.035-11.224-11.224 5.036-11.224 11.224-11.224zM7.49 19.811c0.063 0.037 0.132 0.053 0.201 0.053 0.136 0 0.267-0.068 0.343-0.193l3.966-6.524 3.967 6.524c0.076 0.125 0.207 0.193 0.343 0.193 0.069 0 0.138-0.017 0.201-0.053 2.912-1.685 4.516-4.326 4.516-7.436 0-0.221-0.179-0.401-0.401-0.375h-7.948l3.983-7.27c0.105-0.191 0.038-0.431-0.151-0.541-2.748-1.589-6.273-1.589-9.019 0-0.19 0.109-0.256 0.349-0.151 0.541l3.982 7.27h-7.947c-0.221-0.026-0.401 0.154-0.401 0.375 0 3.11 1.604 5.75 4.516 7.436zM20.214 12.75c-0.127 2.545-1.451 4.701-3.77 6.163l-3.732-6.163h7.502zM15.765 4.696l-3.765 6.848-3.764-6.848c2.329-1.206 5.198-1.206 7.529 0zM11.288 12.75l-3.731 6.163c-2.32-1.462-3.643-3.618-3.77-6.163h7.502z"></path>
</svg>
