<!-- Generated by IcoMoon.io -->
<svg version="1.1" xmlns="http://www.w3.org/2000/svg" width="21" height="24" viewBox="0 0 21 24">
<title>hotairballoon</title>
<path d="M21 7.051c0-4.744-3.434-7.051-10.5-7.051s-10.5 2.306-10.5 7.051c0 5.456 9.88 11.751 10.3 12.016 0.001 0.001 0.002 0 0.004 0.001 0.008 0.005 0.017 0.005 0.026 0.010 0.054 0.029 0.111 0.048 0.17 0.048s0.116-0.020 0.17-0.047c0.008-0.005 0.018-0.005 0.026-0.010 0.001-0.001 0.002 0 0.004-0.001 0.42-0.265 10.3-6.56 10.3-12.016zM13.5 7.051c0 4.17-2.157 9.091-3 10.855-0.843-1.763-3-6.682-3-10.855 0-5.647 1.712-6.301 3-6.301s3 0.653 3 6.301zM6.75 7.051c0 3.598 1.484 7.606 2.498 9.927-2.056-2.173-5.498-6.342-5.498-9.927 0-3.518 1.439-5.495 4.483-6.099-0.993 1.086-1.483 3.107-1.483 6.099zM14.25 7.051c0-2.993-0.489-5.013-1.483-6.099 3.044 0.604 4.483 2.582 4.483 6.099 0 3.585-3.442 7.753-5.498 9.927 1.014-2.321 2.498-6.329 2.498-9.927zM0.75 7.051c0-2.978 1.49-4.853 4.617-5.724-1.586 1.149-2.367 3.048-2.367 5.724 0 3.152 2.351 6.594 4.378 8.98-2.893-2.301-6.628-5.873-6.628-8.98zM13.621 16.030c2.027-2.386 4.379-5.827 4.379-8.98 0-2.676-0.782-4.576-2.367-5.724 3.127 0.872 4.617 2.746 4.617 5.724 0 3.107-3.735 6.679-6.629 8.98zM8.625 20.25c-0.207 0-0.375 0.168-0.375 0.375v2.25c0 0.631 0.494 1.125 1.125 1.125h2.25c0.631 0 1.125-0.494 1.125-1.125v-2.25c0-0.207-0.168-0.375-0.375-0.375h-3.75zM12 22.875c0 0.221-0.154 0.375-0.375 0.375h-2.25c-0.221 0-0.375-0.154-0.375-0.375v-1.875h3v1.875z"></path>
</svg>
