<!-- Generated by IcoMoon.io -->
<svg version="1.1" xmlns="http://www.w3.org/2000/svg" width="16" height="24" viewBox="0 0 16 24">
<title>hourglass</title>
<path d="M15.766 0.375c0-0.207-0.168-0.375-0.375-0.375h-15.032c-0.207 0-0.375 0.168-0.375 0.375s0.167 0.375 0.375 0.375h15.032c0.207 0 0.374-0.168 0.374-0.375zM15 4.584v-2.709c0-0.207-0.168-0.375-0.375-0.375h-13.438c-0.207 0-0.375 0.168-0.375 0.375v2.709c0 3.732 2.856 6.262 4.511 7.415-1.897 1.306-4.572 3.793-4.572 7.417v2.709c0 0.207 0.168 0.375 0.375 0.375h13.5c0.207 0 0.375-0.168 0.375-0.375v-2.687c0-3.721-2.897-6.274-4.571-7.437 1.897-1.306 4.571-3.792 4.571-7.417zM7.875 18.143l3.607 3.607h-7.215l3.607-3.607zM9.549 11.683c-0.109 0.068-0.174 0.188-0.174 0.317s0.065 0.248 0.174 0.317c1.414 0.896 4.701 3.385 4.701 7.121v2.312h-1.716c-0.007-0.008-0.010-0.019-0.017-0.026l-4.267-4.267v-0.582c0-0.207-0.168-0.375-0.375-0.375s-0.375 0.168-0.375 0.375v0.582l-4.267 4.267c-0.007 0.008-0.011 0.018-0.017 0.026h-1.716v-2.334c0-3.583 2.945-5.986 4.701-7.099 0.109-0.069 0.174-0.189 0.174-0.317s-0.065-0.248-0.174-0.316c-1.395-0.885-4.701-3.347-4.701-7.099v-2.334h12.75v2.334c0 3.583-2.945 5.986-4.701 7.099zM11.656 6.729h-7.361c-0.134 0-0.259 0.072-0.325 0.188s-0.066 0.26 0.001 0.377c0.89 1.516 2.19 2.444 3.566 3.427l0.119 0.085c0.065 0.046 0.141 0.070 0.218 0.070s0.153-0.023 0.218-0.070c0.197-0.14 0.395-0.278 0.593-0.416 1.229-0.858 2.5-1.744 3.293-3.095 0.068-0.115 0.069-0.26 0.002-0.376s-0.191-0.189-0.325-0.189zM8.256 9.773c-0.127 0.088-0.254 0.177-0.38 0.266-1.129-0.806-2.126-1.531-2.885-2.561h5.957c-0.706 0.909-1.675 1.586-2.692 2.295zM0.359 24h15.032c0.207 0 0.375-0.168 0.375-0.375s-0.168-0.375-0.375-0.375h-15.032c-0.207 0-0.375 0.168-0.375 0.375s0.167 0.375 0.375 0.375zM7.875 14.25c-0.207 0-0.375 0.168-0.375 0.375v0.75c0 0.207 0.168 0.375 0.375 0.375s0.375-0.168 0.375-0.375v-0.75c0-0.207-0.168-0.375-0.375-0.375zM7.875 12c-0.207 0-0.375 0.168-0.375 0.375v0.75c0 0.207 0.168 0.375 0.375 0.375s0.375-0.168 0.375-0.375v-0.75c0-0.207-0.168-0.375-0.375-0.375z"></path>
</svg>
