<!-- Generated by IcoMoon.io -->
<svg version="1.1" xmlns="http://www.w3.org/2000/svg" width="24" height="24" viewBox="0 0 24 24">
<title>key</title>
<path d="M11.012 11.024c0.088 0 0.176-0.031 0.248-0.093l8.488-7.442-0.495-0.564-8.488 7.441c-0.156 0.136-0.172 0.373-0.035 0.529 0.074 0.085 0.178 0.128 0.282 0.128zM7.641 24c4.607 0 7.359-3.622 7.359-7.125 0-1.009-0.241-2.122-0.599-2.844l3.392-1.696c0.127-0.064 0.207-0.193 0.207-0.335v-3h2.25c0.008 0 0.076-0.005 0.085-0.005 0.5-0.034 0.649-0.193 0.665-0.745v-3h2.25c0.097 0 0.164 0.011 0.209 0.017 0.091 0.014 0.26 0.041 0.407-0.091 0.152-0.135 0.145-0.306 0.139-0.457-0.002-0.054-0.005-0.125-0.005-0.219v-3.398c0-0.608-0.494-1.102-1.102-1.102h-2.906c-0.265 0-0.524 0.097-0.727 0.273l-9.89 8.67c-0.487-0.098-1.223-0.224-1.735-0.224-4.213 0-7.64 3.427-7.64 7.64s3.428 7.641 7.641 7.641zM7.641 9.469c0.376 0 1.019 0.090 1.766 0.246 0.116 0.026 0.236-0.007 0.324-0.085l10.028-8.791c0.065-0.057 0.148-0.088 0.233-0.088h2.906c0.194 0 0.352 0.157 0.352 0.352v3.398h-2.625c-0.207 0-0.375 0.168-0.375 0.375v3.375h-2.625c-0.207 0-0.375 0.168-0.375 0.375v3.143l-3.543 1.771c-0.098 0.049-0.17 0.139-0.197 0.246s-0.005 0.22 0.060 0.309c0.33 0.455 0.679 1.585 0.679 2.78 0 3.134-2.472 6.375-6.609 6.375-3.799 0-6.891-3.091-6.891-6.891s3.091-6.89 6.891-6.89zM6.375 20.25c1.447 0 2.625-1.178 2.625-2.625s-1.178-2.625-2.625-2.625-2.625 1.178-2.625 2.625 1.178 2.625 2.625 2.625zM6.375 15.75c1.034 0 1.875 0.841 1.875 1.875s-0.841 1.875-1.875 1.875-1.875-0.841-1.875-1.875 0.841-1.875 1.875-1.875z"></path>
</svg>
