<!-- Generated by IcoMoon.io -->
<svg version="1.1" xmlns="http://www.w3.org/2000/svg" width="24" height="24" viewBox="0 0 24 24">
<title>layers</title>
<path d="M23.074 5.446l-8.657-4.886c-1.178-0.665-3.203-0.666-4.384 0l-8.657 4.886c-0.662 0.374-1.026 0.898-1.026 1.475s0.364 1.101 1.026 1.474l8.657 4.887c0.589 0.333 1.368 0.516 2.191 0.516s1.603-0.184 2.192-0.516l8.657-4.887c0.662-0.373 1.027-0.897 1.027-1.474s-0.365-1.101-1.027-1.475zM22.679 7.699l-8.657 4.887c-0.928 0.524-2.667 0.525-3.596 0l-8.657-4.887c-0.393-0.222-0.618-0.505-0.618-0.777s0.225-0.555 0.618-0.778l8.657-4.887c0.464-0.263 1.12-0.413 1.797-0.413s1.333 0.151 1.798 0.413l8.657 4.887c0.393 0.222 0.619 0.505 0.619 0.778s-0.224 0.555-0.618 0.777zM23.074 10.574c-0.192-0.109-0.436-0.041-0.547 0.152-0.109 0.193-0.040 0.437 0.152 0.546 0.393 0.222 0.619 0.505 0.619 0.777s-0.226 0.555-0.619 0.777l-8.657 4.887c-0.973 0.55-2.62 0.55-3.596 0l-8.657-4.887c-0.393-0.222-0.618-0.505-0.618-0.777s0.225-0.555 0.618-0.777c0.193-0.109 0.261-0.353 0.152-0.546s-0.355-0.262-0.547-0.152c-0.662 0.373-1.026 0.898-1.026 1.475s0.364 1.102 1.026 1.475l8.657 4.887c0.614 0.347 1.403 0.521 2.192 0.521s1.578-0.173 2.192-0.521l8.657-4.887c0.662-0.373 1.027-0.898 1.027-1.475s-0.364-1.102-1.026-1.475zM23.074 15.603c-0.192-0.109-0.436-0.041-0.547 0.152-0.109 0.193-0.040 0.437 0.152 0.546 0.393 0.222 0.619 0.506 0.619 0.777s-0.226 0.555-0.619 0.778l-8.657 4.887c-0.973 0.55-2.62 0.551-3.596 0l-8.657-4.888c-0.393-0.222-0.618-0.505-0.618-0.778s0.225-0.555 0.618-0.777c0.193-0.109 0.261-0.353 0.152-0.546s-0.355-0.262-0.547-0.152c-0.661 0.374-1.025 0.898-1.025 1.476s0.364 1.102 1.026 1.475l8.657 4.887c0.614 0.346 1.403 0.52 2.191 0.52s1.578-0.173 2.192-0.52l8.657-4.887c0.662-0.374 1.027-0.898 1.027-1.475s-0.365-1.102-1.027-1.475z"></path>
</svg>
