<!-- Generated by IcoMoon.io -->
<svg version="1.1" xmlns="http://www.w3.org/2000/svg" width="24" height="24" viewBox="0 0 24 24">
<title>lifesaver</title>
<path d="M4.304 2.097l-2.207 2.206c-0.146 0.147-0.146 0.384 0 0.53 0.073 0.074 0.169 0.109 0.265 0.109s0.192-0.037 0.266-0.109l2.207-2.207c0.146-0.146 0.146-0.384 0-0.53s-0.384-0.146-0.531 0zM21.372 19.165l-2.207 2.206c-0.146 0.146-0.146 0.384 0 0.53 0.073 0.073 0.169 0.11 0.265 0.11s0.192-0.037 0.265-0.11l2.207-2.207c0.146-0.146 0.146-0.384 0-0.53s-0.385-0.147-0.531 0zM19.989 2.244c-0.146-0.146-0.384-0.146-0.53 0s-0.146 0.384 0 0.53l2.060 2.060c0.074 0.074 0.169 0.109 0.266 0.109s0.192-0.037 0.265-0.109c0.146-0.146 0.146-0.384 0-0.53l-2.061-2.060zM2.244 19.459c-0.146 0.146-0.146 0.384 0 0.53l2.060 2.059c0.074 0.073 0.17 0.11 0.266 0.11s0.192-0.037 0.266-0.11c0.146-0.146 0.146-0.384 0-0.53l-2.060-2.059c-0.148-0.146-0.385-0.146-0.531 0zM3.399 7.395c-0.153 0.285-0.286 0.578-0.408 0.873-0.982 2.373-0.983 5.093-0.001 7.464 0.151 0.365 0.32 0.715 0.501 1.037 0.437 0.781 0.98 1.497 1.611 2.128 0.723 0.724 1.552 1.327 2.463 1.792 0.231 0.118 0.466 0.222 0.704 0.32 1.187 0.491 2.442 0.74 3.731 0.74s2.545-0.249 3.732-0.74c0.001 0 0.001-0.001 0.002-0.001 0.295-0.122 0.587-0.255 0.871-0.407 0.844-0.451 1.615-1.024 2.293-1.703 0.678-0.677 1.251-1.449 1.703-2.294 0.152-0.285 0.287-0.577 0.409-0.873 0 0 0-0.001 0-0.001 0.98-2.372 0.98-5.092-0.001-7.462-0.098-0.237-0.203-0.473-0.32-0.704-0.464-0.91-1.067-1.738-1.792-2.463-0.631-0.631-1.346-1.172-2.128-1.61-0.322-0.181-0.671-0.35-1.038-0.502-2.372-0.982-5.087-0.982-7.463 0.001 0 0-0.001 0-0.001 0-0.296 0.123-0.588 0.256-0.873 0.409-0.843 0.452-1.614 1.025-2.292 1.703-0.678 0.677-1.252 1.448-1.703 2.293zM10.575 8.56c0 0 0 0 0 0 0.324-0.133 0.658-0.221 0.992-0.26 0.349-0.041 0.704-0.032 1.052 0.026 0.276 0.046 0.547 0.124 0.808 0.23 0 0 0 0 0.001 0 0.453 0.188 0.86 0.459 1.208 0.808 0.346 0.346 0.616 0.752 0.805 1.209 0 0 0 0 0 0.001s0 0 0 0c0.158 0.383 0.251 0.782 0.278 1.185 0.014 0.223 0.008 0.449-0.017 0.672-0.039 0.335-0.126 0.668-0.26 0.992 0 0 0 0 0 0s0 0 0 0.001c-0.188 0.457-0.459 0.863-0.805 1.209s-0.752 0.616-1.21 0.805c0 0 0 0 0 0-0.324 0.133-0.658 0.221-0.991 0.259-0.223 0.026-0.447 0.032-0.673 0.017-0.403-0.025-0.802-0.119-1.186-0.277-0.457-0.189-0.865-0.46-1.21-0.805-0.349-0.349-0.62-0.755-0.808-1.208-0.107-0.259-0.185-0.532-0.232-0.808-0.059-0.349-0.067-0.703-0.026-1.051 0.039-0.335 0.126-0.668 0.26-0.991 0 0 0 0 0 0s0 0 0-0.001c0.188-0.457 0.459-0.863 0.805-1.209 0.346-0.343 0.753-0.614 1.21-0.803zM20.453 8.905c0.725 1.986 0.725 4.203 0 6.191l-4.191-1.736c0.089-0.276 0.15-0.557 0.183-0.84 0.032-0.267 0.038-0.539 0.021-0.807-0.023-0.362-0.091-0.722-0.204-1.072l4.191-1.736zM7.587 12.742c0.035 0.209 0.086 0.416 0.149 0.618l-4.19 1.736c-0.724-1.986-0.724-4.203 0.001-6.191l4.19 1.736c-0.089 0.276-0.15 0.557-0.183 0.839-0.048 0.418-0.038 0.843 0.032 1.261zM5.633 18.367c-0.583-0.583-1.083-1.244-1.487-1.965-0.109-0.195-0.214-0.4-0.312-0.613l4.189-1.735c0.211 0.409 0.484 0.782 0.812 1.111 0.327 0.328 0.7 0.599 1.112 0.81l-1.737 4.193c-0.102-0.047-0.203-0.095-0.304-0.146-0.841-0.431-1.606-0.986-2.273-1.654zM8.905 20.453l1.736-4.192c0.35 0.113 0.71 0.181 1.071 0.204 0.268 0.016 0.538 0.011 0.808-0.021 0.282-0.033 0.563-0.095 0.838-0.183l1.736 4.192c-1.982 0.726-4.208 0.726-6.191 0zM18.367 18.367c-0.626 0.626-1.338 1.155-2.118 1.573-0.152 0.081-0.305 0.157-0.46 0.228l-1.737-4.193c0.412-0.211 0.785-0.482 1.112-0.81s0.599-0.701 0.81-1.112l4.193 1.736c-0.071 0.156-0.146 0.31-0.228 0.461-0.416 0.78-0.945 1.492-1.571 2.117zM18.367 5.633c0.669 0.669 1.225 1.433 1.654 2.274 0.052 0.101 0.1 0.202 0.147 0.305l-4.193 1.736c-0.212-0.412-0.482-0.785-0.81-1.112-0.329-0.329-0.702-0.602-1.111-0.813l1.736-4.19c0.215 0.099 0.42 0.203 0.614 0.313 0.721 0.404 1.381 0.905 1.963 1.487zM15.096 3.547l-1.736 4.19c-0.202-0.064-0.409-0.114-0.618-0.149-0.415-0.071-0.84-0.081-1.262-0.032-0.282 0.033-0.563 0.094-0.838 0.183l-1.736-4.192c1.984-0.727 4.209-0.727 6.191-0.001zM7.75 4.060c0.151-0.081 0.305-0.157 0.461-0.227l1.736 4.192c-0.413 0.211-0.785 0.483-1.112 0.81s-0.599 0.7-0.81 1.112l-4.192-1.736c0.071-0.156 0.146-0.31 0.227-0.461 0.418-0.78 0.947-1.492 1.573-2.117s1.338-1.155 2.117-1.573zM17.563 21.781c-3.432 1.955-7.696 1.955-11.128 0-0.181-0.102-0.409-0.040-0.512 0.141-0.103 0.179-0.040 0.409 0.14 0.511 1.831 1.043 3.883 1.564 5.935 1.564s4.105-0.52 5.935-1.564c0.18-0.103 0.243-0.331 0.14-0.511-0.104-0.181-0.332-0.243-0.512-0.141zM1.567 6.065c-2.086 3.661-2.086 8.209 0 11.87 0.069 0.121 0.196 0.19 0.326 0.19 0.063 0 0.127-0.016 0.185-0.049 0.18-0.103 0.243-0.331 0.14-0.511-1.955-3.432-1.955-7.697 0-11.129 0.103-0.179 0.040-0.409-0.14-0.511-0.181-0.101-0.409-0.039-0.511 0.141zM22.433 17.935c2.086-3.661 2.086-8.209 0-11.87-0.103-0.18-0.333-0.242-0.512-0.141-0.18 0.103-0.243 0.331-0.14 0.511 1.955 3.432 1.955 7.696 0 11.128-0.103 0.179-0.040 0.409 0.14 0.511 0.059 0.033 0.122 0.049 0.185 0.049 0.13 0 0.257-0.068 0.326-0.19zM6.437 2.219c3.432-1.955 7.696-1.955 11.128 0 0.058 0.033 0.122 0.049 0.185 0.049 0.13 0 0.257-0.068 0.326-0.19 0.103-0.179 0.040-0.409-0.14-0.511-3.662-2.086-8.209-2.086-11.87 0-0.18 0.103-0.243 0.332-0.14 0.511s0.331 0.242 0.511 0.141z"></path>
</svg>
