<!-- Generated by IcoMoon.io -->
<svg version="1.1" xmlns="http://www.w3.org/2000/svg" width="32" height="24" viewBox="0 0 32 24">
<title>linegraph</title>
<path d="M29.25 0c-1.24 0-2.25 1.010-2.25 2.25 0 0.666 0.297 1.259 0.758 1.672l-6.6 10.523c-0.278-0.124-0.585-0.195-0.908-0.195-0.651 0-1.233 0.282-1.645 0.725l-6.805-4.309c0.126-0.281 0.199-0.59 0.199-0.917 0-1.24-1.009-2.25-2.25-2.25s-2.25 1.010-2.25 2.25c0 0.678 0.308 1.28 0.783 1.692l-5.171 8.231c-0.266-0.111-0.556-0.173-0.862-0.173-1.241 0-2.25 1.009-2.25 2.25s1.010 2.25 2.25 2.25 2.25-1.009 2.25-2.25c0-0.666-0.296-1.259-0.758-1.671l5.178-8.243c0.257 0.104 0.536 0.164 0.83 0.164 0.644 0 1.222-0.275 1.632-0.71l6.808 4.311c-0.121 0.276-0.191 0.579-0.191 0.899 0 1.241 1.009 2.25 2.25 2.25s2.25-1.009 2.25-2.25c0-0.647-0.278-1.227-0.718-1.638l6.608-10.534c0.266 0.11 0.556 0.173 0.86 0.173 1.24 0 2.25-1.010 2.25-2.25s-1.010-2.25-2.25-2.25zM3.75 21.75c0 0.827-0.673 1.5-1.5 1.5s-1.5-0.673-1.5-1.5 0.673-1.5 1.5-1.5 1.5 0.673 1.5 1.5zM9.75 11.25c-0.827 0-1.5-0.673-1.5-1.5s0.673-1.5 1.5-1.5 1.5 0.673 1.5 1.5-0.673 1.5-1.5 1.5zM20.25 18c-0.827 0-1.5-0.673-1.5-1.5s0.673-1.5 1.5-1.5 1.5 0.673 1.5 1.5-0.673 1.5-1.5 1.5zM29.25 3.75c-0.827 0-1.5-0.673-1.5-1.5s0.673-1.5 1.5-1.5 1.5 0.673 1.5 1.5-0.673 1.5-1.5 1.5z"></path>
</svg>
