<!-- Generated by IcoMoon.io -->
<svg version="1.1" xmlns="http://www.w3.org/2000/svg" width="18" height="24" viewBox="0 0 18 24">
<title>map-pin</title>
<path d="M9 0c-4.963 0-9 4.046-9 9.017 0 7.445 8.401 14.594 8.759 14.895 0.070 0.059 0.156 0.088 0.241 0.088s0.17-0.028 0.239-0.085c0.358-0.295 8.761-7.322 8.761-14.898 0-4.971-4.037-9.017-9-9.017zM9.002 23.129c-1.381-1.234-8.252-7.694-8.252-14.112 0-4.558 3.701-8.266 8.25-8.266s8.25 3.708 8.25 8.266c0 6.527-6.864 12.895-8.248 14.112zM9 4.5c-2.482 0-4.5 2.018-4.5 4.5s2.018 4.5 4.5 4.5 4.5-2.018 4.5-4.5-2.018-4.5-4.5-4.5zM9 12.75c-2.068 0-3.75-1.682-3.75-3.75s1.682-3.75 3.75-3.75 3.75 1.682 3.75 3.75-1.682 3.75-3.75 3.75z"></path>
</svg>
