<!-- Generated by IcoMoon.io -->
<svg version="1.1" xmlns="http://www.w3.org/2000/svg" width="31" height="24" viewBox="0 0 31 24">
<title>map</title>
<path d="M6.929 23.945c0.007 0.005 0.016 0.002 0.022 0.007 0.055 0.028 0.112 0.048 0.173 0.048 0.033 0 0.066-0.005 0.099-0.014l8.151-2.224 8.151 2.224c0.033 0.009 0.066 0.014 0.099 0.014 0.061 0 0.119-0.020 0.172-0.049 0.008-0.004 0.016-0.002 0.023-0.007l6.75-4.125c0.143-0.088 0.211-0.261 0.165-0.422l-3.738-13.125c-0.031-0.11-0.111-0.2-0.217-0.245-0.107-0.043-0.226-0.036-0.327 0.019l-3.721 2.088c-0.18 0.101-0.244 0.33-0.143 0.511s0.329 0.245 0.511 0.143l3.307-1.856 3.53 12.395-6.011 3.674-1.428-11.423c-0.025-0.206-0.22-0.349-0.419-0.325-0.205 0.026-0.351 0.213-0.325 0.419l1.43 11.444-7.433-2.029v-2.047c0-0.207-0.168-0.375-0.375-0.375s-0.375 0.168-0.375 0.375v2.047l-7.433 2.029 1.43-11.444c0.026-0.206-0.12-0.393-0.325-0.418-0.204-0.024-0.393 0.119-0.419 0.325l-1.427 11.423-6.011-3.674 3.53-12.394 3.307 1.856c0.182 0.101 0.41 0.037 0.512-0.143s0.037-0.409-0.143-0.511l-3.722-2.089c-0.1-0.056-0.219-0.064-0.326-0.019s-0.187 0.134-0.218 0.245l-3.738 13.125c-0.046 0.162 0.021 0.335 0.165 0.422l6.749 4.125zM15.121 17.526c0.072 0.066 0.163 0.099 0.254 0.099 0.090 0 0.18-0.032 0.252-0.097 0.25-0.227 6.123-5.617 6.123-11.153 0-3.575-2.8-6.375-6.375-6.375s-6.375 2.8-6.375 6.375c0 5.441 5.871 10.92 6.121 11.151zM15.375 0.75c3.206 0 5.625 2.418 5.625 5.625 0 4.573-4.495 9.253-5.623 10.355-1.126-1.115-5.627-5.857-5.627-10.355 0-3.207 2.419-5.625 5.625-5.625zM18.75 6.375c0-1.861-1.514-3.375-3.375-3.375s-3.375 1.514-3.375 3.375 1.514 3.375 3.375 3.375 3.375-1.514 3.375-3.375zM15.375 9c-1.447 0-2.625-1.178-2.625-2.625s1.178-2.625 2.625-2.625 2.625 1.178 2.625 2.625-1.178 2.625-2.625 2.625z"></path>
</svg>
