<!-- Generated by IcoMoon.io -->
<svg version="1.1" xmlns="http://www.w3.org/2000/svg" width="11" height="24" viewBox="0 0 11 24">
<title>mic</title>
<path d="M5.25 18.005v2.995h-2.224c-0.856 0-1.5 0.644-1.5 1.5v1.125c0 0.207 0.168 0.375 0.375 0.375h7.5c0.207 0 0.375-0.168 0.375-0.375v-1.069c0-0.873-0.659-1.556-1.5-1.556h-2.276v-2.995c2.98-0.208 5.301-2.67 5.301-5.673v-1.415c0-0.221-0.179-0.401-0.401-0.401s-0.401 0.18-0.401 0.401v1.415c0 2.698-2.175 4.892-4.849 4.892s-4.85-2.194-4.85-4.891v-1.415c0-0.221-0.179-0.401-0.401-0.401s-0.401 0.179-0.401 0.401v1.415c0 3.002 2.321 5.464 5.25 5.672zM9.026 22.556v0.694h-6.75v-0.75c0-0.442 0.308-0.75 0.75-0.75h5.25c0.428 0 0.75 0.346 0.75 0.806zM5.651-0.026c-1.875 0-3.401 1.544-3.401 3.443v8.915c0 1.898 1.526 3.443 3.401 3.443s3.401-1.545 3.349-3.443v-8.915c0.051-1.899-1.474-3.443-3.349-3.443zM8.25 12.332c0 1.456-1.166 2.641-2.599 2.641s-2.651-1.184-2.651-2.641v-8.915c0-1.457 1.217-2.641 2.651-2.641s2.599 1.184 2.599 2.641v8.915z"></path>
</svg>
