<!-- Generated by IcoMoon.io -->
<svg version="1.1" xmlns="http://www.w3.org/2000/svg" width="32" height="24" viewBox="0 0 32 24">
<title>newspaper</title>
<path d="M27.75 21.75c0.897 0 1.5-0.603 1.5-1.5v-19.875c0-0.207-0.168-0.375-0.375-0.375s-0.375 0.168-0.375 0.375v19.875c0 0.652-0.47 0.75-0.75 0.75-0.077 0-0.75-0.021-0.75-0.75v-19.875c0-0.207-0.168-0.375-0.375-0.375s-0.375 0.168-0.375 0.375v19.875c0 0.985 0.755 1.5 1.5 1.5zM3.375 15.75h7.5c0.207 0 0.375-0.168 0.375-0.375v-6.75c0-0.207-0.168-0.375-0.375-0.375h-7.5c-0.207 0-0.375 0.168-0.375 0.375v6.75c0 0.207 0.168 0.375 0.375 0.375zM3.75 9h6.75v6h-6.75v-6zM3.375 6h18c0.207 0 0.375-0.168 0.375-0.375v-3c0-0.207-0.168-0.375-0.375-0.375h-18c-0.207 0-0.375 0.168-0.375 0.375v3c0 0.207 0.168 0.375 0.375 0.375zM3.75 3h17.25v2.25h-17.25v-2.25zM21.375 8.25h-7.5c-0.207 0-0.375 0.168-0.375 0.375s0.168 0.375 0.375 0.375h7.5c0.207 0 0.375-0.168 0.375-0.375s-0.168-0.375-0.375-0.375zM21.375 10.5h-7.5c-0.207 0-0.375 0.168-0.375 0.375s0.168 0.375 0.375 0.375h7.5c0.207 0 0.375-0.168 0.375-0.375s-0.168-0.375-0.375-0.375zM21.375 12.75h-7.5c-0.207 0-0.375 0.168-0.375 0.375s0.168 0.375 0.375 0.375h7.5c0.207 0 0.375-0.168 0.375-0.375s-0.168-0.375-0.375-0.375zM21.375 15h-7.5c-0.207 0-0.375 0.168-0.375 0.375s0.168 0.375 0.375 0.375h7.5c0.207 0 0.375-0.168 0.375-0.375s-0.168-0.375-0.375-0.375zM21.375 17.25h-7.5c-0.207 0-0.375 0.168-0.375 0.375s0.168 0.375 0.375 0.375h7.5c0.207 0 0.375-0.168 0.375-0.375s-0.168-0.375-0.375-0.375zM3.375 18h7.5c0.207 0 0.375-0.168 0.375-0.375s-0.168-0.375-0.375-0.375h-7.5c-0.207 0-0.375 0.168-0.375 0.375s0.168 0.375 0.375 0.375zM21.375 19.5h-7.5c-0.207 0-0.375 0.168-0.375 0.375s0.168 0.375 0.375 0.375h7.5c0.207 0 0.375-0.168 0.375-0.375s-0.168-0.375-0.375-0.375zM3.375 20.25h7.5c0.207 0 0.375-0.168 0.375-0.375s-0.168-0.375-0.375-0.375h-7.5c-0.207 0-0.375 0.168-0.375 0.375s0.168 0.375 0.375 0.375zM3.75 23.96h24c0.006 0 0.012 0 0.015 0 0.005 0 0.010-0.003 0.015-0.003 2.032-0.016 3.681-1.672 3.681-3.707v-19.875c0-0.185-0.15-0.335-0.335-0.335s-0.335 0.15-0.335 0.335v19.875c0 1.676-1.363 3.040-3.040 3.040s-3.041-1.364-3.041-3.040v-19.875c0-0.185-0.15-0.335-0.335-0.335h-24c-0.185 0-0.335 0.15-0.335 0.335v19.875c0 2.046 1.664 3.71 3.71 3.71zM0.71 0.71h23.329v19.54c0 0.23 0.028 0.452 0.068 0.671 0.008 0.043 0.015 0.087 0.025 0.13 0.047 0.208 0.108 0.41 0.188 0.605 0.014 0.035 0.032 0.068 0.047 0.103 0.081 0.181 0.175 0.356 0.284 0.521 0.013 0.019 0.023 0.039 0.035 0.058 0.119 0.172 0.253 0.332 0.398 0.482 0.032 0.032 0.062 0.064 0.095 0.095 0.139 0.135 0.286 0.263 0.446 0.375h-21.875c-1.675 0-3.040-1.364-3.040-3.040v-19.54z"></path>
</svg>
