<!-- Generated by IcoMoon.io -->
<svg version="1.1" xmlns="http://www.w3.org/2000/svg" width="24" height="24" viewBox="0 0 24 24">
<title>nucleus</title>
<path d="M12 17.373c-1.323 0-2.36-2.385-2.36-5.43s1.036-5.431 2.36-5.431c1.323 0 2.36 2.385 2.36 5.431s-1.036 5.43-2.36 5.43zM12 6.88c-0.953 0-1.973 2.034-1.973 5.063s1.020 5.063 1.973 5.063c0.953 0 1.973-2.034 1.973-5.063s-1.020-5.063-1.973-5.063z"></path>
<path d="M8.662 15.3c-0.789 0-1.347-0.221-1.604-0.642-0.332-0.547-0.102-1.343 0.648-2.238 0.712-0.85 1.817-1.71 3.113-2.423s2.631-1.193 3.761-1.354c1.19-0.17 2.029 0.037 2.36 0.584s0.102 1.343-0.648 2.238c-0.712 0.85-1.817 1.71-3.113 2.423-1.295 0.712-2.631 1.193-3.761 1.354-0.25 0.037-0.503 0.056-0.757 0.058v0zM15.34 8.952c-0.235 0.001-0.469 0.020-0.701 0.054-1.083 0.155-2.37 0.62-3.625 1.309s-2.322 1.518-3.004 2.333c-0.635 0.758-0.859 1.423-0.616 1.825s0.961 0.549 1.968 0.405c1.083-0.155 2.37-0.62 3.625-1.309s2.322-1.518 3.004-2.333c0.635-0.758 0.859-1.424 0.616-1.825-0.182-0.301-0.63-0.459-1.267-0.459v0z"></path>
<path d="M15.338 15.3c-0.254-0.001-0.507-0.021-0.757-0.058-1.13-0.161-2.465-0.643-3.761-1.354s-2.401-1.572-3.113-2.423c-0.75-0.896-0.98-1.691-0.648-2.238s1.17-0.754 2.36-0.584c1.13 0.161 2.465 0.643 3.761 1.354s2.401 1.573 3.113 2.424c0.75 0.896 0.98 1.691 0.648 2.238-0.256 0.422-0.814 0.642-1.603 0.642zM8.66 8.952c-0.638 0-1.085 0.158-1.267 0.458-0.243 0.401-0.019 1.067 0.616 1.825 0.682 0.815 1.749 1.645 3.004 2.333s2.542 1.154 3.625 1.309c1.008 0.144 1.725-0.003 1.968-0.405s0.019-1.067-0.616-1.825c-0.682-0.815-1.749-1.644-3.004-2.333s-2.542-1.155-3.625-1.309c-0.232-0.035-0.467-0.053-0.701-0.054v0z"></path>
<path d="M12 20.586c-1.796 0-3.552-0.507-5.045-1.457s-2.657-2.3-3.345-3.879c-0.687-1.579-0.867-3.317-0.517-4.994s1.215-3.217 2.485-4.426 2.888-2.032 4.65-2.366c1.762-0.333 3.588-0.162 5.247 0.492s3.078 1.762 4.076 3.183c0.998 1.421 1.53 3.093 1.53 4.802-0.003 2.292-0.96 4.489-2.663 6.109s-4.011 2.532-6.418 2.534v0zM12 3.667c-1.72 0-3.401 0.485-4.831 1.395s-2.544 2.202-3.202 3.714c-0.658 1.512-0.83 3.176-0.495 4.781s1.164 3.080 2.38 4.237c1.216 1.157 2.765 1.946 4.452 2.265s3.435 0.155 5.024-0.471c1.589-0.626 2.947-1.687 3.902-3.048s1.465-2.961 1.465-4.598c-0.003-2.194-0.92-4.298-2.55-5.849s-3.84-2.424-6.145-2.427v0z"></path>
<path d="M12 18.765c-1.418 0-2.804-0.4-3.983-1.15s-2.098-1.815-2.64-3.062c-0.543-1.247-0.685-2.619-0.408-3.942s0.959-2.539 1.962-3.493c1.003-0.954 2.28-1.604 3.67-1.867s2.832-0.128 4.142 0.388 2.429 1.391 3.217 2.513c0.788 1.122 1.208 2.441 1.208 3.791-0.002 1.809-0.758 3.543-2.102 4.822s-3.166 1.999-5.067 2v0zM12 5.487c-1.341 0-2.653 0.379-3.768 1.088s-1.985 1.717-2.498 2.897c-0.513 1.179-0.648 2.477-0.386 3.73s0.908 2.402 1.856 3.305 2.157 1.518 3.472 1.767c1.316 0.249 2.679 0.121 3.918-0.367s2.298-1.316 3.044-2.377c0.745-1.062 1.143-2.31 1.143-3.586-0.002-1.711-0.717-3.352-1.988-4.562s-2.995-1.891-4.794-1.893v0z"></path>
<path d="M12 3.667c-0.051 0-0.1-0.019-0.137-0.054s-0.057-0.081-0.057-0.13v-1.616c0-0.049 0.020-0.096 0.057-0.13s0.085-0.054 0.137-0.054c0.051 0 0.1 0.019 0.137 0.054s0.057 0.081 0.057 0.13v1.616c0 0.049-0.020 0.096-0.057 0.13s-0.085 0.054-0.137 0.054z"></path>
<path d="M12 2.052c-0.214 0-0.424-0.060-0.602-0.174s-0.317-0.274-0.399-0.463c-0.082-0.188-0.103-0.396-0.062-0.596s0.145-0.384 0.297-0.528 0.345-0.243 0.555-0.282c0.21-0.040 0.428-0.019 0.626 0.059s0.367 0.21 0.486 0.38 0.183 0.369 0.183 0.573c-0 0.273-0.115 0.536-0.318 0.729s-0.479 0.302-0.766 0.302v0zM12 0.356c-0.138 0-0.273 0.039-0.387 0.112s-0.204 0.177-0.257 0.298c-0.053 0.121-0.067 0.255-0.040 0.383s0.093 0.247 0.191 0.34c0.098 0.093 0.222 0.156 0.357 0.182s0.276 0.012 0.403-0.038c0.127-0.050 0.236-0.135 0.313-0.244s0.118-0.237 0.118-0.369c-0-0.176-0.074-0.345-0.204-0.469s-0.308-0.194-0.493-0.195z"></path>
<path d="M6.776 5.283c-0.031 0-0.061-0.007-0.088-0.020s-0.051-0.032-0.069-0.056l-0.999-1.307c-0.016-0.019-0.028-0.042-0.035-0.066s-0.009-0.049-0.005-0.074 0.012-0.048 0.025-0.070c0.013-0.021 0.031-0.040 0.052-0.055s0.045-0.025 0.071-0.031c0.025-0.006 0.052-0.006 0.078-0.002s0.050 0.014 0.072 0.028c0.022 0.014 0.040 0.031 0.055 0.052l0.999 1.308c0.021 0.027 0.033 0.060 0.036 0.094s-0.004 0.068-0.020 0.098c-0.016 0.030-0.041 0.056-0.071 0.073s-0.065 0.027-0.101 0.027h0.001z"></path>
<path d="M5.257 4.137c-0.229 0-0.452-0.068-0.637-0.196s-0.323-0.308-0.394-0.516-0.071-0.43-0-0.638c0.071-0.207 0.209-0.388 0.394-0.516 0.138-0.096 0.299-0.159 0.467-0.185s0.342-0.013 0.504 0.038c0.163 0.050 0.311 0.136 0.432 0.251s0.212 0.256 0.265 0.411c0.053 0.155 0.067 0.319 0.040 0.48s-0.093 0.313-0.194 0.445c-0.101 0.132-0.232 0.239-0.385 0.313s-0.321 0.113-0.492 0.113v0zM4.845 2.569c-0.112 0.077-0.197 0.184-0.244 0.307s-0.056 0.257-0.024 0.385 0.103 0.243 0.205 0.332c0.101 0.089 0.228 0.148 0.364 0.168s0.276 0.002 0.401-0.053 0.231-0.144 0.303-0.256c0.072-0.112 0.108-0.242 0.102-0.373s-0.051-0.258-0.132-0.364c-0.109-0.142-0.272-0.238-0.455-0.265s-0.369 0.015-0.519 0.118z"></path>
<path d="M3.548 9.511c-0.020-0-0.040-0.003-0.060-0.009l-1.615-0.498c-0.025-0.007-0.049-0.018-0.069-0.034s-0.037-0.035-0.050-0.057c-0.012-0.022-0.020-0.046-0.022-0.071s0.001-0.050 0.009-0.073c0.008-0.024 0.021-0.045 0.038-0.064s0.038-0.034 0.062-0.045 0.049-0.017 0.075-0.018c0.026-0.001 0.052 0.003 0.077 0.012l1.615 0.498c0.044 0.014 0.081 0.041 0.105 0.079s0.033 0.082 0.026 0.125c-0.007 0.043-0.030 0.083-0.065 0.111s-0.079 0.044-0.125 0.044v-0z"></path>
<path d="M1.087 9.599c-0.171-0-0.34-0.039-0.492-0.113s-0.284-0.181-0.385-0.313c-0.101-0.132-0.167-0.284-0.194-0.445s-0.014-0.325 0.039-0.48c0.062-0.181 0.175-0.341 0.327-0.465s0.337-0.204 0.534-0.234c0.197-0.030 0.399-0.007 0.584 0.066s0.344 0.193 0.462 0.346c0.117 0.154 0.188 0.335 0.204 0.525s-0.024 0.379-0.114 0.549-0.228 0.312-0.398 0.411c-0.17 0.1-0.366 0.152-0.565 0.153v0zM0.423 8.362c-0.050 0.146-0.045 0.304 0.014 0.447s0.168 0.262 0.309 0.337 0.304 0.101 0.463 0.074c0.159-0.027 0.303-0.106 0.408-0.222s0.164-0.264 0.167-0.418c0.003-0.154-0.050-0.303-0.15-0.424s-0.241-0.205-0.398-0.237-0.322-0.013-0.466 0.057c-0.082 0.039-0.154 0.094-0.214 0.16s-0.105 0.143-0.133 0.226v0z"></path>
<path d="M1.932 15.24c-0.046 0-0.090-0.016-0.125-0.044s-0.058-0.068-0.065-0.111c-0.007-0.043 0.002-0.088 0.026-0.125s0.061-0.065 0.105-0.079l1.615-0.498c0.024-0.009 0.051-0.013 0.077-0.012s0.052 0.007 0.075 0.018 0.045 0.026 0.062 0.045c0.017 0.019 0.030 0.041 0.038 0.064s0.011 0.049 0.009 0.073c-0.002 0.025-0.010 0.049-0.022 0.071s-0.029 0.041-0.050 0.057c-0.020 0.015-0.044 0.027-0.069 0.033l-1.616 0.499c-0.019 0.006-0.039 0.009-0.059 0.009v0z"></path>
<path d="M1.085 16.35c-0.273 0-0.537-0.098-0.737-0.274s-0.324-0.418-0.346-0.678 0.060-0.517 0.229-0.721c0.169-0.204 0.413-0.341 0.683-0.381s0.546 0.017 0.773 0.161c0.227 0.144 0.389 0.365 0.453 0.618s0.026 0.519-0.108 0.746c-0.133 0.227-0.352 0.398-0.611 0.479-0.109 0.034-0.222 0.051-0.336 0.051zM1.087 14.653c-0.171-0.001-0.337 0.058-0.465 0.166s-0.211 0.256-0.232 0.418c-0.021 0.162 0.021 0.325 0.119 0.459s0.243 0.23 0.409 0.268c0.166 0.039 0.342 0.018 0.493-0.058s0.268-0.203 0.328-0.355c0.060-0.153 0.059-0.321-0.003-0.473s-0.18-0.277-0.332-0.352c-0.098-0.048-0.206-0.073-0.316-0.074v0z"></path>
<path d="M5.777 20.277c-0.041 0-0.081-0.012-0.113-0.035-0.021-0.014-0.038-0.032-0.051-0.053s-0.022-0.044-0.026-0.067c-0.004-0.024-0.003-0.048 0.003-0.072s0.017-0.046 0.032-0.065l0.999-1.308c0.015-0.020 0.033-0.037 0.055-0.051s0.046-0.022 0.071-0.026c0.025-0.004 0.051-0.003 0.076 0.002s0.049 0.016 0.070 0.030 0.038 0.033 0.052 0.054c0.013 0.021 0.022 0.044 0.026 0.069s0.002 0.049-0.004 0.073c-0.006 0.024-0.018 0.046-0.034 0.066l-0.999 1.308c-0.018 0.024-0.041 0.043-0.069 0.056s-0.057 0.020-0.088 0.020v0z"></path>
<path d="M5.253 21.81c-0.243-0-0.479-0.079-0.67-0.222s-0.325-0.344-0.382-0.569-0.032-0.462 0.070-0.672c0.102-0.21 0.276-0.381 0.492-0.486s0.464-0.137 0.703-0.092c0.239 0.045 0.454 0.166 0.612 0.342s0.249 0.398 0.258 0.629-0.063 0.459-0.206 0.646c-0.1 0.132-0.232 0.24-0.385 0.313s-0.322 0.112-0.493 0.111v0zM5.256 20.115c-0.147-0-0.291 0.044-0.41 0.126s-0.208 0.198-0.254 0.332c-0.046 0.133-0.046 0.277-0 0.41s0.134 0.25 0.254 0.332c0.089 0.062 0.192 0.102 0.301 0.119s0.22 0.008 0.324-0.024c0.105-0.032 0.2-0.088 0.278-0.162s0.136-0.164 0.17-0.264c0.034-0.1 0.043-0.205 0.026-0.309s-0.060-0.202-0.124-0.286c-0.065-0.085-0.149-0.154-0.247-0.202s-0.206-0.073-0.316-0.073h-0.001z"></path>
<path d="M12 22.201c-0.051 0-0.1-0.019-0.137-0.054s-0.057-0.081-0.057-0.13v-1.616c0-0.049 0.020-0.096 0.057-0.13s0.085-0.054 0.137-0.054c0.051 0 0.1 0.019 0.137 0.054s0.057 0.081 0.057 0.13v1.616c0 0.049-0.020 0.096-0.057 0.13s-0.085 0.054-0.137 0.054z"></path>
<path d="M12 23.896c-0.214 0-0.424-0.060-0.602-0.174s-0.317-0.274-0.399-0.463c-0.082-0.189-0.104-0.396-0.062-0.596s0.145-0.384 0.297-0.528 0.345-0.243 0.555-0.282c0.21-0.040 0.428-0.019 0.626 0.059s0.367 0.21 0.486 0.38 0.183 0.369 0.183 0.573c-0 0.273-0.115 0.536-0.318 0.729s-0.479 0.302-0.766 0.302zM12 22.201c-0.138-0-0.273 0.039-0.388 0.112s-0.204 0.177-0.257 0.298c-0.053 0.121-0.067 0.255-0.040 0.384s0.093 0.247 0.191 0.34 0.222 0.156 0.357 0.182c0.135 0.026 0.276 0.012 0.403-0.038s0.236-0.135 0.313-0.244c0.077-0.109 0.118-0.238 0.118-0.369-0-0.176-0.074-0.345-0.204-0.469s-0.308-0.195-0.493-0.195v0z"></path>
<path d="M18.223 20.277c-0.030 0-0.061-0.007-0.088-0.020s-0.051-0.032-0.069-0.056l-0.999-1.308c-0.016-0.019-0.027-0.042-0.034-0.065s-0.008-0.048-0.004-0.073c0.004-0.024 0.012-0.048 0.026-0.069s0.031-0.039 0.052-0.054c0.021-0.014 0.044-0.025 0.070-0.030s0.051-0.006 0.076-0.002c0.025 0.004 0.050 0.013 0.071 0.026s0.040 0.030 0.055 0.051l0.999 1.308c0.015 0.020 0.026 0.042 0.032 0.065s0.007 0.048 0.003 0.072c-0.004 0.024-0.013 0.047-0.026 0.067s-0.031 0.039-0.051 0.053c-0.033 0.023-0.073 0.035-0.113 0.035v0z"></path>
<path d="M18.747 21.81c-0.258 0-0.508-0.087-0.704-0.247s-0.326-0.38-0.367-0.623c-0.040-0.243 0.011-0.491 0.146-0.7s0.344-0.366 0.589-0.442c0.245-0.076 0.511-0.066 0.749 0.028s0.434 0.266 0.551 0.485c0.117 0.219 0.148 0.47 0.088 0.709s-0.208 0.449-0.417 0.593c-0.185 0.128-0.407 0.197-0.636 0.197zM18.743 20.115c-0.157 0-0.308 0.051-0.431 0.143s-0.209 0.222-0.246 0.366c-0.036 0.145-0.020 0.297 0.045 0.433s0.177 0.245 0.317 0.313c0.14 0.067 0.299 0.088 0.452 0.059s0.292-0.107 0.394-0.22c0.102-0.113 0.16-0.256 0.166-0.405s-0.041-0.295-0.133-0.416c-0.065-0.085-0.15-0.154-0.248-0.202s-0.207-0.072-0.317-0.071v0z"></path>
<path d="M22.067 15.24c-0.020-0-0.040-0.003-0.060-0.009l-1.613-0.498c-0.046-0.017-0.084-0.050-0.106-0.092s-0.025-0.091-0.010-0.136c0.015-0.045 0.048-0.083 0.092-0.105s0.095-0.028 0.143-0.016l1.614 0.498c0.044 0.014 0.081 0.041 0.105 0.079s0.033 0.082 0.026 0.125-0.030 0.083-0.065 0.111c-0.035 0.028-0.079 0.044-0.125 0.044v-0z"></path>
<path d="M22.915 16.35c-0.114-0-0.228-0.017-0.336-0.051-0.258-0.080-0.474-0.25-0.606-0.475s-0.17-0.49-0.106-0.741 0.224-0.47 0.45-0.613c0.226-0.143 0.499-0.2 0.767-0.159s0.509 0.176 0.677 0.378 0.249 0.458 0.228 0.715c-0.021 0.257-0.144 0.497-0.343 0.673s-0.46 0.273-0.731 0.273v0zM22.913 14.653c-0.176-0-0.346 0.063-0.476 0.176s-0.209 0.27-0.223 0.437c-0.014 0.167 0.039 0.333 0.147 0.465s0.266 0.22 0.44 0.246 0.352-0.010 0.499-0.103c0.147-0.093 0.251-0.235 0.293-0.398s0.017-0.335-0.069-0.481c-0.086-0.146-0.227-0.257-0.394-0.309-0.070-0.022-0.143-0.033-0.216-0.033z"></path>
<path d="M20.454 9.511c-0.046 0-0.091-0.016-0.125-0.044s-0.058-0.068-0.065-0.111 0.002-0.088 0.026-0.125c0.024-0.037 0.061-0.065 0.105-0.079l1.613-0.498c0.024-0.009 0.050-0.013 0.077-0.012s0.052 0.007 0.075 0.018c0.024 0.011 0.045 0.026 0.062 0.045s0.030 0.040 0.038 0.064 0.011 0.049 0.009 0.073c-0.002 0.025-0.010 0.049-0.022 0.071s-0.029 0.041-0.050 0.057c-0.020 0.016-0.044 0.027-0.069 0.034l-1.614 0.498c-0.019 0.006-0.039 0.009-0.060 0.009v0z"></path>
<path d="M22.913 9.599c-0.273 0-0.537-0.098-0.738-0.274s-0.324-0.419-0.346-0.678c-0.022-0.259 0.060-0.517 0.229-0.721s0.413-0.341 0.683-0.382c0.27-0.041 0.546 0.016 0.774 0.161s0.389 0.365 0.453 0.618c0.064 0.253 0.026 0.52-0.108 0.747s-0.352 0.398-0.612 0.479c-0.108 0.034-0.222 0.051-0.336 0.051v0zM22.914 7.903c-0.171-0-0.336 0.059-0.464 0.167s-0.21 0.257-0.23 0.418 0.022 0.325 0.12 0.458c0.098 0.134 0.243 0.229 0.41 0.267s0.341 0.017 0.492-0.060c0.151-0.077 0.267-0.203 0.326-0.356s0.058-0.321-0.004-0.472c-0.062-0.152-0.181-0.276-0.333-0.35-0.098-0.048-0.206-0.072-0.316-0.073v0z"></path>
<path d="M17.223 5.283c-0.036-0-0.071-0.010-0.101-0.027s-0.055-0.043-0.071-0.073c-0.016-0.030-0.023-0.064-0.020-0.098s0.015-0.066 0.036-0.094l0.999-1.308c0.015-0.020 0.033-0.037 0.055-0.051s0.046-0.022 0.071-0.026 0.051-0.003 0.076 0.002c0.025 0.006 0.049 0.016 0.070 0.030s0.038 0.033 0.052 0.054c0.013 0.021 0.022 0.044 0.026 0.069s0.002 0.049-0.004 0.073c-0.006 0.024-0.018 0.046-0.034 0.066l-0.999 1.307c-0.018 0.024-0.041 0.043-0.069 0.056s-0.057 0.020-0.088 0.020v0z"></path>
<path d="M18.743 4.137c-0.171-0-0.339-0.039-0.492-0.113s-0.284-0.181-0.384-0.313c-0.1-0.132-0.167-0.284-0.193-0.445s-0.013-0.325 0.040-0.48c0.053-0.155 0.144-0.295 0.264-0.41s0.269-0.201 0.431-0.251c0.163-0.050 0.335-0.063 0.504-0.038s0.329 0.089 0.467 0.184c0.185 0.128 0.323 0.309 0.394 0.516s0.071 0.431-0 0.638-0.209 0.388-0.394 0.516c-0.185 0.128-0.409 0.197-0.637 0.196zM18.746 2.443c-0.166-0-0.327 0.056-0.453 0.159s-0.21 0.245-0.236 0.401c-0.026 0.156 0.007 0.316 0.094 0.451s0.221 0.236 0.379 0.285c0.158 0.049 0.329 0.042 0.482-0.018s0.279-0.171 0.354-0.312 0.095-0.303 0.057-0.456c-0.039-0.154-0.134-0.289-0.268-0.382-0.119-0.082-0.262-0.126-0.408-0.127h-0z"></path>
</svg>
