<!-- Generated by IcoMoon.io -->
<svg version="1.1" xmlns="http://www.w3.org/2000/svg" width="24" height="24" viewBox="0 0 24 24">
<title>pencil</title>
<path d="M0 23.609c0 0.207 0.168 0.375 0.375 0.375h23.333c0.050 0 0.099-0.010 0.145-0.029s0.087-0.047 0.121-0.082c0.001-0.001 0.002-0.001 0.002-0.002 0.002-0.002 0.002-0.007 0.005-0.009 0.038-0.041 0.063-0.091 0.080-0.146 0.005-0.017 0.007-0.034 0.011-0.052s0.011-0.035 0.011-0.055c0-0.030-0.011-0.056-0.017-0.084-0.002-0.011 0.002-0.021-0.002-0.032l-2.37-7.286c-0.018-0.056-0.049-0.108-0.091-0.149l-12.838-12.838c-0.014-0.021-0.023-0.043-0.041-0.062l-2.804-2.804c-0.455-0.455-1.196-0.455-1.652 0l-3.926 3.926c-0.22 0.22-0.342 0.514-0.342 0.826s0.122 0.606 0.342 0.827l2.742 2.742c0.013 0.020 0.022 0.043 0.041 0.062l12.817 12.904c0.044 0.045 0.098 0.077 0.159 0.095l5.035 1.5h-20.761c-0.207-0.001-0.375 0.167-0.375 0.374zM4.771 7.621l11.765 11.615-0.433 1.501-12.184-12.265 0.851-0.851zM17.112 18.75l-11.811-11.659 1.828-1.828 11.705 11.736v1.75h-1.722zM19.301 16.406l-11.642-11.673 0.779-0.779 12.158 12.158-1.295 0.294zM17.241 19.5h1.968c0.207 0 0.375-0.168 0.375-0.375v-2.014l1.505-0.342 2.042 6.277-6.366-1.897 0.476-1.65zM0.75 5.106c0-0.112 0.044-0.216 0.122-0.296l3.926-3.926c0.163-0.163 0.428-0.163 0.592 0l2.529 2.529-4.517 4.517-2.529-2.529c-0.080-0.079-0.123-0.184-0.123-0.296z"></path>
</svg>
