<!-- Generated by IcoMoon.io -->
<svg version="1.1" xmlns="http://www.w3.org/2000/svg" width="25" height="24" viewBox="0 0 25 24">
<title>pictures</title>
<path d="M1.125 21h19.5c0.62 0 1.125-0.505 1.125-1.125v-18.75c0-0.62-0.505-1.125-1.125-1.125h-19.5c-0.62 0-1.125 0.505-1.125 1.125v18.75c0 0.62 0.505 1.125 1.125 1.125zM0.75 1.125c0-0.207 0.169-0.375 0.375-0.375h19.5c0.206 0 0.375 0.168 0.375 0.375v18.75c0 0.207-0.169 0.375-0.375 0.375h-19.5c-0.206 0-0.375-0.168-0.375-0.375v-18.75zM13.5 8.25c0.827 0 1.5-0.673 1.5-1.5s-0.673-1.5-1.5-1.5-1.5 0.673-1.5 1.5 0.673 1.5 1.5 1.5zM13.5 6c0.414 0 0.75 0.337 0.75 0.75s-0.336 0.75-0.75 0.75-0.75-0.337-0.75-0.75 0.336-0.75 0.75-0.75zM2.625 17.25h16.5c0.207 0 0.375-0.168 0.375-0.375v-14.25c0-0.207-0.168-0.375-0.375-0.375h-16.5c-0.207 0-0.375 0.168-0.375 0.375v14.25c0 0.207 0.168 0.375 0.375 0.375zM3 16.5v-3.478c0.017-0.012 0.035-0.019 0.050-0.034l3.837-3.837c0.195-0.195 0.534-0.194 0.729 0l5.641 5.641c0.073 0.073 0.169 0.11 0.265 0.11 0.093 0 0.186-0.034 0.259-0.104l2.899-2.754c0.098-0.098 0.227-0.152 0.364-0.152s0.266 0.054 0.348 0.133l1.357 1.544v2.93h-15.75zM18.75 3v9.436l-0.811-0.921c-0.238-0.239-0.556-0.371-0.893-0.371-0.001 0-0.001 0-0.001 0-0.338 0-0.656 0.132-0.889 0.365l-2.628 2.496-5.382-5.383c-0.479-0.478-1.312-0.478-1.79 0l-3.357 3.357v-8.978h15.75zM3.375 21.812c-0.207 0-0.375 0.168-0.375 0.375v0.688c0 0.62 0.505 1.125 1.125 1.125h19.5c0.62 0 1.125-0.505 1.125-1.125v-19.5c0-0.62-0.505-1.125-1.125-1.125h-0.688c-0.207 0-0.375 0.168-0.375 0.375s0.168 0.375 0.375 0.375h0.688c0.206 0 0.375 0.168 0.375 0.375v19.5c0 0.207-0.169 0.375-0.375 0.375h-19.5c-0.206 0-0.375-0.168-0.375-0.375v-0.688c0-0.207-0.168-0.375-0.375-0.375z"></path>
</svg>
