<!-- Generated by IcoMoon.io -->
<svg version="1.1" xmlns="http://www.w3.org/2000/svg" width="24" height="24" viewBox="0 0 24 24">
<title>piechart</title>
<path d="M21.75 13.139c0-0.207-0.168-0.375-0.375-0.375h-10.125v-10.139c0-0.207-0.168-0.375-0.375-0.375-5.996 0-10.875 4.871-10.875 10.859 0 6.208 4.682 10.891 10.891 10.891 5.785 0 10.859-5.076 10.859-10.861zM0.75 13.109c0-5.45 4.34-9.904 9.75-10.103v10.132c0 0.207 0.168 0.375 0.375 0.361h10.117c-0.212 5.242-4.841 9.75-10.102 9.75-5.781 0-10.141-4.359-10.141-10.141zM13.125 11.25h10.499c0.207 0.014 0.376-0.168 0.376-0.375 0-5.996-4.879-10.875-10.875-10.875-0.207 0-0.375 0.168-0.375 0.375v10.514c0 0.207 0.168 0.375 0.375 0.361zM13.5 0.757c5.297 0.194 9.569 4.477 9.745 9.757h-9.745v-9.757z"></path>
</svg>
