<!-- Generated by IcoMoon.io -->
<svg version="1.1" xmlns="http://www.w3.org/2000/svg" width="23" height="24" viewBox="0 0 23 24">
<title>presentation</title>
<path d="M0.375 2.25c-0.207 0-0.375 0.168-0.375 0.375v12.75c0 0.62 0.505 1.125 1.125 1.125h21c0.62 0 1.125-0.505 1.125-1.125v-12.75c0-0.207-0.168-0.375-0.375-0.375s-0.375 0.168-0.375 0.375v12.75c0 0.207-0.168 0.375-0.375 0.375h-21c-0.207 0-0.375-0.168-0.375-0.375v-12.75c0-0.207-0.168-0.375-0.375-0.375zM24.375 0h-25.5c-0.207 0-0.375 0.168-0.375 0.375s0.168 0.375 0.375 0.375h25.5c0.207 0 0.375-0.168 0.375-0.375s-0.168-0.375-0.375-0.375zM8.89 6.11c-0.137-0.137-0.356-0.147-0.505-0.023l-4.5 3.75c-0.159 0.133-0.181 0.369-0.048 0.529s0.368 0.181 0.529 0.048l4.237-3.531 4.258 4.258c0.073 0.074 0.169 0.11 0.265 0.11s0.192-0.037 0.265-0.11l5.36-5.36v2.845c0 0.207 0.168 0.375 0.375 0.375s0.375-0.168 0.375-0.375v-3.75c0-0.049-0.010-0.098-0.029-0.143-0.038-0.091-0.111-0.165-0.203-0.203-0.046-0.019-0.095-0.029-0.143-0.029h-3.75c-0.207 0-0.375 0.168-0.375 0.375s0.168 0.375 0.375 0.375h2.845l-5.095 5.095-4.235-4.235zM6.043 23.799c0.096 0.184 0.322 0.254 0.506 0.158l5.076-2.659 5.076 2.659c0.056 0.029 0.115 0.043 0.174 0.043 0.135 0 0.265-0.073 0.332-0.201 0.096-0.184 0.025-0.41-0.158-0.506l-5.17-2.708c0.073-0.068 0.121-0.164 0.121-0.273v-1.937c0-0.207-0.168-0.375-0.375-0.375s-0.375 0.168-0.375 0.375v1.937c0 0.108 0.047 0.204 0.121 0.272l-5.17 2.708c-0.184 0.097-0.254 0.323-0.158 0.507z"></path>
</svg>
