<!-- Generated by IcoMoon.io -->
<svg version="1.1" xmlns="http://www.w3.org/2000/svg" width="24" height="24" viewBox="0 0 24 24">
<title>setting</title>
<path d="M0.613 12h-0.012c-0.024-0.002-0.048-0.008-0.070-0.019s-0.041-0.026-0.057-0.044-0.028-0.039-0.036-0.062c-0.008-0.023-0.011-0.047-0.009-0.071 0.199-2.892 1.487-5.601 3.604-7.581s4.906-3.084 7.805-3.089c0.049 0 0.096 0.019 0.131 0.054s0.054 0.082 0.054 0.131c0 0.049-0.019 0.096-0.054 0.131s-0.082 0.054-0.131 0.054c-2.805 0.005-5.504 1.073-7.553 2.989s-3.295 4.537-3.488 7.336c-0.003 0.047-0.024 0.091-0.058 0.123s-0.079 0.050-0.126 0.050z"></path>
<path d="M10.357 2.908c-0.037 0-0.074-0.011-0.105-0.033s-0.054-0.051-0.068-0.086c-0.013-0.035-0.016-0.073-0.007-0.11s0.029-0.069 0.057-0.094l1.4-1.244-1.549-1.001c-0.021-0.013-0.039-0.030-0.053-0.050s-0.024-0.043-0.030-0.067c-0.005-0.024-0.006-0.049-0.002-0.073s0.013-0.047 0.027-0.068c0.013-0.021 0.031-0.038 0.051-0.052s0.043-0.024 0.067-0.028 0.049-0.005 0.073-0c0.024 0.005 0.047 0.014 0.067 0.028l1.752 1.132c0.024 0.015 0.044 0.036 0.058 0.061s0.023 0.052 0.025 0.080-0.002 0.057-0.013 0.083c-0.011 0.026-0.027 0.050-0.049 0.069l-1.58 1.405c-0.034 0.030-0.078 0.047-0.123 0.047z"></path>
<path d="M11.864 23.999c-2.011 0.002-3.987-0.525-5.729-1.528s-3.191-2.447-4.199-4.187c-0.024-0.042-0.031-0.093-0.018-0.14s0.044-0.088 0.086-0.112c0.042-0.024 0.093-0.031 0.14-0.018s0.088 0.044 0.112 0.086c1.407 2.427 3.681 4.23 6.365 5.046s5.577 0.585 8.097-0.647c0.044-0.021 0.094-0.024 0.141-0.009s0.084 0.049 0.106 0.093c0.022 0.044 0.025 0.094 0.009 0.141s-0.049 0.084-0.093 0.106c-1.56 0.77-3.277 1.17-5.016 1.169z"></path>
<path d="M1.941 20.374h-0.009c-0.049-0.002-0.095-0.024-0.128-0.061s-0.050-0.084-0.047-0.133l0.105-2.084c0.001-0.028 0.009-0.056 0.023-0.081s0.033-0.046 0.057-0.062 0.050-0.027 0.079-0.031c0.028-0.004 0.057-0.001 0.084 0.008l2.008 0.666c0.023 0.008 0.044 0.020 0.063 0.036s0.033 0.035 0.044 0.057c0.011 0.022 0.017 0.045 0.019 0.070s-0.001 0.049-0.009 0.072c-0.008 0.023-0.020 0.044-0.036 0.063s-0.035 0.033-0.057 0.044c-0.022 0.011-0.045 0.017-0.070 0.019s-0.048-0.001-0.072-0.009l-1.777-0.59-0.092 1.841c-0.003 0.047-0.023 0.092-0.057 0.124s-0.080 0.051-0.127 0.051z"></path>
<path d="M21.58 18.377c-0.032-0-0.064-0.009-0.092-0.025s-0.051-0.040-0.068-0.068c-0.016-0.028-0.025-0.060-0.025-0.092s0.009-0.064 0.025-0.092c1.398-2.432 1.823-5.303 1.188-8.035s-2.282-5.122-4.609-6.688c-0.020-0.014-0.037-0.031-0.051-0.051s-0.023-0.043-0.028-0.067c-0.005-0.024-0.005-0.048 0-0.072s0.014-0.046 0.028-0.067c0.014-0.020 0.031-0.037 0.051-0.051s0.043-0.023 0.067-0.027c0.024-0.005 0.048-0.005 0.072 0s0.046 0.014 0.067 0.028c2.405 1.618 4.107 4.088 4.763 6.912s0.217 5.791-1.227 8.303c-0.016 0.028-0.040 0.051-0.068 0.068s-0.060 0.025-0.092 0.025z"></path>
<path d="M21.53 18.464c-0.043-0-0.084-0.015-0.117-0.042s-0.056-0.064-0.064-0.106l-0.427-2.072c-0.008-0.047 0.002-0.096 0.029-0.136s0.069-0.068 0.116-0.077 0.096-0 0.137 0.026c0.041 0.026 0.069 0.067 0.080 0.114l0.378 1.834 1.641-0.841c0.022-0.011 0.045-0.018 0.069-0.020s0.048 0.001 0.072 0.008c0.023 0.007 0.044 0.019 0.063 0.035s0.034 0.035 0.045 0.057c0.011 0.022 0.018 0.045 0.020 0.069s-0.001 0.049-0.008 0.072c-0.007 0.023-0.019 0.044-0.035 0.063s-0.035 0.034-0.057 0.045l-1.857 0.951c-0.026 0.013-0.055 0.020-0.084 0.020z"></path>
<path d="M10.070 14.991h-1.105c-0.043 0-0.085-0.015-0.119-0.043s-0.056-0.067-0.063-0.109l-0.208-1.169c-0.526-0.112-1.026-0.319-1.477-0.611l-0.974 0.679c-0.036 0.025-0.079 0.036-0.122 0.032s-0.084-0.023-0.114-0.053l-0.781-0.781c-0.031-0.031-0.050-0.071-0.053-0.114s0.008-0.086 0.032-0.122l0.679-0.974c-0.292-0.451-0.5-0.952-0.612-1.477l-1.169-0.208c-0.043-0.008-0.081-0.030-0.109-0.063s-0.043-0.075-0.043-0.119v-1.105c0-0.043 0.015-0.085 0.043-0.119s0.067-0.056 0.109-0.063l1.17-0.208c0.112-0.525 0.319-1.026 0.612-1.477l-0.679-0.974c-0.025-0.036-0.036-0.079-0.032-0.122s0.023-0.084 0.053-0.114l0.781-0.781c0.031-0.031 0.071-0.050 0.114-0.053s0.086 0.008 0.122 0.032l0.974 0.679c0.451-0.292 0.952-0.5 1.477-0.612l0.208-1.169c0.008-0.043 0.030-0.081 0.063-0.109s0.075-0.043 0.119-0.043h1.105c0.043 0 0.085 0.015 0.119 0.043s0.056 0.067 0.063 0.109l0.208 1.169c0.525 0.112 1.026 0.319 1.477 0.612l0.974-0.679c0.036-0.025 0.079-0.036 0.122-0.032s0.084 0.023 0.114 0.053l0.781 0.781c0.031 0.031 0.050 0.071 0.053 0.114s-0.008 0.086-0.032 0.122l-0.679 0.974c0.292 0.451 0.499 0.952 0.611 1.477l1.169 0.208c0.043 0.008 0.081 0.030 0.109 0.063s0.043 0.075 0.043 0.118v1.105c0 0.043-0.015 0.085-0.043 0.119s-0.066 0.056-0.109 0.063l-1.169 0.208c-0.112 0.525-0.319 1.026-0.611 1.477l0.679 0.974c0.025 0.036 0.036 0.079 0.032 0.122s-0.023 0.084-0.053 0.114l-0.781 0.781c-0.031 0.031-0.071 0.050-0.114 0.053s-0.086-0.008-0.122-0.032l-0.974-0.679c-0.451 0.292-0.951 0.5-1.477 0.611l-0.208 1.169c-0.008 0.043-0.030 0.081-0.063 0.109s-0.075 0.043-0.118 0.043zM9.119 14.622h0.796l0.203-1.141c0.007-0.037 0.024-0.071 0.051-0.098s0.060-0.045 0.097-0.052c0.563-0.103 1.097-0.325 1.568-0.65 0.031-0.021 0.068-0.033 0.105-0.033s0.074 0.011 0.105 0.033l0.95 0.663 0.563-0.562-0.663-0.951c-0.021-0.031-0.033-0.068-0.033-0.105s0.011-0.074 0.033-0.105c0.325-0.471 0.546-1.005 0.649-1.568 0.007-0.037 0.025-0.071 0.052-0.097s0.061-0.044 0.098-0.051l1.141-0.203v-0.796l-1.141-0.203c-0.037-0.006-0.071-0.024-0.098-0.051s-0.045-0.060-0.052-0.097c-0.103-0.563-0.324-1.097-0.649-1.568-0.021-0.031-0.033-0.068-0.033-0.105s0.011-0.074 0.033-0.105l0.663-0.951-0.562-0.563-0.951 0.663c-0.031 0.021-0.068 0.033-0.105 0.033s-0.074-0.011-0.105-0.033c-0.471-0.324-1.005-0.545-1.568-0.648-0.037-0.007-0.071-0.025-0.097-0.052s-0.044-0.061-0.051-0.098l-0.203-1.141h-0.796l-0.203 1.141c-0.007 0.037-0.024 0.071-0.051 0.098s-0.060 0.045-0.097 0.052c-0.563 0.103-1.098 0.324-1.569 0.648-0.031 0.021-0.068 0.033-0.105 0.033s-0.074-0.011-0.105-0.033l-0.951-0.663-0.562 0.563 0.663 0.951c0.021 0.031 0.033 0.068 0.033 0.105s-0.011 0.074-0.033 0.105c-0.325 0.471-0.546 1.005-0.649 1.568-0.007 0.037-0.025 0.071-0.052 0.097s-0.061 0.044-0.098 0.051l-1.141 0.203v0.796l1.141 0.203c0.037 0.007 0.071 0.024 0.098 0.051s0.045 0.060 0.052 0.097c0.103 0.563 0.325 1.097 0.649 1.568 0.021 0.031 0.033 0.068 0.033 0.105s-0.011 0.074-0.033 0.105l-0.663 0.952 0.562 0.562 0.951-0.663c0.031-0.021 0.068-0.033 0.105-0.033s0.074 0.011 0.105 0.033c0.471 0.325 1.005 0.546 1.568 0.649 0.037 0.007 0.071 0.025 0.097 0.052s0.044 0.061 0.051 0.098l0.204 1.141z"></path>
<path d="M9.517 12.265c-0.586 0-1.158-0.174-1.645-0.499s-0.866-0.788-1.090-1.329c-0.224-0.541-0.283-1.136-0.169-1.71s0.396-1.102 0.81-1.516c0.414-0.414 0.941-0.696 1.516-0.81s1.169-0.056 1.71 0.168c0.541 0.224 1.003 0.603 1.329 1.090s0.499 1.059 0.499 1.645c-0.001 0.785-0.313 1.538-0.868 2.093s-1.308 0.867-2.093 0.868zM9.517 6.714c-0.513 0-1.013 0.152-1.44 0.437s-0.758 0.689-0.954 1.163c-0.196 0.473-0.247 0.995-0.147 1.497s0.347 0.964 0.709 1.327 0.824 0.609 1.327 0.709c0.503 0.1 1.024 0.049 1.497-0.148s0.878-0.528 1.163-0.955c0.285-0.426 0.437-0.927 0.436-1.44-0.001-0.687-0.274-1.345-0.76-1.831s-1.144-0.759-1.831-0.76z"></path>
<path d="M17.309 20.385c-0.032 0-0.063-0.008-0.091-0.024s-0.051-0.039-0.067-0.066l-0.396-0.664c-0.344 0.048-0.694 0.037-1.035-0.033l-0.437 0.637c-0.024 0.036-0.061 0.062-0.103 0.073s-0.086 0.008-0.126-0.010l-0.688-0.311c-0.039-0.018-0.071-0.049-0.090-0.088s-0.023-0.083-0.013-0.125l0.189-0.749c-0.277-0.21-0.517-0.465-0.709-0.755l-0.759 0.142c-0.043 0.008-0.087 0.001-0.125-0.021s-0.067-0.055-0.082-0.096l-0.267-0.706c-0.015-0.041-0.016-0.085-0.002-0.126s0.043-0.076 0.080-0.098l0.664-0.395c-0.048-0.345-0.037-0.695 0.032-1.035l-0.637-0.436c-0.036-0.024-0.062-0.061-0.073-0.103s-0.008-0.086 0.010-0.126l0.311-0.688c0.018-0.039 0.049-0.071 0.088-0.090s0.083-0.023 0.125-0.013l0.749 0.189c0.21-0.277 0.465-0.517 0.755-0.709l-0.142-0.759c-0.008-0.043-0.001-0.087 0.021-0.124s0.055-0.067 0.096-0.082l0.706-0.267c0.041-0.015 0.085-0.016 0.126-0.002s0.075 0.043 0.098 0.080l0.396 0.664c0.344-0.048 0.695-0.037 1.035 0.033l0.437-0.637c0.025-0.036 0.061-0.062 0.103-0.073s0.086-0.008 0.126 0.010l0.688 0.311c0.040 0.018 0.071 0.049 0.090 0.088s0.023 0.084 0.013 0.126l-0.19 0.749c0.277 0.21 0.517 0.465 0.708 0.755l0.759-0.142c0.043-0.008 0.087-0.001 0.124 0.021s0.067 0.055 0.082 0.096l0.267 0.706c0.015 0.041 0.016 0.085 0.002 0.126s-0.043 0.075-0.080 0.098l-0.664 0.396c0.048 0.344 0.037 0.694-0.033 1.035l0.637 0.437c0.036 0.025 0.062 0.061 0.073 0.103s0.008 0.086-0.010 0.126l-0.311 0.688c-0.018 0.040-0.049 0.072-0.088 0.090s-0.084 0.023-0.126 0.013l-0.749-0.19c-0.21 0.277-0.465 0.517-0.755 0.709l0.142 0.759c0.008 0.043 0.001 0.087-0.021 0.124s-0.055 0.067-0.096 0.082l-0.706 0.267c-0.021 0.008-0.043 0.012-0.065 0.012zM16.849 19.245c0.032 0 0.063 0.008 0.091 0.024s0.051 0.039 0.067 0.066l0.38 0.638 0.417-0.157-0.136-0.73c-0.007-0.037-0.002-0.075 0.013-0.109s0.041-0.063 0.073-0.083c0.328-0.197 0.61-0.462 0.828-0.777 0.021-0.031 0.052-0.055 0.087-0.068s0.074-0.015 0.11-0.006l0.72 0.182 0.184-0.406-0.613-0.42c-0.031-0.021-0.055-0.051-0.068-0.087s-0.016-0.073-0.007-0.11c0.092-0.371 0.104-0.758 0.036-1.135-0.007-0.037-0.002-0.075 0.014-0.109s0.041-0.063 0.073-0.082l0.638-0.381-0.157-0.417-0.73 0.136c-0.037 0.007-0.075 0.002-0.109-0.013s-0.063-0.041-0.083-0.073c-0.197-0.328-0.462-0.61-0.777-0.828-0.031-0.021-0.055-0.052-0.068-0.087s-0.015-0.074-0.006-0.11l0.182-0.72-0.406-0.183-0.42 0.613c-0.021 0.031-0.051 0.055-0.087 0.068s-0.073 0.016-0.11 0.007c-0.371-0.092-0.758-0.105-1.134-0.037-0.037 0.007-0.075 0.002-0.109-0.014s-0.063-0.041-0.082-0.073l-0.381-0.638-0.417 0.158 0.136 0.73c0.007 0.037 0.002 0.075-0.013 0.109s-0.041 0.063-0.073 0.083c-0.328 0.198-0.61 0.463-0.827 0.777-0.021 0.031-0.052 0.055-0.087 0.068s-0.074 0.015-0.11 0.006l-0.72-0.182-0.183 0.406 0.613 0.42c0.031 0.021 0.055 0.051 0.068 0.087s0.016 0.073 0.007 0.11c-0.092 0.371-0.104 0.758-0.036 1.135 0.007 0.037 0.002 0.075-0.014 0.109s-0.041 0.063-0.073 0.082l-0.638 0.38 0.158 0.417 0.73-0.136c0.037-0.007 0.075-0.003 0.11 0.013s0.063 0.041 0.082 0.073c0.198 0.328 0.462 0.61 0.777 0.828 0.031 0.021 0.055 0.052 0.068 0.087s0.015 0.074 0.006 0.11l-0.182 0.72 0.406 0.184 0.42-0.613c0.021-0.031 0.051-0.055 0.087-0.068s0.073-0.016 0.11-0.007c0.371 0.092 0.758 0.104 1.134 0.036 0.010-0.002 0.021-0.003 0.032-0.003z"></path>
<path d="M16.337 18.632c-0.52 0.001-1.021-0.193-1.405-0.543s-0.623-0.831-0.67-1.349 0.101-1.034 0.415-1.448c0.314-0.414 0.772-0.695 1.283-0.789s1.039 0.007 1.479 0.283c0.44 0.276 0.762 0.706 0.901 1.207s0.086 1.035-0.149 1.499c-0.235 0.463-0.635 0.822-1.121 1.006-0.234 0.088-0.483 0.134-0.733 0.134zM16.332 14.839c-0.365 0-0.72 0.117-1.014 0.334s-0.511 0.521-0.619 0.869c-0.108 0.348-0.103 0.722 0.016 1.067s0.345 0.643 0.645 0.85c0.3 0.207 0.659 0.314 1.024 0.303s0.717-0.138 1.004-0.362c0.288-0.225 0.496-0.535 0.594-0.887s0.082-0.725-0.047-1.066c-0.122-0.327-0.341-0.608-0.628-0.806s-0.627-0.303-0.976-0.302z"></path>
</svg>
