<!-- Generated by IcoMoon.io -->
<svg version="1.1" xmlns="http://www.w3.org/2000/svg" width="24" height="24" viewBox="0 0 24 24">
<title>speedometer</title>
<path d="M12-0.026c-6.631 0-12.026 5.394-12.026 12.025s5.396 12.026 12.026 12.026 12.026-5.394 12.026-12.026-5.395-12.025-12.026-12.025zM12 23.224c-6.189 0-11.224-5.035-11.224-11.224s5.035-11.224 11.224-11.224 11.224 5.036 11.224 11.224-5.035 11.224-11.224 11.224zM12.375 4.54c0.229 0 0.415-0.185 0.415-0.415v-1.5c0-0.229-0.186-0.415-0.415-0.415s-0.415 0.185-0.415 0.415v1.5c0 0.229 0.186 0.415 0.415 0.415zM4.125 11.21h-1.5c-0.229 0-0.415 0.185-0.415 0.415s0.186 0.415 0.415 0.415h1.5c0.229 0 0.415-0.185 0.415-0.415s-0.186-0.415-0.415-0.415zM19.46 11.625c0 0.229 0.186 0.415 0.415 0.415h1.5c0.229 0 0.415-0.185 0.415-0.415s-0.186-0.415-0.415-0.415h-1.5c-0.229 0-0.415 0.185-0.415 0.415zM6.431 7.596c0.106 0 0.212-0.040 0.293-0.122 0.162-0.162 0.162-0.424 0-0.586l-1.181-1.182c-0.162-0.163-0.424-0.163-0.586 0s-0.162 0.424 0 0.586l1.181 1.181c0.080 0.082 0.187 0.122 0.293 0.122zM17.918 15.832c-0.162-0.163-0.424-0.163-0.586 0s-0.162 0.424 0 0.586l1.125 1.125c0.081 0.081 0.187 0.122 0.293 0.122s0.212-0.041 0.293-0.122c0.162-0.162 0.162-0.424 0-0.586l-1.126-1.125zM18.668 5.918c0.162-0.162 0.162-0.424 0-0.586s-0.424-0.163-0.586 0l-1.181 1.181c-0.162 0.162-0.162 0.424 0 0.586 0.081 0.081 0.187 0.122 0.293 0.122s0.212-0.041 0.293-0.122l1.181-1.181zM6.457 16.207l-1.125 1.125c-0.162 0.162-0.162 0.424 0 0.586 0.081 0.081 0.187 0.122 0.293 0.122s0.212-0.041 0.293-0.122l1.125-1.125c0.162-0.162 0.162-0.424 0-0.586s-0.425-0.162-0.587 0zM14.625 18h-5.25c-0.667-0.026-1.151 0.458-1.151 1.125v0.718c0 0.673 0.506 1.202 1.151 1.157h5.25c0.645 0.045 1.151-0.484 1.151-1.157v-0.718c0-0.667-0.485-1.151-1.151-1.125zM14.974 19.843c0 0.193-0.11 0.4-0.349 0.426h-5.25c-0.24-0.025-0.349-0.234-0.349-0.019v-0.718c0-0.629 0.127-0.757 0.349-0.782h5.25c0.222 0.025 0.349 0.153 0.349 0.375v0.718zM12 14c0.534 0 1.037-0.208 1.414-0.586 0.683-0.683 0.768-1.74 0.255-2.516l1.99-1.99c0.156-0.157 0.156-0.41 0-0.567s-0.41-0.157-0.567 0l-1.992 1.992c-0.769-0.491-1.855-0.407-2.513 0.252-0.78 0.78-0.78 2.048 0 2.828 0.377 0.379 0.88 0.587 1.414 0.587zM11.293 11.293c0.188-0.189 0.44-0.293 0.707-0.293s0.518 0.104 0.707 0.293c0.39 0.39 0.39 1.024 0 1.414-0.377 0.378-1.036 0.378-1.414 0-0.39-0.39-0.39-1.024 0-1.414z"></path>
</svg>
