<!-- Generated by IcoMoon.io -->
<svg version="1.1" xmlns="http://www.w3.org/2000/svg" width="22" height="24" viewBox="0 0 22 24">
<title>streetsign</title>
<path d="M11.25 23.625v-7.125c0-0.207-0.1-0.75-0.307-0.75s-0.443 0.168-0.443 0.375v7.5c0 0.207 0.236 0.375 0.443 0.375s0.307-0.168 0.307-0.375zM11.318 1.171v-0.796c0-0.207-0.168-0.375-0.375-0.375s-0.375 0.168-0.375 0.375v0.796c0 0.207 0.168 0.375 0.375 0.375s0.375-0.167 0.375-0.375zM2.917 2.603l-2.675 2.099c-0.154 0.142-0.242 0.342-0.242 0.548s0.088 0.406 0.266 0.569l2.629 2.059c0.23 0.212 0.64 0.373 0.955 0.373h10.371c0.43 0 0.78-0.347 0.78-0.775v-4.451c0-0.427-0.35-0.775-0.78-0.775h-10.371c-0.314 0-0.724 0.16-0.931 0.353zM14.25 7.475c0 0.011-0.014 0.025-0.030 0.025h-10.371c-0.127 0-0.353-0.088-0.469-0.193l-2.652-2.035 2.674-2.099c0.094-0.085 0.319-0.173 0.446-0.173l10.401 0.025v4.451zM18.856 9.373c-0.23-0.212-0.641-0.373-0.955-0.373h-10.371c-0.43 0-0.78 0.347-0.78 0.775v4.451c0 0.427 0.35 0.774 0.78 0.774h10.371c0.314 0 0.724-0.16 0.932-0.353l2.674-2.098c0.154-0.142 0.242-0.342 0.242-0.548s-0.088-0.406-0.265-0.569l-2.629-2.059zM7.5 9.75h10.401c0.127 0 0.353 0.088 0.469 0.194l2.652 2.035-2.675 2.098c-0.094 0.086-0.319 0.173-0.446 0.173h-10.401v-4.5z"></path>
</svg>
