<!-- Generated by IcoMoon.io -->
<svg version="1.1" xmlns="http://www.w3.org/2000/svg" width="32" height="24" viewBox="0 0 32 24">
<title>target</title>
<path d="M31.334 9.817c-0.169-0.142-0.422-0.119-0.564 0.051l-1.775 2.13c-0.038-0.012-0.077-0.024-0.12 0.002h-1.043l1.328-1.618c0.142-0.17 0.119-0.422-0.051-0.564s-0.422-0.119-0.564 0.051l-1.755 2.132h-1.184l1.328-1.618c0.142-0.17 0.119-0.422-0.051-0.564s-0.421-0.119-0.564 0.051l-1.755 2.132h-0.564c-0.014-6.631-5.39-12-11.998-12-6.616 0-12 5.383-12 12s5.383 12 12 12c6.355 0 11.558-4.97 11.961-11.25h0.602l1.755 2.131c0.079 0.095 0.194 0.144 0.307 0.144 0.091 0 0.181-0.030 0.256-0.093 0.17-0.141 0.194-0.394 0.051-0.564l-1.328-1.619h1.184l1.755 2.131c0.079 0.095 0.194 0.144 0.307 0.144 0.091 0 0.181-0.030 0.256-0.093 0.17-0.141 0.194-0.394 0.051-0.564l-1.328-1.619h1.043c0.043 0.025 0.082 0.014 0.121 0.002l1.775 2.13c0.079 0.095 0.194 0.144 0.307 0.144 0.091 0 0.181-0.030 0.257-0.093 0.17-0.141 0.194-0.394 0.051-0.564l-1.661-1.994 1.661-1.993c0.142-0.17 0.119-0.423-0.052-0.564zM12 23.25c-6.203 0-11.25-5.047-11.25-11.25s5.047-11.25 11.25-11.25c6.195 0 11.234 5.032 11.248 11.25h-2.25c-0.014-4.976-4.044-9-8.999-9-4.963 0-9 4.037-9 9s4.037 9 9 9c4.701 0 8.566-3.624 8.961-8.25h2.25c-0.401 5.867-5.269 10.5-11.211 10.5zM17.998 12c-0.014-3.322-2.698-6-5.998-6-3.308 0-6 2.692-6 6s2.692 6 6 6c3.045 0 5.562-2.282 5.944-5.25h2.266c-0.392 4.212-3.923 7.5-8.21 7.5-4.549 0-8.25-3.701-8.25-8.25s3.701-8.25 8.25-8.25c4.541 0 8.235 3.687 8.248 8.25h-2.25zM14.998 12c-0.014-1.668-1.351-3-2.998-3-1.654 0-3 1.346-3 3s1.346 3 3 3c1.384 0 2.541-0.947 2.885-2.25h2.301c-0.377 2.553-2.556 4.5-5.186 4.5-2.894 0-5.25-2.356-5.25-5.25s2.356-5.25 5.25-5.25c2.886 0 5.235 2.341 5.248 5.25h-2.251zM12.375 12.75h1.729c-0.317 0.884-1.137 1.5-2.104 1.5-1.241 0-2.25-1.009-2.25-2.25s1.009-2.25 2.25-2.25c1.232 0 2.234 0.996 2.248 2.25h-1.873c-0.221-0.026-0.401 0.154-0.401 0.375s0.179 0.4 0.401 0.375z"></path>
</svg>
