<!-- Generated by IcoMoon.io -->
<svg version="1.1" xmlns="http://www.w3.org/2000/svg" width="26" height="24" viewBox="0 0 26 24">
<title>telescope</title>
<path d="M20.598 1.736c-0.040-0.099-0.119-0.176-0.219-0.213s-0.211-0.029-0.304 0.020l-8.93 4.712c-0.168 0.088-0.243 0.289-0.175 0.466l0.184 0.481-5.155 2.827c-0.169 0.092-0.24 0.296-0.167 0.473l0.171 0.412-5.474 2.616c-0.18 0.086-0.261 0.298-0.184 0.482l1.123 2.707c0.060 0.144 0.199 0.232 0.347 0.232 0.042 0 0.084-0.007 0.125-0.022l5.719-2.026 0.171 0.412c0.059 0.143 0.198 0.232 0.346 0.232 0.034 0 0.069-0.005 0.104-0.015l5.457-1.573 0.163 0.427c0.056 0.148 0.197 0.241 0.349 0.241 0.037 0 0.073-0.005 0.11-0.017l9.75-3c0.101-0.031 0.183-0.102 0.228-0.197s0.049-0.204 0.010-0.301l-3.75-9.376zM2.025 16.102l-0.851-2.051 5.117-2.446 1.079 2.602-5.346 1.894zM8.393 14.717l-0.178-0.431c0 0 0 0 0 0l-1.382-3.334c0 0 0 0 0 0l-0.178-0.43 4.752-2.606 1.78 4.6 0.281 0.736-5.075 1.464zM14.475 13.789l-0.152-0.398c-0.002-0.008-0.001-0.018-0.005-0.026l-0.463-1.198-2.066-5.404 8.267-4.361 3.444 8.61-9.025 2.778zM21.723 0.235c-0.077-0.193-0.296-0.286-0.487-0.209s-0.286 0.295-0.209 0.488l4.5 11.25c0.059 0.147 0.2 0.236 0.349 0.236 0.046 0 0.094-0.008 0.139-0.027 0.192-0.077 0.286-0.296 0.209-0.488l-4.501-11.25zM13.5 15.75h-2.25c-0.855 0-1.5 0.645-1.5 1.5v0.986l-4.409 5.144c-0.135 0.157-0.117 0.394 0.041 0.529 0.071 0.061 0.157 0.091 0.244 0.091 0.106 0 0.211-0.044 0.284-0.131l4.388-5.119h1.703v4.875c0 0.207 0.168 0.375 0.375 0.375s0.375-0.168 0.375-0.375v-4.875h1.703l4.387 5.119c0.074 0.087 0.179 0.131 0.285 0.131 0.086 0 0.173-0.030 0.244-0.091 0.157-0.135 0.175-0.371 0.040-0.529l-4.409-5.144v-0.93c0-0.872-0.659-1.556-1.5-1.556zM14.25 18h-3.75v-0.75c0-0.442 0.308-0.75 0.75-0.75h2.25c0.428 0 0.75 0.346 0.75 0.806v0.694z"></path>
</svg>
