<!-- Generated by IcoMoon.io -->
<svg version="1.1" xmlns="http://www.w3.org/2000/svg" width="24" height="24" viewBox="0 0 24 24">
<title>th</title>
<path d="M6.857 17.571v2.571c0 0.71-0.576 1.286-1.286 1.286h-4.286c-0.71 0-1.286-0.576-1.286-1.286v-2.571c0-0.71 0.576-1.286 1.286-1.286h4.286c0.71 0 1.286 0.576 1.286 1.286zM6.857 10.714v2.571c0 0.71-0.576 1.286-1.286 1.286h-4.286c-0.71 0-1.286-0.576-1.286-1.286v-2.571c0-0.71 0.576-1.286 1.286-1.286h4.286c0.71 0 1.286 0.576 1.286 1.286zM15.429 17.571v2.571c0 0.71-0.576 1.286-1.286 1.286h-4.286c-0.71 0-1.286-0.576-1.286-1.286v-2.571c0-0.71 0.576-1.286 1.286-1.286h4.286c0.71 0 1.286 0.576 1.286 1.286zM6.857 3.857v2.571c0 0.71-0.576 1.286-1.286 1.286h-4.286c-0.71 0-1.286-0.576-1.286-1.286v-2.571c0-0.71 0.576-1.286 1.286-1.286h4.286c0.71 0 1.286 0.576 1.286 1.286zM15.429 10.714v2.571c0 0.71-0.576 1.286-1.286 1.286h-4.286c-0.71 0-1.286-0.576-1.286-1.286v-2.571c0-0.71 0.576-1.286 1.286-1.286h4.286c0.71 0 1.286 0.576 1.286 1.286zM24 17.571v2.571c0 0.71-0.576 1.286-1.286 1.286h-4.286c-0.71 0-1.286-0.576-1.286-1.286v-2.571c0-0.71 0.576-1.286 1.286-1.286h4.286c0.71 0 1.286 0.576 1.286 1.286zM15.429 3.857v2.571c0 0.71-0.576 1.286-1.286 1.286h-4.286c-0.71 0-1.286-0.576-1.286-1.286v-2.571c0-0.71 0.576-1.286 1.286-1.286h4.286c0.71 0 1.286 0.576 1.286 1.286zM24 10.714v2.571c0 0.71-0.576 1.286-1.286 1.286h-4.286c-0.71 0-1.286-0.576-1.286-1.286v-2.571c0-0.71 0.576-1.286 1.286-1.286h4.286c0.71 0 1.286 0.576 1.286 1.286zM24 3.857v2.571c0 0.71-0.576 1.286-1.286 1.286h-4.286c-0.71 0-1.286-0.576-1.286-1.286v-2.571c0-0.71 0.576-1.286 1.286-1.286h4.286c0.71 0 1.286 0.576 1.286 1.286z"></path>
</svg>
