<!-- Generated by IcoMoon.io -->
<svg version="1.1" xmlns="http://www.w3.org/2000/svg" width="23" height="24" viewBox="0 0 23 24">
<title>tools</title>
<path d="M0.158 4.234c-0.635 0.636-0.5 1.532 0.006 2.036 0.020 0.019 2.050 1.959 4.906 4.814 0.074 0.074 0.17 0.11 0.266 0.11s0.192-0.037 0.266-0.11c0.146-0.146 0.146-0.384 0-0.53-0.431-0.431-0.84-0.838-1.229-1.223l1.192-1.192c0.146-0.146 0.146-0.384 0-0.53s-0.384-0.146-0.53 0l-1.195 1.195c-0.668-0.66-1.257-1.236-1.736-1.703l2.711-2.711c0.146-0.146 0.146-0.384 0-0.53s-0.384-0.146-0.53 0l-2.72 2.72c-0.552-0.535-0.87-0.839-0.875-0.844-0.158-0.158-0.366-0.604 0-0.97l3.75-3.75c0.145-0.147 0.53-0.439 0.953-0.018 0.019 0.021 1.912 2.172 4.803 5.063 0.146 0.146 0.384 0.146 0.53 0s0.146-0.384 0-0.53c-2.873-2.872-4.752-5.006-4.787-5.045-0.699-0.698-1.542-0.488-2.030 0l-3.751 3.75zM16.064 18.11c-0.146-0.146-0.384-0.146-0.53 0l-1.193 1.192c-0.364-0.368-0.745-0.754-1.148-1.156-0.146-0.146-0.384-0.146-0.53 0s-0.146 0.384 0 0.53c2.778 2.777 4.718 4.852 4.746 4.882 0.257 0.258 0.61 0.4 0.992 0.4v0c0.394 0 0.792-0.154 1.039-0.401l3.748-3.793c0.472-0.472 0.499-1.272 0.059-1.714l-5.029-5.029c-0.146-0.146-0.384-0.146-0.53 0s-0.146 0.384 0 0.53l5.029 5.029c0.15 0.15 0.122 0.474-0.059 0.655l-3.749 3.793c-0.086 0.087-0.282 0.18-0.507 0.18 0 0 0 0 0 0-0.129 0-0.314-0.032-0.453-0.172-0.008-0.008-0.322-0.343-0.867-0.914l2.733-2.733c0.146-0.146 0.146-0.384 0-0.53s-0.384-0.146-0.53 0l-2.722 2.722c-0.468-0.487-1.042-1.078-1.695-1.744l1.197-1.197c0.146-0.145 0.146-0.383 0-0.529zM-0.22 23.872c0.072 0.074 0.169 0.113 0.269 0.113 0.036 0 0.072-0.005 0.107-0.016l7.5-2.234c0.061-0.018 0.115-0.050 0.159-0.095l12.818-12.904c0.018-0.018 0.027-0.041 0.040-0.061l2.742-2.742c0.221-0.221 0.343-0.514 0.343-0.827s-0.122-0.605-0.343-0.825l-3.926-3.925c-0.441-0.441-1.211-0.441-1.652 0l-2.804 2.804c-0.018 0.018-0.028 0.041-0.041 0.062l-12.837 12.838c-0.042 0.042-0.074 0.093-0.091 0.149l-2.37 7.286c-0.043 0.133-0.010 0.277 0.088 0.378zM15.319 3.953l0.779 0.779-11.642 11.674-1.295-0.294 12.158-12.159zM4.924 17l11.705-11.736 1.827 1.827-11.811 11.659h-1.721v-1.75zM19.837 8.472l-12.183 12.265-0.433-1.501 11.765-11.615 0.851 0.851zM2.668 16.769l1.505 0.342v2.014c0 0.207 0.168 0.375 0.375 0.375h1.968l0.476 1.65-6.366 1.897 2.042-6.277zM18.367 0.884c0.158-0.158 0.433-0.158 0.592 0l3.926 3.926c0.079 0.079 0.122 0.184 0.122 0.296s-0.044 0.217-0.123 0.296l-2.528 2.529-4.517-4.517 2.528-2.53z"></path>
</svg>
