<!-- Generated by IcoMoon.io -->
<svg version="1.1" xmlns="http://www.w3.org/2000/svg" width="24" height="24" viewBox="0 0 24 24">
<title>tools-2</title>
<path d="M21.265 1.016c0.086-0.086 0.125-0.209 0.104-0.329s-0.099-0.223-0.21-0.274c-1.718-0.81-3.758-0.455-5.098 0.893-1.274 1.282-1.718 3.295-1.124 4.978l-8.654 8.654c-0.47-0.168-0.973-0.252-1.497-0.252-1.286 0-2.532 0.511-3.419 1.404-1.337 1.344-1.713 3.33-0.961 5.060 0.050 0.114 0.152 0.197 0.275 0.219s0.248-0.016 0.335-0.104l2.618-2.632c0.173-0.174 0.451-0.197 0.595-0.051l1.13 1.183c0.164 0.166 0.157 0.422-0.017 0.596l-2.608 2.625c-0.086 0.086-0.124 0.209-0.103 0.329s0.099 0.222 0.209 0.274c0.622 0.293 1.276 0.441 1.943 0.441 1.179 0 2.299-0.474 3.155-1.335 1.274-1.281 1.718-3.294 1.123-4.977l8.654-8.655c0.471 0.168 0.973 0.252 1.498 0.252 1.285 0 2.532-0.511 3.419-1.404 1.336-1.344 1.713-3.33 0.961-5.060-0.049-0.114-0.152-0.196-0.274-0.219-0.121-0.021-0.247 0.016-0.335 0.104l-2.618 2.632c-0.161 0.162-0.435 0.16-0.601-0.007l-1.124-1.124c-0.169-0.17-0.169-0.426-0.001-0.596l2.626-2.624zM18.11 4.766l1.124 1.124c0.449 0.452 1.219 0.454 1.663 0.007l2.197-2.208c0.352 1.306-0.012 2.707-0.993 3.695-0.748 0.752-1.799 1.183-2.888 1.183-0.512 0-0.997-0.096-1.442-0.285-0.141-0.061-0.304-0.028-0.412 0.079l-9 9c-0.108 0.108-0.139 0.27-0.080 0.41 0.602 1.433 0.236 3.281-0.872 4.396-0.991 0.996-2.433 1.351-3.739 0.944l2.206-2.22c0.466-0.469 0.473-1.196 0.022-1.649l-1.13-1.183c-0.436-0.439-1.21-0.412-1.663 0.047l-2.198 2.208c-0.352-1.306 0.012-2.707 0.993-3.694 0.748-0.752 1.799-1.183 2.887-1.183 0.512 0 0.998 0.096 1.442 0.285 0.14 0.062 0.304 0.028 0.412-0.079l9-9c0.108-0.108 0.139-0.27 0.080-0.41-0.602-1.433-0.236-3.282 0.872-4.396 0.99-0.996 2.431-1.349 3.736-0.944l-2.22 2.221c-0.462 0.463-0.462 1.189 0 1.654zM21.907 22.985c-0.166 0.166-0.453 0.166-0.62-0.002l-7.522-7.5c-0.146-0.145-0.384-0.146-0.53 0.001s-0.145 0.384 0.001 0.53l7.522 7.498c0.225 0.226 0.524 0.35 0.841 0.35 0 0 0 0 0 0 0.318 0 0.616-0.125 0.846-0.356l1.072-1.12c0.461-0.463 0.461-1.19-0.001-1.654l-7.5-7.5c-0.146-0.146-0.384-0.146-0.53 0s-0.146 0.384 0 0.53l7.499 7.499c0.172 0.173 0.172 0.423-0.005 0.602l-1.072 1.12zM4.391 2.359l-2.25-2.25c-0.146-0.146-0.384-0.146-0.53 0l-1.5 1.5c-0.146 0.146-0.146 0.384 0 0.53l2.25 2.25c0.073 0.074 0.169 0.11 0.265 0.11s0.192-0.037 0.266-0.109l0.484-0.485 5.735 5.734c0.074 0.074 0.17 0.11 0.265 0.11s0.192-0.037 0.265-0.11c0.146-0.146 0.146-0.384 0-0.53l-5.735-5.735 0.485-0.485c0.147-0.147 0.147-0.384 0.001-0.531zM2.625 3.595l-1.72-1.72 0.97-0.97 1.72 1.72-0.97 0.97z"></path>
</svg>
