<!-- Generated by IcoMoon.io -->
<svg version="1.1" xmlns="http://www.w3.org/2000/svg" width="28" height="24" viewBox="0 0 28 24">
<title>video</title>
<path d="M5.625 0h-4.5c-0.652 0-1.125 0.473-1.125 1.125v21.75c0 0.652 0.473 1.125 1.125 1.125h25.5c0.652 0 1.125-0.473 1.125-1.125v-21.75c0-0.652-0.473-1.125-1.125-1.125h-21zM0.75 22.875v-21.75c0-0.235 0.14-0.375 0.375-0.375h4.125v22.5h-4.125c-0.235 0-0.375-0.14-0.375-0.375zM6 23.25v-22.5h15.75v22.5h-15.75zM27 1.125v21.75c0 0.235-0.14 0.375-0.375 0.375h-4.125v-22.5h4.125c0.235 0 0.375 0.14 0.375 0.375zM11.083 7.563c-0.115-0.077-0.263-0.084-0.385-0.019-0.121 0.065-0.197 0.192-0.197 0.331v9c0 0.139 0.076 0.265 0.198 0.331 0.055 0.029 0.116 0.044 0.177 0.044 0.073 0 0.145-0.021 0.208-0.063l6.75-4.5c0.104-0.070 0.167-0.187 0.167-0.312s-0.063-0.242-0.167-0.312l-6.75-4.5zM11.25 16.174v-7.599l5.699 3.8-5.699 3.799zM3.75 6h-1.5c-0.207 0-0.375 0.168-0.375 0.375s0.168 0.375 0.375 0.375h1.5c0.207 0 0.375-0.168 0.375-0.375s-0.168-0.375-0.375-0.375zM2.25 3.75h1.5c0.207 0 0.375-0.168 0.375-0.375s-0.168-0.375-0.375-0.375h-1.5c-0.207 0-0.375 0.168-0.375 0.375s0.168 0.375 0.375 0.375zM3.75 9h-1.5c-0.207 0-0.375 0.168-0.375 0.375s0.168 0.375 0.375 0.375h1.5c0.207 0 0.375-0.168 0.375-0.375s-0.168-0.375-0.375-0.375zM3.75 12h-1.5c-0.207 0-0.375 0.168-0.375 0.375s0.168 0.375 0.375 0.375h1.5c0.207 0 0.375-0.168 0.375-0.375s-0.168-0.375-0.375-0.375zM3.75 15h-1.5c-0.207 0-0.375 0.168-0.375 0.375s0.168 0.375 0.375 0.375h1.5c0.207 0 0.375-0.168 0.375-0.375s-0.168-0.375-0.375-0.375zM3.75 18h-1.5c-0.207 0-0.375 0.168-0.375 0.375s0.168 0.375 0.375 0.375h1.5c0.207 0 0.375-0.168 0.375-0.375s-0.168-0.375-0.375-0.375zM3.75 21h-1.5c-0.207 0-0.375 0.168-0.375 0.375s0.168 0.375 0.375 0.375h1.5c0.207 0 0.375-0.168 0.375-0.375s-0.168-0.375-0.375-0.375zM24 6.75h1.5c0.207 0 0.375-0.168 0.375-0.375s-0.168-0.375-0.375-0.375h-1.5c-0.207 0-0.375 0.168-0.375 0.375s0.168 0.375 0.375 0.375zM24 3.75h1.5c0.207 0 0.375-0.168 0.375-0.375s-0.168-0.375-0.375-0.375h-1.5c-0.207 0-0.375 0.168-0.375 0.375s0.168 0.375 0.375 0.375zM24 9.75h1.5c0.207 0 0.375-0.168 0.375-0.375s-0.168-0.375-0.375-0.375h-1.5c-0.207 0-0.375 0.168-0.375 0.375s0.168 0.375 0.375 0.375zM24 12.75h1.5c0.207 0 0.375-0.168 0.375-0.375s-0.168-0.375-0.375-0.375h-1.5c-0.207 0-0.375 0.168-0.375 0.375s0.168 0.375 0.375 0.375zM24 15.75h1.5c0.207 0 0.375-0.168 0.375-0.375s-0.168-0.375-0.375-0.375h-1.5c-0.207 0-0.375 0.168-0.375 0.375s0.168 0.375 0.375 0.375zM24 18.75h1.5c0.207 0 0.375-0.168 0.375-0.375s-0.168-0.375-0.375-0.375h-1.5c-0.207 0-0.375 0.168-0.375 0.375s0.168 0.375 0.375 0.375zM25.5 21h-1.5c-0.207 0-0.375 0.168-0.375 0.375s0.168 0.375 0.375 0.375h1.5c0.207 0 0.375-0.168 0.375-0.375s-0.168-0.375-0.375-0.375z"></path>
</svg>
