<!-- Generated by IcoMoon.io -->
<svg version="1.1" xmlns="http://www.w3.org/2000/svg" width="21" height="24" viewBox="0 0 21 24">
<title>youtube-square</title>
<path d="M12.309 17.453v-2.103c0-0.442-0.134-0.67-0.389-0.67-0.147 0-0.295 0.067-0.442 0.214v3.001c0.147 0.147 0.295 0.214 0.442 0.214 0.255 0 0.389-0.214 0.389-0.656zM14.774 15.818h0.884v-0.456c0-0.456-0.147-0.683-0.442-0.683s-0.442 0.228-0.442 0.683v0.456zM7.124 12.255v0.938h-1.072v5.667h-0.991v-5.667h-1.045v-0.938h3.108zM9.817 13.943v4.917h-0.898v-0.536c-0.348 0.402-0.683 0.603-1.018 0.603-0.281 0-0.482-0.121-0.563-0.375-0.054-0.147-0.080-0.375-0.080-0.723v-3.885h0.884v3.617c0 0.201 0 0.322 0.013 0.348 0.013 0.134 0.080 0.201 0.201 0.201 0.188 0 0.362-0.134 0.563-0.415v-3.751h0.898zM13.193 15.43v1.956c0 0.442-0.027 0.777-0.094 0.978-0.107 0.375-0.348 0.563-0.71 0.563-0.308 0-0.616-0.188-0.911-0.549v0.482h-0.898v-6.605h0.898v2.157c0.281-0.348 0.589-0.536 0.911-0.536 0.362 0 0.603 0.188 0.71 0.563 0.067 0.201 0.094 0.522 0.094 0.991zM16.556 17.158v0.121c0 0.295-0.013 0.482-0.027 0.576-0.027 0.201-0.094 0.375-0.201 0.536-0.241 0.362-0.616 0.536-1.072 0.536-0.469 0-0.831-0.174-1.085-0.509-0.188-0.241-0.281-0.63-0.281-1.152v-1.728c0-0.522 0.080-0.898 0.268-1.152 0.255-0.335 0.616-0.509 1.072-0.509 0.442 0 0.804 0.174 1.045 0.509 0.188 0.255 0.281 0.63 0.281 1.152v1.018h-1.782v0.871c0 0.456 0.147 0.683 0.456 0.683 0.214 0 0.348-0.121 0.402-0.348 0-0.054 0.013-0.255 0.013-0.603h0.911zM10.513 6.119v2.090c0 0.456-0.147 0.683-0.429 0.683-0.295 0-0.429-0.228-0.429-0.683v-2.090c0-0.456 0.134-0.697 0.429-0.697 0.281 0 0.429 0.241 0.429 0.697zM17.654 15.671v0c0-1.152 0-2.371-0.255-3.483-0.188-0.79-0.831-1.367-1.594-1.447-1.822-0.201-3.671-0.201-5.52-0.201-1.835 0-3.684 0-5.506 0.201-0.777 0.080-1.42 0.656-1.594 1.447-0.255 1.112-0.268 2.331-0.268 3.483v0c0 1.139 0 2.358 0.268 3.483 0.174 0.777 0.817 1.353 1.581 1.447 1.835 0.201 3.684 0.201 5.52 0.201s3.684 0 5.52-0.201c0.764-0.094 1.407-0.67 1.581-1.447 0.268-1.125 0.268-2.345 0.268-3.483zM7.539 6.949l1.206-3.966h-1.005l-0.683 2.612-0.71-2.612h-1.045c0.201 0.616 0.429 1.233 0.63 1.849 0.322 0.938 0.522 1.634 0.616 2.117v2.693h0.991v-2.693zM11.411 8.034v-1.742c0-0.522-0.094-0.911-0.281-1.166-0.255-0.335-0.603-0.509-1.045-0.509-0.456 0-0.804 0.174-1.045 0.509-0.188 0.255-0.281 0.643-0.281 1.166v1.742c0 0.522 0.094 0.911 0.281 1.166 0.241 0.335 0.589 0.509 1.045 0.509 0.442 0 0.79-0.174 1.045-0.509 0.188-0.241 0.281-0.643 0.281-1.166zM13.836 9.642h0.898v-4.957h-0.898v3.791c-0.201 0.281-0.389 0.415-0.563 0.415-0.121 0-0.201-0.067-0.214-0.214-0.013-0.027-0.013-0.134-0.013-0.348v-3.644h-0.898v3.925c0 0.348 0.027 0.576 0.080 0.737 0.094 0.241 0.295 0.362 0.576 0.362 0.335 0 0.67-0.201 1.032-0.603v0.536zM20.575 5.569v12.861c0 2.13-1.728 3.858-3.858 3.858h-12.861c-2.13 0-3.858-1.728-3.858-3.858v-12.861c0-2.13 1.728-3.858 3.858-3.858h12.861c2.13 0 3.858 1.728 3.858 3.858z"></path>
</svg>
